  0
SECTION
  2
ENTITIES
  0
LINE
 10
-78.750000
 11
-78.750000
 20
-16.250000
 21
-9.250000
  0
LINE
 10
-78.750000
 11
-75.750000
 20
-9.250000
 21
-9.250000
  0
LINE
 10
-75.750000
 11
-75.750000
 20
-9.250000
 21
0.570000
  0
LINE
 10
-75.750000
 11
-74.550000
 20
0.570000
 21
0.570000
  0
LINE
 10
-74.550000
 11
-74.525000
 20
0.570000
 21
0.572000
  0
LINE
 10
-74.525000
 11
-74.500000
 20
0.572000
 21
0.576000
  0
LINE
 10
-74.500000
 11
-74.476000
 20
0.576000
 21
0.584000
  0
LINE
 10
-74.476000
 11
-74.454000
 20
0.584000
 21
0.595000
  0
LINE
 10
-74.454000
 11
-74.432000
 20
0.595000
 21
0.608000
  0
LINE
 10
-74.432000
 11
-74.413000
 20
0.608000
 21
0.624000
  0
LINE
 10
-74.413000
 11
-74.396000
 20
0.624000
 21
0.643000
  0
LINE
 10
-74.396000
 11
-74.381000
 20
0.643000
 21
0.663000
  0
LINE
 10
-74.381000
 11
-74.369000
 20
0.663000
 21
0.685000
  0
LINE
 10
-74.369000
 11
-74.360000
 20
0.685000
 21
0.708000
  0
LINE
 10
-74.360000
 11
-74.354000
 20
0.708000
 21
0.733000
  0
LINE
 10
-74.354000
 11
-74.350000
 20
0.733000
 21
0.757000
  0
LINE
 10
-74.350000
 11
-74.350000
 20
0.757000
 21
1.783000
  0
LINE
 10
-74.350000
 11
-74.354000
 20
1.783000
 21
1.807000
  0
LINE
 10
-74.354000
 11
-74.360000
 20
1.807000
 21
1.832000
  0
LINE
 10
-74.360000
 11
-74.369000
 20
1.832000
 21
1.855000
  0
LINE
 10
-74.369000
 11
-74.381000
 20
1.855000
 21
1.877000
  0
LINE
 10
-74.381000
 11
-74.396000
 20
1.877000
 21
1.897000
  0
LINE
 10
-74.396000
 11
-74.413000
 20
1.897000
 21
1.916000
  0
LINE
 10
-74.413000
 11
-74.432000
 20
1.916000
 21
1.932000
  0
LINE
 10
-74.432000
 11
-74.454000
 20
1.932000
 21
1.945000
  0
LINE
 10
-74.454000
 11
-74.476000
 20
1.945000
 21
1.956000
  0
LINE
 10
-74.476000
 11
-74.500000
 20
1.956000
 21
1.964000
  0
LINE
 10
-74.500000
 11
-74.525000
 20
1.964000
 21
1.968000
  0
LINE
 10
-74.525000
 11
-74.550000
 20
1.968000
 21
1.970000
  0
LINE
 10
-74.550000
 11
-75.750000
 20
1.970000
 21
1.970000
  0
LINE
 10
-75.750000
 11
-75.750000
 20
1.970000
 21
9.250000
  0
LINE
 10
-75.750000
 11
-78.750000
 20
9.250000
 21
9.250000
  0
LINE
 10
-78.750000
 11
-78.750000
 20
9.250000
 21
16.250000
  0
LINE
 10
-78.750000
 11
-75.750000
 20
16.250000
 21
16.250000
  0
LINE
 10
-75.750000
 11
-75.750000
 20
16.250000
 21
25.500000
  0
LINE
 10
-75.750000
 11
-69.725000
 20
25.500000
 21
25.500000
  0
LINE
 10
-69.725000
 11
-69.725000
 20
25.500000
 21
22.500000
  0
LINE
 10
-69.725000
 11
-62.725000
 20
22.500000
 21
22.500000
  0
LINE
 10
-62.725000
 11
-62.725000
 20
22.500000
 21
25.500000
  0
LINE
 10
-62.725000
 11
-56.700000
 20
25.500000
 21
25.500000
  0
LINE
 10
-56.700000
 11
-56.700000
 20
25.500000
 21
16.250000
  0
LINE
 10
-56.700000
 11
-53.700000
 20
16.250000
 21
16.250000
  0
LINE
 10
-53.700000
 11
-53.700000
 20
16.250000
 21
9.250000
  0
LINE
 10
-53.700000
 11
-56.700000
 20
9.250000
 21
9.250000
  0
LINE
 10
-56.700000
 11
-56.700000
 20
9.250000
 21
-9.250000
  0
LINE
 10
-56.700000
 11
-53.700000
 20
-9.250000
 21
-9.250000
  0
LINE
 10
-53.700000
 11
-53.700000
 20
-9.250000
 21
-16.250000
  0
LINE
 10
-53.700000
 11
-56.700000
 20
-16.250000
 21
-16.250000
  0
LINE
 10
-56.700000
 11
-56.700000
 20
-16.250000
 21
-25.500000
  0
LINE
 10
-56.700000
 11
-62.725000
 20
-25.500000
 21
-25.500000
  0
LINE
 10
-62.725000
 11
-62.725000
 20
-25.500000
 21
-22.500000
  0
LINE
 10
-62.725000
 11
-69.725000
 20
-22.500000
 21
-22.500000
  0
LINE
 10
-69.725000
 11
-69.725000
 20
-22.500000
 21
-25.500000
  0
LINE
 10
-69.725000
 11
-75.750000
 20
-25.500000
 21
-25.500000
  0
LINE
 10
-75.750000
 11
-75.750000
 20
-25.500000
 21
-16.250000
  0
LINE
 10
-75.750000
 11
-78.750000
 20
-16.250000
 21
-16.250000
  0
LINE
 10
-41.700000
 11
-41.700000
 20
-27.000000
 21
27.000000
  0
LINE
 10
-41.700000
 11
-41.688000
 20
27.000000
 21
27.188000
  0
LINE
 10
-41.688000
 11
-41.653000
 20
27.188000
 21
27.373000
  0
LINE
 10
-41.653000
 11
-41.595000
 20
27.373000
 21
27.552000
  0
LINE
 10
-41.595000
 11
-41.514000
 20
27.552000
 21
27.723000
  0
LINE
 10
-41.514000
 11
-41.414000
 20
27.723000
 21
27.882000
  0
LINE
 10
-41.414000
 11
-41.293000
 20
27.882000
 21
28.027000
  0
LINE
 10
-41.293000
 11
-41.156000
 20
28.027000
 21
28.156000
  0
LINE
 10
-41.156000
 11
-41.004000
 20
28.156000
 21
28.266000
  0
LINE
 10
-41.004000
 11
-40.839000
 20
28.266000
 21
28.357000
  0
LINE
 10
-40.839000
 11
-40.664000
 20
28.357000
 21
28.427000
  0
LINE
 10
-40.664000
 11
-40.481000
 20
28.427000
 21
28.473000
  0
LINE
 10
-40.481000
 11
-40.294000
 20
28.473000
 21
28.497000
  0
LINE
 10
-40.294000
 11
-40.200000
 20
28.497000
 21
28.497000
  0
LINE
 10
-40.200000
 11
-40.200000
 20
28.497000
 21
28.500000
  0
LINE
 10
-40.200000
 11
40.200000
 20
28.500000
 21
28.500000
  0
LINE
 10
40.200000
 11
40.200000
 20
28.500000
 21
28.497000
  0
LINE
 10
40.200000
 11
40.294000
 20
28.497000
 21
28.497000
  0
LINE
 10
40.294000
 11
40.481000
 20
28.497000
 21
28.473000
  0
LINE
 10
40.481000
 11
40.664000
 20
28.473000
 21
28.427000
  0
LINE
 10
40.664000
 11
40.839000
 20
28.427000
 21
28.357000
  0
LINE
 10
40.839000
 11
41.004000
 20
28.357000
 21
28.266000
  0
LINE
 10
41.004000
 11
41.156000
 20
28.266000
 21
28.156000
  0
LINE
 10
41.156000
 11
41.293000
 20
28.156000
 21
28.027000
  0
LINE
 10
41.293000
 11
41.414000
 20
28.027000
 21
27.882000
  0
LINE
 10
41.414000
 11
41.514000
 20
27.882000
 21
27.723000
  0
LINE
 10
41.514000
 11
41.595000
 20
27.723000
 21
27.552000
  0
LINE
 10
41.595000
 11
41.653000
 20
27.552000
 21
27.373000
  0
LINE
 10
41.653000
 11
41.688000
 20
27.373000
 21
27.188000
  0
LINE
 10
41.688000
 11
41.700000
 20
27.188000
 21
27.000000
  0
LINE
 10
41.700000
 11
41.700000
 20
27.000000
 21
-27.000000
  0
LINE
 10
41.700000
 11
41.688000
 20
-27.000000
 21
-27.188000
  0
LINE
 10
41.688000
 11
41.653000
 20
-27.188000
 21
-27.373000
  0
LINE
 10
41.653000
 11
41.595000
 20
-27.373000
 21
-27.552000
  0
LINE
 10
41.595000
 11
41.514000
 20
-27.552000
 21
-27.723000
  0
LINE
 10
41.514000
 11
41.414000
 20
-27.723000
 21
-27.882000
  0
LINE
 10
41.414000
 11
41.293000
 20
-27.882000
 21
-28.027000
  0
LINE
 10
41.293000
 11
41.156000
 20
-28.027000
 21
-28.156000
  0
LINE
 10
41.156000
 11
41.004000
 20
-28.156000
 21
-28.266000
  0
LINE
 10
41.004000
 11
40.839000
 20
-28.266000
 21
-28.357000
  0
LINE
 10
40.839000
 11
40.664000
 20
-28.357000
 21
-28.427000
  0
LINE
 10
40.664000
 11
40.481000
 20
-28.427000
 21
-28.473000
  0
LINE
 10
40.481000
 11
40.294000
 20
-28.473000
 21
-28.497000
  0
LINE
 10
40.294000
 11
40.200000
 20
-28.497000
 21
-28.497000
  0
LINE
 10
40.200000
 11
40.200000
 20
-28.497000
 21
-28.500000
  0
LINE
 10
40.200000
 11
-40.200000
 20
-28.500000
 21
-28.500000
  0
LINE
 10
-40.200000
 11
-40.200000
 20
-28.500000
 21
-28.497000
  0
LINE
 10
-40.200000
 11
-40.294000
 20
-28.497000
 21
-28.497000
  0
LINE
 10
-40.294000
 11
-40.481000
 20
-28.497000
 21
-28.473000
  0
LINE
 10
-40.481000
 11
-40.664000
 20
-28.473000
 21
-28.427000
  0
LINE
 10
-40.664000
 11
-40.839000
 20
-28.427000
 21
-28.357000
  0
LINE
 10
-40.839000
 11
-41.004000
 20
-28.357000
 21
-28.266000
  0
LINE
 10
-41.004000
 11
-41.156000
 20
-28.266000
 21
-28.156000
  0
LINE
 10
-41.156000
 11
-41.293000
 20
-28.156000
 21
-28.027000
  0
LINE
 10
-41.293000
 11
-41.414000
 20
-28.027000
 21
-27.882000
  0
LINE
 10
-41.414000
 11
-41.514000
 20
-27.882000
 21
-27.723000
  0
LINE
 10
-41.514000
 11
-41.595000
 20
-27.723000
 21
-27.552000
  0
LINE
 10
-41.595000
 11
-41.653000
 20
-27.552000
 21
-27.373000
  0
LINE
 10
-41.653000
 11
-41.688000
 20
-27.373000
 21
-27.188000
  0
LINE
 10
-41.688000
 11
-41.700000
 20
-27.188000
 21
-27.000000
  0
LINE
 10
-39.224000
 11
-39.212000
 20
-2.500000
 21
-2.309000
  0
LINE
 10
-39.212000
 11
-39.176000
 20
-2.309000
 21
-2.121000
  0
LINE
 10
-39.176000
 11
-39.117000
 20
-2.121000
 21
-1.939000
  0
LINE
 10
-39.117000
 11
-39.035000
 20
-1.939000
 21
-1.766000
  0
LINE
 10
-39.035000
 11
-38.933000
 20
-1.766000
 21
-1.604000
  0
LINE
 10
-38.933000
 11
-38.811000
 20
-1.604000
 21
-1.457000
  0
LINE
 10
-38.811000
 11
-38.671000
 20
-1.457000
 21
-1.326000
  0
LINE
 10
-38.671000
 11
-38.517000
 20
-1.326000
 21
-1.213000
  0
LINE
 10
-38.517000
 11
-38.349000
 20
-1.213000
 21
-1.121000
  0
LINE
 10
-38.349000
 11
-38.171000
 20
-1.121000
 21
-1.051000
  0
LINE
 10
-38.171000
 11
-37.986000
 20
-1.051000
 21
-1.003000
  0
LINE
 10
-37.986000
 11
-37.796000
 20
-1.003000
 21
-0.979000
  0
LINE
 10
-37.796000
 11
-37.604000
 20
-0.979000
 21
-0.979000
  0
LINE
 10
-37.604000
 11
-37.414000
 20
-0.979000
 21
-1.003000
  0
LINE
 10
-37.414000
 11
-37.229000
 20
-1.003000
 21
-1.051000
  0
LINE
 10
-37.229000
 11
-37.051000
 20
-1.051000
 21
-1.121000
  0
LINE
 10
-37.051000
 11
-36.883000
 20
-1.121000
 21
-1.213000
  0
LINE
 10
-36.883000
 11
-36.729000
 20
-1.213000
 21
-1.326000
  0
LINE
 10
-36.729000
 11
-36.589000
 20
-1.326000
 21
-1.457000
  0
LINE
 10
-36.589000
 11
-36.467000
 20
-1.457000
 21
-1.604000
  0
LINE
 10
-36.467000
 11
-36.365000
 20
-1.604000
 21
-1.766000
  0
LINE
 10
-36.365000
 11
-36.283000
 20
-1.766000
 21
-1.939000
  0
LINE
 10
-36.283000
 11
-36.224000
 20
-1.939000
 21
-2.121000
  0
LINE
 10
-36.224000
 11
-36.188000
 20
-2.121000
 21
-2.309000
  0
LINE
 10
-36.188000
 11
-36.176000
 20
-2.309000
 21
-2.500000
  0
LINE
 10
-36.176000
 11
-36.188000
 20
-2.500000
 21
-2.691000
  0
LINE
 10
-36.188000
 11
-36.224000
 20
-2.691000
 21
-2.879000
  0
LINE
 10
-36.224000
 11
-36.283000
 20
-2.879000
 21
-3.061000
  0
LINE
 10
-36.283000
 11
-36.365000
 20
-3.061000
 21
-3.234000
  0
LINE
 10
-36.365000
 11
-36.467000
 20
-3.234000
 21
-3.396000
  0
LINE
 10
-36.467000
 11
-36.589000
 20
-3.396000
 21
-3.543000
  0
LINE
 10
-36.589000
 11
-36.729000
 20
-3.543000
 21
-3.674000
  0
LINE
 10
-36.729000
 11
-36.883000
 20
-3.674000
 21
-3.787000
  0
LINE
 10
-36.883000
 11
-37.051000
 20
-3.787000
 21
-3.879000
  0
LINE
 10
-37.051000
 11
-37.229000
 20
-3.879000
 21
-3.949000
  0
LINE
 10
-37.229000
 11
-37.414000
 20
-3.949000
 21
-3.997000
  0
LINE
 10
-37.414000
 11
-37.604000
 20
-3.997000
 21
-4.021000
  0
LINE
 10
-37.604000
 11
-37.796000
 20
-4.021000
 21
-4.021000
  0
LINE
 10
-37.796000
 11
-37.986000
 20
-4.021000
 21
-3.997000
  0
LINE
 10
-37.986000
 11
-38.171000
 20
-3.997000
 21
-3.949000
  0
LINE
 10
-38.171000
 11
-38.349000
 20
-3.949000
 21
-3.879000
  0
LINE
 10
-38.349000
 11
-38.517000
 20
-3.879000
 21
-3.787000
  0
LINE
 10
-38.517000
 11
-38.671000
 20
-3.787000
 21
-3.674000
  0
LINE
 10
-38.671000
 11
-38.811000
 20
-3.674000
 21
-3.543000
  0
LINE
 10
-38.811000
 11
-38.933000
 20
-3.543000
 21
-3.396000
  0
LINE
 10
-38.933000
 11
-39.035000
 20
-3.396000
 21
-3.234000
  0
LINE
 10
-39.035000
 11
-39.117000
 20
-3.234000
 21
-3.061000
  0
LINE
 10
-39.117000
 11
-39.176000
 20
-3.061000
 21
-2.879000
  0
LINE
 10
-39.176000
 11
-39.212000
 20
-2.879000
 21
-2.691000
  0
LINE
 10
-39.212000
 11
-39.224000
 20
-2.691000
 21
-2.500000
  0
LINE
 10
-35.200000
 11
-35.200000
 20
-130.050000
 21
-79.050000
  0
LINE
 10
-35.200000
 11
-35.188000
 20
-79.050000
 21
-78.862000
  0
LINE
 10
-35.188000
 11
-35.153000
 20
-78.862000
 21
-78.677000
  0
LINE
 10
-35.153000
 11
-35.095000
 20
-78.677000
 21
-78.498000
  0
LINE
 10
-35.095000
 11
-35.014000
 20
-78.498000
 21
-78.327000
  0
LINE
 10
-35.014000
 11
-34.914000
 20
-78.327000
 21
-78.168000
  0
LINE
 10
-34.914000
 11
-34.793000
 20
-78.168000
 21
-78.023000
  0
LINE
 10
-34.793000
 11
-34.656000
 20
-78.023000
 21
-77.894000
  0
LINE
 10
-34.656000
 11
-34.504000
 20
-77.894000
 21
-77.784000
  0
LINE
 10
-34.504000
 11
-34.339000
 20
-77.784000
 21
-77.693000
  0
LINE
 10
-34.339000
 11
-34.164000
 20
-77.693000
 21
-77.623000
  0
LINE
 10
-34.164000
 11
-33.981000
 20
-77.623000
 21
-77.577000
  0
LINE
 10
-33.981000
 11
-33.794000
 20
-77.577000
 21
-77.553000
  0
LINE
 10
-33.794000
 11
-33.700000
 20
-77.553000
 21
-77.553000
  0
LINE
 10
-33.700000
 11
-33.700000
 20
-77.553000
 21
-77.550000
  0
LINE
 10
-33.700000
 11
33.700000
 20
-77.550000
 21
-77.550000
  0
LINE
 10
33.700000
 11
33.700000
 20
-77.550000
 21
-77.553000
  0
LINE
 10
33.700000
 11
33.794000
 20
-77.553000
 21
-77.553000
  0
LINE
 10
33.794000
 11
33.981000
 20
-77.553000
 21
-77.577000
  0
LINE
 10
33.981000
 11
34.164000
 20
-77.577000
 21
-77.623000
  0
LINE
 10
34.164000
 11
34.339000
 20
-77.623000
 21
-77.693000
  0
LINE
 10
34.339000
 11
34.504000
 20
-77.693000
 21
-77.784000
  0
LINE
 10
34.504000
 11
34.656000
 20
-77.784000
 21
-77.894000
  0
LINE
 10
34.656000
 11
34.793000
 20
-77.894000
 21
-78.023000
  0
LINE
 10
34.793000
 11
34.914000
 20
-78.023000
 21
-78.168000
  0
LINE
 10
34.914000
 11
35.014000
 20
-78.168000
 21
-78.327000
  0
LINE
 10
35.014000
 11
35.095000
 20
-78.327000
 21
-78.498000
  0
LINE
 10
35.095000
 11
35.153000
 20
-78.498000
 21
-78.677000
  0
LINE
 10
35.153000
 11
35.188000
 20
-78.677000
 21
-78.862000
  0
LINE
 10
35.188000
 11
35.200000
 20
-78.862000
 21
-79.050000
  0
LINE
 10
35.200000
 11
35.200000
 20
-79.050000
 21
-130.050000
  0
LINE
 10
35.200000
 11
35.188000
 20
-130.050000
 21
-130.238000
  0
LINE
 10
35.188000
 11
35.153000
 20
-130.238000
 21
-130.423000
  0
LINE
 10
35.153000
 11
35.095000
 20
-130.423000
 21
-130.602000
  0
LINE
 10
35.095000
 11
35.014000
 20
-130.602000
 21
-130.773000
  0
LINE
 10
35.014000
 11
34.914000
 20
-130.773000
 21
-130.932000
  0
LINE
 10
34.914000
 11
34.793000
 20
-130.932000
 21
-131.077000
  0
LINE
 10
34.793000
 11
34.656000
 20
-131.077000
 21
-131.206000
  0
LINE
 10
34.656000
 11
34.504000
 20
-131.206000
 21
-131.316000
  0
LINE
 10
34.504000
 11
34.339000
 20
-131.316000
 21
-131.407000
  0
LINE
 10
34.339000
 11
34.164000
 20
-131.407000
 21
-131.477000
  0
LINE
 10
34.164000
 11
33.981000
 20
-131.477000
 21
-131.523000
  0
LINE
 10
33.981000
 11
33.794000
 20
-131.523000
 21
-131.547000
  0
LINE
 10
33.794000
 11
33.700000
 20
-131.547000
 21
-131.547000
  0
LINE
 10
33.700000
 11
33.700000
 20
-131.547000
 21
-131.550000
  0
LINE
 10
33.700000
 11
-33.700000
 20
-131.550000
 21
-131.550000
  0
LINE
 10
-33.700000
 11
-33.700000
 20
-131.550000
 21
-131.547000
  0
LINE
 10
-33.700000
 11
-33.794000
 20
-131.547000
 21
-131.547000
  0
LINE
 10
-33.794000
 11
-33.981000
 20
-131.547000
 21
-131.523000
  0
LINE
 10
-33.981000
 11
-34.164000
 20
-131.523000
 21
-131.477000
  0
LINE
 10
-34.164000
 11
-34.339000
 20
-131.477000
 21
-131.407000
  0
LINE
 10
-34.339000
 11
-34.504000
 20
-131.407000
 21
-131.316000
  0
LINE
 10
-34.504000
 11
-34.656000
 20
-131.316000
 21
-131.206000
  0
LINE
 10
-34.656000
 11
-34.793000
 20
-131.206000
 21
-131.077000
  0
LINE
 10
-34.793000
 11
-34.914000
 20
-131.077000
 21
-130.932000
  0
LINE
 10
-34.914000
 11
-35.014000
 20
-130.932000
 21
-130.773000
  0
LINE
 10
-35.014000
 11
-35.095000
 20
-130.773000
 21
-130.602000
  0
LINE
 10
-35.095000
 11
-35.153000
 20
-130.602000
 21
-130.423000
  0
LINE
 10
-35.153000
 11
-35.188000
 20
-130.423000
 21
-130.238000
  0
LINE
 10
-35.188000
 11
-35.200000
 20
-130.238000
 21
-130.050000
  0
LINE
 10
-33.700000
 11
-33.700000
 20
-120.800000
 21
-113.800000
  0
LINE
 10
-33.700000
 11
-30.700000
 20
-113.800000
 21
-113.800000
  0
LINE
 10
-30.700000
 11
-30.700000
 20
-113.800000
 21
-120.800000
  0
LINE
 10
-30.700000
 11
-33.700000
 20
-120.800000
 21
-120.800000
  0
LINE
 10
-33.700000
 11
-33.700000
 20
-95.300000
 21
-88.300000
  0
LINE
 10
-33.700000
 11
-30.700000
 20
-88.300000
 21
-88.300000
  0
LINE
 10
-30.700000
 11
-30.700000
 20
-88.300000
 21
-95.300000
  0
LINE
 10
-30.700000
 11
-33.700000
 20
-95.300000
 21
-95.300000
  0
LINE
 10
-33.700000
 11
-33.700000
 20
-56.525000
 21
-49.525000
  0
LINE
 10
-33.700000
 11
-30.700000
 20
-49.525000
 21
-49.525000
  0
LINE
 10
-30.700000
 11
-30.700000
 20
-49.525000
 21
-43.500000
  0
LINE
 10
-30.700000
 11
-18.850000
 20
-43.500000
 21
-43.500000
  0
LINE
 10
-18.850000
 11
-18.850000
 20
-43.500000
 21
-40.500000
  0
LINE
 10
-18.850000
 11
-11.850000
 20
-40.500000
 21
-40.500000
  0
LINE
 10
-11.850000
 11
-11.850000
 20
-40.500000
 21
-43.500000
  0
LINE
 10
-11.850000
 11
11.850000
 20
-43.500000
 21
-43.500000
  0
LINE
 10
11.850000
 11
11.850000
 20
-43.500000
 21
-40.500000
  0
LINE
 10
11.850000
 11
18.850000
 20
-40.500000
 21
-40.500000
  0
LINE
 10
18.850000
 11
18.850000
 20
-40.500000
 21
-43.500000
  0
LINE
 10
18.850000
 11
30.700000
 20
-43.500000
 21
-43.500000
  0
LINE
 10
30.700000
 11
30.700000
 20
-43.500000
 21
-49.525000
  0
LINE
 10
30.700000
 11
33.700000
 20
-49.525000
 21
-49.525000
  0
LINE
 10
33.700000
 11
33.700000
 20
-49.525000
 21
-56.525000
  0
LINE
 10
33.700000
 11
30.700000
 20
-56.525000
 21
-56.525000
  0
LINE
 10
30.700000
 11
30.700000
 20
-56.525000
 21
-62.550000
  0
LINE
 10
30.700000
 11
18.850000
 20
-62.550000
 21
-62.550000
  0
LINE
 10
18.850000
 11
18.850000
 20
-62.550000
 21
-65.550000
  0
LINE
 10
18.850000
 11
11.850000
 20
-65.550000
 21
-65.550000
  0
LINE
 10
11.850000
 11
11.850000
 20
-65.550000
 21
-62.550000
  0
LINE
 10
11.850000
 11
-11.850000
 20
-62.550000
 21
-62.550000
  0
LINE
 10
-11.850000
 11
-11.850000
 20
-62.550000
 21
-65.550000
  0
LINE
 10
-11.850000
 11
-18.850000
 20
-65.550000
 21
-65.550000
  0
LINE
 10
-18.850000
 11
-18.850000
 20
-65.550000
 21
-62.550000
  0
LINE
 10
-18.850000
 11
-30.700000
 20
-62.550000
 21
-62.550000
  0
LINE
 10
-30.700000
 11
-30.700000
 20
-62.550000
 21
-56.525000
  0
LINE
 10
-30.700000
 11
-33.700000
 20
-56.525000
 21
-56.525000
  0
LINE
 10
-33.700000
 11
-33.700000
 20
-16.250000
 21
-9.250000
  0
LINE
 10
-33.700000
 11
-30.700000
 20
-9.250000
 21
-9.250000
  0
LINE
 10
-30.700000
 11
-30.700000
 20
-9.250000
 21
-16.250000
  0
LINE
 10
-30.700000
 11
-33.700000
 20
-16.250000
 21
-16.250000
  0
LINE
 10
-33.700000
 11
-33.700000
 20
9.250000
 21
16.250000
  0
LINE
 10
-33.700000
 11
-30.700000
 20
16.250000
 21
16.250000
  0
LINE
 10
-30.700000
 11
-30.700000
 20
16.250000
 21
9.250000
  0
LINE
 10
-30.700000
 11
-33.700000
 20
9.250000
 21
9.250000
  0
LINE
 10
-33.700000
 11
-33.700000
 20
49.525000
 21
56.525000
  0
LINE
 10
-33.700000
 11
-30.700000
 20
56.525000
 21
56.525000
  0
LINE
 10
-30.700000
 11
-30.700000
 20
56.525000
 21
62.550000
  0
LINE
 10
-30.700000
 11
-18.850000
 20
62.550000
 21
62.550000
  0
LINE
 10
-18.850000
 11
-18.850000
 20
62.550000
 21
65.550000
  0
LINE
 10
-18.850000
 11
-11.850000
 20
65.550000
 21
65.550000
  0
LINE
 10
-11.850000
 11
-11.850000
 20
65.550000
 21
62.550000
  0
LINE
 10
-11.850000
 11
11.850000
 20
62.550000
 21
62.550000
  0
LINE
 10
11.850000
 11
11.850000
 20
62.550000
 21
65.550000
  0
LINE
 10
11.850000
 11
18.850000
 20
65.550000
 21
65.550000
  0
LINE
 10
18.850000
 11
18.850000
 20
65.550000
 21
62.550000
  0
LINE
 10
18.850000
 11
30.700000
 20
62.550000
 21
62.550000
  0
LINE
 10
30.700000
 11
30.700000
 20
62.550000
 21
56.525000
  0
LINE
 10
30.700000
 11
33.700000
 20
56.525000
 21
56.525000
  0
LINE
 10
33.700000
 11
33.700000
 20
56.525000
 21
49.525000
  0
LINE
 10
33.700000
 11
30.700000
 20
49.525000
 21
49.525000
  0
LINE
 10
30.700000
 11
30.700000
 20
49.525000
 21
43.500000
  0
LINE
 10
30.700000
 11
18.850000
 20
43.500000
 21
43.500000
  0
LINE
 10
18.850000
 11
18.850000
 20
43.500000
 21
40.500000
  0
LINE
 10
18.850000
 11
11.850000
 20
40.500000
 21
40.500000
  0
LINE
 10
11.850000
 11
11.850000
 20
40.500000
 21
43.500000
  0
LINE
 10
11.850000
 11
-11.850000
 20
43.500000
 21
43.500000
  0
LINE
 10
-11.850000
 11
-11.850000
 20
43.500000
 21
40.500000
  0
LINE
 10
-11.850000
 11
-18.850000
 20
40.500000
 21
40.500000
  0
LINE
 10
-18.850000
 11
-18.850000
 20
40.500000
 21
43.500000
  0
LINE
 10
-18.850000
 11
-30.700000
 20
43.500000
 21
43.500000
  0
LINE
 10
-30.700000
 11
-30.700000
 20
43.500000
 21
49.525000
  0
LINE
 10
-30.700000
 11
-33.700000
 20
49.525000
 21
49.525000
  0
LINE
 10
-30.665000
 11
-30.665000
 20
-6.475000
 21
6.475000
  0
LINE
 10
-30.665000
 11
30.665000
 20
6.475000
 21
6.475000
  0
LINE
 10
30.665000
 11
30.665000
 20
6.475000
 21
-6.475000
  0
LINE
 10
30.665000
 11
-30.665000
 20
-6.475000
 21
-6.475000
  0
LINE
 10
-28.620000
 11
-28.614000
 20
-9.136000
 21
-9.034000
  0
LINE
 10
-28.614000
 11
-28.594000
 20
-9.034000
 21
-8.934000
  0
LINE
 10
-28.594000
 11
-28.563000
 20
-8.934000
 21
-8.836000
  0
LINE
 10
-28.563000
 11
-28.519000
 20
-8.836000
 21
-8.744000
  0
LINE
 10
-28.519000
 11
-28.465000
 20
-8.744000
 21
-8.658000
  0
LINE
 10
-28.465000
 11
-28.399000
 20
-8.658000
 21
-8.579000
  0
LINE
 10
-28.399000
 11
-28.325000
 20
-8.579000
 21
-8.509000
  0
LINE
 10
-28.325000
 11
-28.242000
 20
-8.509000
 21
-8.449000
  0
LINE
 10
-28.242000
 11
-28.153000
 20
-8.449000
 21
-8.399000
  0
LINE
 10
-28.153000
 11
-28.058000
 20
-8.399000
 21
-8.362000
  0
LINE
 10
-28.058000
 11
-27.959000
 20
-8.362000
 21
-8.336000
  0
LINE
 10
-27.959000
 11
-27.857000
 20
-8.336000
 21
-8.324000
  0
LINE
 10
-27.857000
 11
-27.755000
 20
-8.324000
 21
-8.324000
  0
LINE
 10
-27.755000
 11
-27.653000
 20
-8.324000
 21
-8.336000
  0
LINE
 10
-27.653000
 11
-27.554000
 20
-8.336000
 21
-8.362000
  0
LINE
 10
-27.554000
 11
-27.459000
 20
-8.362000
 21
-8.399000
  0
LINE
 10
-27.459000
 11
-27.370000
 20
-8.399000
 21
-8.449000
  0
LINE
 10
-27.370000
 11
-27.287000
 20
-8.449000
 21
-8.509000
  0
LINE
 10
-27.287000
 11
-27.213000
 20
-8.509000
 21
-8.579000
  0
LINE
 10
-27.213000
 11
-27.147000
 20
-8.579000
 21
-8.658000
  0
LINE
 10
-27.147000
 11
-27.093000
 20
-8.658000
 21
-8.744000
  0
LINE
 10
-27.093000
 11
-27.049000
 20
-8.744000
 21
-8.836000
  0
LINE
 10
-27.049000
 11
-27.018000
 20
-8.836000
 21
-8.934000
  0
LINE
 10
-27.018000
 11
-26.998000
 20
-8.934000
 21
-9.034000
  0
LINE
 10
-26.998000
 11
-26.992000
 20
-9.034000
 21
-9.136000
  0
LINE
 10
-26.992000
 11
-26.998000
 20
-9.136000
 21
-9.238000
  0
LINE
 10
-26.998000
 11
-27.018000
 20
-9.238000
 21
-9.338000
  0
LINE
 10
-27.018000
 11
-27.049000
 20
-9.338000
 21
-9.436000
  0
LINE
 10
-27.049000
 11
-27.093000
 20
-9.436000
 21
-9.528000
  0
LINE
 10
-27.093000
 11
-27.147000
 20
-9.528000
 21
-9.614000
  0
LINE
 10
-27.147000
 11
-27.213000
 20
-9.614000
 21
-9.693000
  0
LINE
 10
-27.213000
 11
-27.287000
 20
-9.693000
 21
-9.763000
  0
LINE
 10
-27.287000
 11
-27.370000
 20
-9.763000
 21
-9.823000
  0
LINE
 10
-27.370000
 11
-27.459000
 20
-9.823000
 21
-9.873000
  0
LINE
 10
-27.459000
 11
-27.554000
 20
-9.873000
 21
-9.910000
  0
LINE
 10
-27.554000
 11
-27.653000
 20
-9.910000
 21
-9.936000
  0
LINE
 10
-27.653000
 11
-27.755000
 20
-9.936000
 21
-9.948000
  0
LINE
 10
-27.755000
 11
-27.857000
 20
-9.948000
 21
-9.948000
  0
LINE
 10
-27.857000
 11
-27.959000
 20
-9.948000
 21
-9.936000
  0
LINE
 10
-27.959000
 11
-28.058000
 20
-9.936000
 21
-9.910000
  0
LINE
 10
-28.058000
 11
-28.153000
 20
-9.910000
 21
-9.873000
  0
LINE
 10
-28.153000
 11
-28.242000
 20
-9.873000
 21
-9.823000
  0
LINE
 10
-28.242000
 11
-28.325000
 20
-9.823000
 21
-9.763000
  0
LINE
 10
-28.325000
 11
-28.399000
 20
-9.763000
 21
-9.693000
  0
LINE
 10
-28.399000
 11
-28.465000
 20
-9.693000
 21
-9.614000
  0
LINE
 10
-28.465000
 11
-28.519000
 20
-9.614000
 21
-9.528000
  0
LINE
 10
-28.519000
 11
-28.563000
 20
-9.528000
 21
-9.436000
  0
LINE
 10
-28.563000
 11
-28.594000
 20
-9.436000
 21
-9.338000
  0
LINE
 10
-28.594000
 11
-28.614000
 20
-9.338000
 21
-9.238000
  0
LINE
 10
-28.614000
 11
-28.620000
 20
-9.238000
 21
-9.136000
  0
LINE
 10
-28.620000
 11
-28.614000
 20
11.676000
 21
11.778000
  0
LINE
 10
-28.614000
 11
-28.594000
 20
11.778000
 21
11.878000
  0
LINE
 10
-28.594000
 11
-28.563000
 20
11.878000
 21
11.976000
  0
LINE
 10
-28.563000
 11
-28.519000
 20
11.976000
 21
12.068000
  0
LINE
 10
-28.519000
 11
-28.465000
 20
12.068000
 21
12.154000
  0
LINE
 10
-28.465000
 11
-28.399000
 20
12.154000
 21
12.233000
  0
LINE
 10
-28.399000
 11
-28.325000
 20
12.233000
 21
12.303000
  0
LINE
 10
-28.325000
 11
-28.242000
 20
12.303000
 21
12.363000
  0
LINE
 10
-28.242000
 11
-28.153000
 20
12.363000
 21
12.413000
  0
LINE
 10
-28.153000
 11
-28.058000
 20
12.413000
 21
12.450000
  0
LINE
 10
-28.058000
 11
-27.959000
 20
12.450000
 21
12.476000
  0
LINE
 10
-27.959000
 11
-27.857000
 20
12.476000
 21
12.488000
  0
LINE
 10
-27.857000
 11
-27.755000
 20
12.488000
 21
12.488000
  0
LINE
 10
-27.755000
 11
-27.653000
 20
12.488000
 21
12.476000
  0
LINE
 10
-27.653000
 11
-27.554000
 20
12.476000
 21
12.450000
  0
LINE
 10
-27.554000
 11
-27.459000
 20
12.450000
 21
12.413000
  0
LINE
 10
-27.459000
 11
-27.370000
 20
12.413000
 21
12.363000
  0
LINE
 10
-27.370000
 11
-27.287000
 20
12.363000
 21
12.303000
  0
LINE
 10
-27.287000
 11
-27.213000
 20
12.303000
 21
12.233000
  0
LINE
 10
-27.213000
 11
-27.147000
 20
12.233000
 21
12.154000
  0
LINE
 10
-27.147000
 11
-27.093000
 20
12.154000
 21
12.068000
  0
LINE
 10
-27.093000
 11
-27.049000
 20
12.068000
 21
11.976000
  0
LINE
 10
-27.049000
 11
-27.018000
 20
11.976000
 21
11.878000
  0
LINE
 10
-27.018000
 11
-26.998000
 20
11.878000
 21
11.778000
  0
LINE
 10
-26.998000
 11
-26.992000
 20
11.778000
 21
11.676000
  0
LINE
 10
-26.992000
 11
-26.998000
 20
11.676000
 21
11.574000
  0
LINE
 10
-26.998000
 11
-27.018000
 20
11.574000
 21
11.474000
  0
LINE
 10
-27.018000
 11
-27.049000
 20
11.474000
 21
11.376000
  0
LINE
 10
-27.049000
 11
-27.093000
 20
11.376000
 21
11.284000
  0
LINE
 10
-27.093000
 11
-27.147000
 20
11.284000
 21
11.198000
  0
LINE
 10
-27.147000
 11
-27.213000
 20
11.198000
 21
11.119000
  0
LINE
 10
-27.213000
 11
-27.287000
 20
11.119000
 21
11.049000
  0
LINE
 10
-27.287000
 11
-27.370000
 20
11.049000
 21
10.989000
  0
LINE
 10
-27.370000
 11
-27.459000
 20
10.989000
 21
10.939000
  0
LINE
 10
-27.459000
 11
-27.554000
 20
10.939000
 21
10.902000
  0
LINE
 10
-27.554000
 11
-27.653000
 20
10.902000
 21
10.876000
  0
LINE
 10
-27.653000
 11
-27.755000
 20
10.876000
 21
10.864000
  0
LINE
 10
-27.755000
 11
-27.857000
 20
10.864000
 21
10.864000
  0
LINE
 10
-27.857000
 11
-27.959000
 20
10.864000
 21
10.876000
  0
LINE
 10
-27.959000
 11
-28.058000
 20
10.876000
 21
10.902000
  0
LINE
 10
-28.058000
 11
-28.153000
 20
10.902000
 21
10.939000
  0
LINE
 10
-28.153000
 11
-28.242000
 20
10.939000
 21
10.989000
  0
LINE
 10
-28.242000
 11
-28.325000
 20
10.989000
 21
11.049000
  0
LINE
 10
-28.325000
 11
-28.399000
 20
11.049000
 21
11.119000
  0
LINE
 10
-28.399000
 11
-28.465000
 20
11.119000
 21
11.198000
  0
LINE
 10
-28.465000
 11
-28.519000
 20
11.198000
 21
11.284000
  0
LINE
 10
-28.519000
 11
-28.563000
 20
11.284000
 21
11.376000
  0
LINE
 10
-28.563000
 11
-28.594000
 20
11.376000
 21
11.474000
  0
LINE
 10
-28.594000
 11
-28.614000
 20
11.474000
 21
11.574000
  0
LINE
 10
-28.614000
 11
-28.620000
 20
11.574000
 21
11.676000
  0
LINE
 10
-28.154000
 11
-28.145000
 20
-123.373000
 21
-123.232000
  0
LINE
 10
-28.145000
 11
-28.118000
 20
-123.232000
 21
-123.092000
  0
LINE
 10
-28.118000
 11
-28.074000
 20
-123.092000
 21
-122.957000
  0
LINE
 10
-28.074000
 11
-28.014000
 20
-122.957000
 21
-122.829000
  0
LINE
 10
-28.014000
 11
-27.938000
 20
-122.829000
 21
-122.709000
  0
LINE
 10
-27.938000
 11
-27.847000
 20
-122.709000
 21
-122.600000
  0
LINE
 10
-27.847000
 11
-27.744000
 20
-122.600000
 21
-122.502000
  0
LINE
 10
-27.744000
 11
-27.629000
 20
-122.502000
 21
-122.419000
  0
LINE
 10
-27.629000
 11
-27.505000
 20
-122.419000
 21
-122.351000
  0
LINE
 10
-27.505000
 11
-27.373000
 20
-122.351000
 21
-122.298000
  0
LINE
 10
-27.373000
 11
-27.235000
 20
-122.298000
 21
-122.263000
  0
LINE
 10
-27.235000
 11
-27.094000
 20
-122.263000
 21
-122.245000
  0
LINE
 10
-27.094000
 11
-26.952000
 20
-122.245000
 21
-122.245000
  0
LINE
 10
-26.952000
 11
-26.812000
 20
-122.245000
 21
-122.263000
  0
LINE
 10
-26.812000
 11
-26.674000
 20
-122.263000
 21
-122.298000
  0
LINE
 10
-26.674000
 11
-26.542000
 20
-122.298000
 21
-122.351000
  0
LINE
 10
-26.542000
 11
-26.418000
 20
-122.351000
 21
-122.419000
  0
LINE
 10
-26.418000
 11
-26.303000
 20
-122.419000
 21
-122.502000
  0
LINE
 10
-26.303000
 11
-26.199000
 20
-122.502000
 21
-122.600000
  0
LINE
 10
-26.199000
 11
-26.109000
 20
-122.600000
 21
-122.709000
  0
LINE
 10
-26.109000
 11
-26.033000
 20
-122.709000
 21
-122.829000
  0
LINE
 10
-26.033000
 11
-25.972000
 20
-122.829000
 21
-122.957000
  0
LINE
 10
-25.972000
 11
-25.929000
 20
-122.957000
 21
-123.092000
  0
LINE
 10
-25.929000
 11
-25.902000
 20
-123.092000
 21
-123.232000
  0
LINE
 10
-25.902000
 11
-25.893000
 20
-123.232000
 21
-123.373000
  0
LINE
 10
-25.893000
 11
-25.902000
 20
-123.373000
 21
-123.515000
  0
LINE
 10
-25.902000
 11
-25.929000
 20
-123.515000
 21
-123.654000
  0
LINE
 10
-25.929000
 11
-25.972000
 20
-123.654000
 21
-123.789000
  0
LINE
 10
-25.972000
 11
-26.033000
 20
-123.789000
 21
-123.918000
  0
LINE
 10
-26.033000
 11
-26.109000
 20
-123.918000
 21
-124.038000
  0
LINE
 10
-26.109000
 11
-26.199000
 20
-124.038000
 21
-124.147000
  0
LINE
 10
-26.199000
 11
-26.303000
 20
-124.147000
 21
-124.244000
  0
LINE
 10
-26.303000
 11
-26.418000
 20
-124.244000
 21
-124.328000
  0
LINE
 10
-26.418000
 11
-26.542000
 20
-124.328000
 21
-124.396000
  0
LINE
 10
-26.542000
 11
-26.674000
 20
-124.396000
 21
-124.448000
  0
LINE
 10
-26.674000
 11
-26.812000
 20
-124.448000
 21
-124.484000
  0
LINE
 10
-26.812000
 11
-26.952000
 20
-124.484000
 21
-124.501000
  0
LINE
 10
-26.952000
 11
-27.094000
 20
-124.501000
 21
-124.501000
  0
LINE
 10
-27.094000
 11
-27.235000
 20
-124.501000
 21
-124.484000
  0
LINE
 10
-27.235000
 11
-27.373000
 20
-124.484000
 21
-124.448000
  0
LINE
 10
-27.373000
 11
-27.505000
 20
-124.448000
 21
-124.396000
  0
LINE
 10
-27.505000
 11
-27.629000
 20
-124.396000
 21
-124.328000
  0
LINE
 10
-27.629000
 11
-27.744000
 20
-124.328000
 21
-124.244000
  0
LINE
 10
-27.744000
 11
-27.847000
 20
-124.244000
 21
-124.147000
  0
LINE
 10
-27.847000
 11
-27.938000
 20
-124.147000
 21
-124.038000
  0
LINE
 10
-27.938000
 11
-28.014000
 20
-124.038000
 21
-123.918000
  0
LINE
 10
-28.014000
 11
-28.074000
 20
-123.918000
 21
-123.789000
  0
LINE
 10
-28.074000
 11
-28.118000
 20
-123.789000
 21
-123.654000
  0
LINE
 10
-28.118000
 11
-28.145000
 20
-123.654000
 21
-123.515000
  0
LINE
 10
-28.145000
 11
-28.154000
 20
-123.515000
 21
-123.373000
  0
LINE
 10
-28.154000
 11
-28.145000
 20
-85.727000
 21
-85.585000
  0
LINE
 10
-28.145000
 11
-28.118000
 20
-85.585000
 21
-85.446000
  0
LINE
 10
-28.118000
 11
-28.074000
 20
-85.446000
 21
-85.311000
  0
LINE
 10
-28.074000
 11
-28.014000
 20
-85.311000
 21
-85.182000
  0
LINE
 10
-28.014000
 11
-27.938000
 20
-85.182000
 21
-85.062000
  0
LINE
 10
-27.938000
 11
-27.847000
 20
-85.062000
 21
-84.953000
  0
LINE
 10
-27.847000
 11
-27.744000
 20
-84.953000
 21
-84.856000
  0
LINE
 10
-27.744000
 11
-27.629000
 20
-84.856000
 21
-84.772000
  0
LINE
 10
-27.629000
 11
-27.505000
 20
-84.772000
 21
-84.704000
  0
LINE
 10
-27.505000
 11
-27.373000
 20
-84.704000
 21
-84.652000
  0
LINE
 10
-27.373000
 11
-27.235000
 20
-84.652000
 21
-84.616000
  0
LINE
 10
-27.235000
 11
-27.094000
 20
-84.616000
 21
-84.599000
  0
LINE
 10
-27.094000
 11
-26.952000
 20
-84.599000
 21
-84.599000
  0
LINE
 10
-26.952000
 11
-26.812000
 20
-84.599000
 21
-84.616000
  0
LINE
 10
-26.812000
 11
-26.674000
 20
-84.616000
 21
-84.652000
  0
LINE
 10
-26.674000
 11
-26.542000
 20
-84.652000
 21
-84.704000
  0
LINE
 10
-26.542000
 11
-26.418000
 20
-84.704000
 21
-84.772000
  0
LINE
 10
-26.418000
 11
-26.303000
 20
-84.772000
 21
-84.856000
  0
LINE
 10
-26.303000
 11
-26.199000
 20
-84.856000
 21
-84.953000
  0
LINE
 10
-26.199000
 11
-26.109000
 20
-84.953000
 21
-85.062000
  0
LINE
 10
-26.109000
 11
-26.033000
 20
-85.062000
 21
-85.182000
  0
LINE
 10
-26.033000
 11
-25.972000
 20
-85.182000
 21
-85.311000
  0
LINE
 10
-25.972000
 11
-25.929000
 20
-85.311000
 21
-85.446000
  0
LINE
 10
-25.929000
 11
-25.902000
 20
-85.446000
 21
-85.585000
  0
LINE
 10
-25.902000
 11
-25.893000
 20
-85.585000
 21
-85.727000
  0
LINE
 10
-25.893000
 11
-25.902000
 20
-85.727000
 21
-85.868000
  0
LINE
 10
-25.902000
 11
-25.929000
 20
-85.868000
 21
-86.008000
  0
LINE
 10
-25.929000
 11
-25.972000
 20
-86.008000
 21
-86.143000
  0
LINE
 10
-25.972000
 11
-26.033000
 20
-86.143000
 21
-86.271000
  0
LINE
 10
-26.033000
 11
-26.109000
 20
-86.271000
 21
-86.391000
  0
LINE
 10
-26.109000
 11
-26.199000
 20
-86.391000
 21
-86.500000
  0
LINE
 10
-26.199000
 11
-26.303000
 20
-86.500000
 21
-86.598000
  0
LINE
 10
-26.303000
 11
-26.418000
 20
-86.598000
 21
-86.681000
  0
LINE
 10
-26.418000
 11
-26.542000
 20
-86.681000
 21
-86.749000
  0
LINE
 10
-26.542000
 11
-26.674000
 20
-86.749000
 21
-86.802000
  0
LINE
 10
-26.674000
 11
-26.812000
 20
-86.802000
 21
-86.837000
  0
LINE
 10
-26.812000
 11
-26.952000
 20
-86.837000
 21
-86.855000
  0
LINE
 10
-26.952000
 11
-27.094000
 20
-86.855000
 21
-86.855000
  0
LINE
 10
-27.094000
 11
-27.235000
 20
-86.855000
 21
-86.837000
  0
LINE
 10
-27.235000
 11
-27.373000
 20
-86.837000
 21
-86.802000
  0
LINE
 10
-27.373000
 11
-27.505000
 20
-86.802000
 21
-86.749000
  0
LINE
 10
-27.505000
 11
-27.629000
 20
-86.749000
 21
-86.681000
  0
LINE
 10
-27.629000
 11
-27.744000
 20
-86.681000
 21
-86.598000
  0
LINE
 10
-27.744000
 11
-27.847000
 20
-86.598000
 21
-86.500000
  0
LINE
 10
-27.847000
 11
-27.938000
 20
-86.500000
 21
-86.391000
  0
LINE
 10
-27.938000
 11
-28.014000
 20
-86.391000
 21
-86.271000
  0
LINE
 10
-28.014000
 11
-28.074000
 20
-86.271000
 21
-86.143000
  0
LINE
 10
-28.074000
 11
-28.118000
 20
-86.143000
 21
-86.008000
  0
LINE
 10
-28.118000
 11
-28.145000
 20
-86.008000
 21
-85.868000
  0
LINE
 10
-28.145000
 11
-28.154000
 20
-85.868000
 21
-85.727000
  0
LINE
 10
-28.154000
 11
-28.145000
 20
-18.823000
 21
-18.682000
  0
LINE
 10
-28.145000
 11
-28.118000
 20
-18.682000
 21
-18.542000
  0
LINE
 10
-28.118000
 11
-28.074000
 20
-18.542000
 21
-18.407000
  0
LINE
 10
-28.074000
 11
-28.014000
 20
-18.407000
 21
-18.279000
  0
LINE
 10
-28.014000
 11
-27.938000
 20
-18.279000
 21
-18.159000
  0
LINE
 10
-27.938000
 11
-27.847000
 20
-18.159000
 21
-18.050000
  0
LINE
 10
-27.847000
 11
-27.744000
 20
-18.050000
 21
-17.952000
  0
LINE
 10
-27.744000
 11
-27.629000
 20
-17.952000
 21
-17.869000
  0
LINE
 10
-27.629000
 11
-27.505000
 20
-17.869000
 21
-17.801000
  0
LINE
 10
-27.505000
 11
-27.373000
 20
-17.801000
 21
-17.748000
  0
LINE
 10
-27.373000
 11
-27.235000
 20
-17.748000
 21
-17.713000
  0
LINE
 10
-27.235000
 11
-27.094000
 20
-17.713000
 21
-17.695000
  0
LINE
 10
-27.094000
 11
-26.952000
 20
-17.695000
 21
-17.695000
  0
LINE
 10
-26.952000
 11
-26.812000
 20
-17.695000
 21
-17.713000
  0
LINE
 10
-26.812000
 11
-26.674000
 20
-17.713000
 21
-17.748000
  0
LINE
 10
-26.674000
 11
-26.542000
 20
-17.748000
 21
-17.801000
  0
LINE
 10
-26.542000
 11
-26.418000
 20
-17.801000
 21
-17.869000
  0
LINE
 10
-26.418000
 11
-26.303000
 20
-17.869000
 21
-17.952000
  0
LINE
 10
-26.303000
 11
-26.199000
 20
-17.952000
 21
-18.050000
  0
LINE
 10
-26.199000
 11
-26.109000
 20
-18.050000
 21
-18.159000
  0
LINE
 10
-26.109000
 11
-26.033000
 20
-18.159000
 21
-18.279000
  0
LINE
 10
-26.033000
 11
-25.972000
 20
-18.279000
 21
-18.407000
  0
LINE
 10
-25.972000
 11
-25.929000
 20
-18.407000
 21
-18.542000
  0
LINE
 10
-25.929000
 11
-25.902000
 20
-18.542000
 21
-18.682000
  0
LINE
 10
-25.902000
 11
-25.893000
 20
-18.682000
 21
-18.823000
  0
LINE
 10
-25.893000
 11
-25.902000
 20
-18.823000
 21
-18.965000
  0
LINE
 10
-25.902000
 11
-25.929000
 20
-18.965000
 21
-19.104000
  0
LINE
 10
-25.929000
 11
-25.972000
 20
-19.104000
 21
-19.239000
  0
LINE
 10
-25.972000
 11
-26.033000
 20
-19.239000
 21
-19.368000
  0
LINE
 10
-26.033000
 11
-26.109000
 20
-19.368000
 21
-19.488000
  0
LINE
 10
-26.109000
 11
-26.199000
 20
-19.488000
 21
-19.597000
  0
LINE
 10
-26.199000
 11
-26.303000
 20
-19.597000
 21
-19.694000
  0
LINE
 10
-26.303000
 11
-26.418000
 20
-19.694000
 21
-19.778000
  0
LINE
 10
-26.418000
 11
-26.542000
 20
-19.778000
 21
-19.846000
  0
LINE
 10
-26.542000
 11
-26.674000
 20
-19.846000
 21
-19.898000
  0
LINE
 10
-26.674000
 11
-26.812000
 20
-19.898000
 21
-19.934000
  0
LINE
 10
-26.812000
 11
-26.952000
 20
-19.934000
 21
-19.951000
  0
LINE
 10
-26.952000
 11
-27.094000
 20
-19.951000
 21
-19.951000
  0
LINE
 10
-27.094000
 11
-27.235000
 20
-19.951000
 21
-19.934000
  0
LINE
 10
-27.235000
 11
-27.373000
 20
-19.934000
 21
-19.898000
  0
LINE
 10
-27.373000
 11
-27.505000
 20
-19.898000
 21
-19.846000
  0
LINE
 10
-27.505000
 11
-27.629000
 20
-19.846000
 21
-19.778000
  0
LINE
 10
-27.629000
 11
-27.744000
 20
-19.778000
 21
-19.694000
  0
LINE
 10
-27.744000
 11
-27.847000
 20
-19.694000
 21
-19.597000
  0
LINE
 10
-27.847000
 11
-27.938000
 20
-19.597000
 21
-19.488000
  0
LINE
 10
-27.938000
 11
-28.014000
 20
-19.488000
 21
-19.368000
  0
LINE
 10
-28.014000
 11
-28.074000
 20
-19.368000
 21
-19.239000
  0
LINE
 10
-28.074000
 11
-28.118000
 20
-19.239000
 21
-19.104000
  0
LINE
 10
-28.118000
 11
-28.145000
 20
-19.104000
 21
-18.965000
  0
LINE
 10
-28.145000
 11
-28.154000
 20
-18.965000
 21
-18.823000
  0
LINE
 10
-28.154000
 11
-28.145000
 20
18.823000
 21
18.965000
  0
LINE
 10
-28.145000
 11
-28.118000
 20
18.965000
 21
19.104000
  0
LINE
 10
-28.118000
 11
-28.074000
 20
19.104000
 21
19.239000
  0
LINE
 10
-28.074000
 11
-28.014000
 20
19.239000
 21
19.368000
  0
LINE
 10
-28.014000
 11
-27.938000
 20
19.368000
 21
19.488000
  0
LINE
 10
-27.938000
 11
-27.847000
 20
19.488000
 21
19.597000
  0
LINE
 10
-27.847000
 11
-27.744000
 20
19.597000
 21
19.694000
  0
LINE
 10
-27.744000
 11
-27.629000
 20
19.694000
 21
19.778000
  0
LINE
 10
-27.629000
 11
-27.505000
 20
19.778000
 21
19.846000
  0
LINE
 10
-27.505000
 11
-27.373000
 20
19.846000
 21
19.898000
  0
LINE
 10
-27.373000
 11
-27.235000
 20
19.898000
 21
19.934000
  0
LINE
 10
-27.235000
 11
-27.094000
 20
19.934000
 21
19.951000
  0
LINE
 10
-27.094000
 11
-26.952000
 20
19.951000
 21
19.951000
  0
LINE
 10
-26.952000
 11
-26.812000
 20
19.951000
 21
19.934000
  0
LINE
 10
-26.812000
 11
-26.674000
 20
19.934000
 21
19.898000
  0
LINE
 10
-26.674000
 11
-26.542000
 20
19.898000
 21
19.846000
  0
LINE
 10
-26.542000
 11
-26.418000
 20
19.846000
 21
19.778000
  0
LINE
 10
-26.418000
 11
-26.303000
 20
19.778000
 21
19.694000
  0
LINE
 10
-26.303000
 11
-26.199000
 20
19.694000
 21
19.597000
  0
LINE
 10
-26.199000
 11
-26.109000
 20
19.597000
 21
19.488000
  0
LINE
 10
-26.109000
 11
-26.033000
 20
19.488000
 21
19.368000
  0
LINE
 10
-26.033000
 11
-25.972000
 20
19.368000
 21
19.239000
  0
LINE
 10
-25.972000
 11
-25.929000
 20
19.239000
 21
19.104000
  0
LINE
 10
-25.929000
 11
-25.902000
 20
19.104000
 21
18.965000
  0
LINE
 10
-25.902000
 11
-25.893000
 20
18.965000
 21
18.823000
  0
LINE
 10
-25.893000
 11
-25.902000
 20
18.823000
 21
18.682000
  0
LINE
 10
-25.902000
 11
-25.929000
 20
18.682000
 21
18.542000
  0
LINE
 10
-25.929000
 11
-25.972000
 20
18.542000
 21
18.407000
  0
LINE
 10
-25.972000
 11
-26.033000
 20
18.407000
 21
18.279000
  0
LINE
 10
-26.033000
 11
-26.109000
 20
18.279000
 21
18.159000
  0
LINE
 10
-26.109000
 11
-26.199000
 20
18.159000
 21
18.050000
  0
LINE
 10
-26.199000
 11
-26.303000
 20
18.050000
 21
17.952000
  0
LINE
 10
-26.303000
 11
-26.418000
 20
17.952000
 21
17.869000
  0
LINE
 10
-26.418000
 11
-26.542000
 20
17.869000
 21
17.801000
  0
LINE
 10
-26.542000
 11
-26.674000
 20
17.801000
 21
17.748000
  0
LINE
 10
-26.674000
 11
-26.812000
 20
17.748000
 21
17.713000
  0
LINE
 10
-26.812000
 11
-26.952000
 20
17.713000
 21
17.695000
  0
LINE
 10
-26.952000
 11
-27.094000
 20
17.695000
 21
17.695000
  0
LINE
 10
-27.094000
 11
-27.235000
 20
17.695000
 21
17.713000
  0
LINE
 10
-27.235000
 11
-27.373000
 20
17.713000
 21
17.748000
  0
LINE
 10
-27.373000
 11
-27.505000
 20
17.748000
 21
17.801000
  0
LINE
 10
-27.505000
 11
-27.629000
 20
17.801000
 21
17.869000
  0
LINE
 10
-27.629000
 11
-27.744000
 20
17.869000
 21
17.952000
  0
LINE
 10
-27.744000
 11
-27.847000
 20
17.952000
 21
18.050000
  0
LINE
 10
-27.847000
 11
-27.938000
 20
18.050000
 21
18.159000
  0
LINE
 10
-27.938000
 11
-28.014000
 20
18.159000
 21
18.279000
  0
LINE
 10
-28.014000
 11
-28.074000
 20
18.279000
 21
18.407000
  0
LINE
 10
-28.074000
 11
-28.118000
 20
18.407000
 21
18.542000
  0
LINE
 10
-28.118000
 11
-28.145000
 20
18.542000
 21
18.682000
  0
LINE
 10
-28.145000
 11
-28.154000
 20
18.682000
 21
18.823000
  0
LINE
 10
-27.504000
 11
-27.498000
 20
-95.660000
 21
-95.558000
  0
LINE
 10
-27.498000
 11
-27.478000
 20
-95.558000
 21
-95.458000
  0
LINE
 10
-27.478000
 11
-27.447000
 20
-95.458000
 21
-95.360000
  0
LINE
 10
-27.447000
 11
-27.403000
 20
-95.360000
 21
-95.268000
  0
LINE
 10
-27.403000
 11
-27.349000
 20
-95.268000
 21
-95.182000
  0
LINE
 10
-27.349000
 11
-27.283000
 20
-95.182000
 21
-95.103000
  0
LINE
 10
-27.283000
 11
-27.209000
 20
-95.103000
 21
-95.033000
  0
LINE
 10
-27.209000
 11
-27.126000
 20
-95.033000
 21
-94.973000
  0
LINE
 10
-27.126000
 11
-27.037000
 20
-94.973000
 21
-94.923000
  0
LINE
 10
-27.037000
 11
-26.942000
 20
-94.923000
 21
-94.886000
  0
LINE
 10
-26.942000
 11
-26.843000
 20
-94.886000
 21
-94.860000
  0
LINE
 10
-26.843000
 11
-26.741000
 20
-94.860000
 21
-94.848000
  0
LINE
 10
-26.741000
 11
-26.639000
 20
-94.848000
 21
-94.848000
  0
LINE
 10
-26.639000
 11
-26.537000
 20
-94.848000
 21
-94.860000
  0
LINE
 10
-26.537000
 11
-26.438000
 20
-94.860000
 21
-94.886000
  0
LINE
 10
-26.438000
 11
-26.343000
 20
-94.886000
 21
-94.923000
  0
LINE
 10
-26.343000
 11
-26.254000
 20
-94.923000
 21
-94.973000
  0
LINE
 10
-26.254000
 11
-26.171000
 20
-94.973000
 21
-95.033000
  0
LINE
 10
-26.171000
 11
-26.097000
 20
-95.033000
 21
-95.103000
  0
LINE
 10
-26.097000
 11
-26.031000
 20
-95.103000
 21
-95.182000
  0
LINE
 10
-26.031000
 11
-25.977000
 20
-95.182000
 21
-95.268000
  0
LINE
 10
-25.977000
 11
-25.933000
 20
-95.268000
 21
-95.360000
  0
LINE
 10
-25.933000
 11
-25.902000
 20
-95.360000
 21
-95.458000
  0
LINE
 10
-25.902000
 11
-25.882000
 20
-95.458000
 21
-95.558000
  0
LINE
 10
-25.882000
 11
-25.876000
 20
-95.558000
 21
-95.660000
  0
LINE
 10
-25.876000
 11
-25.882000
 20
-95.660000
 21
-95.762000
  0
LINE
 10
-25.882000
 11
-25.902000
 20
-95.762000
 21
-95.862000
  0
LINE
 10
-25.902000
 11
-25.933000
 20
-95.862000
 21
-95.960000
  0
LINE
 10
-25.933000
 11
-25.977000
 20
-95.960000
 21
-96.052000
  0
LINE
 10
-25.977000
 11
-26.031000
 20
-96.052000
 21
-96.138000
  0
LINE
 10
-26.031000
 11
-26.097000
 20
-96.138000
 21
-96.217000
  0
LINE
 10
-26.097000
 11
-26.171000
 20
-96.217000
 21
-96.287000
  0
LINE
 10
-26.171000
 11
-26.254000
 20
-96.287000
 21
-96.347000
  0
LINE
 10
-26.254000
 11
-26.343000
 20
-96.347000
 21
-96.397000
  0
LINE
 10
-26.343000
 11
-26.438000
 20
-96.397000
 21
-96.434000
  0
LINE
 10
-26.438000
 11
-26.537000
 20
-96.434000
 21
-96.460000
  0
LINE
 10
-26.537000
 11
-26.639000
 20
-96.460000
 21
-96.472000
  0
LINE
 10
-26.639000
 11
-26.741000
 20
-96.472000
 21
-96.472000
  0
LINE
 10
-26.741000
 11
-26.843000
 20
-96.472000
 21
-96.460000
  0
LINE
 10
-26.843000
 11
-26.942000
 20
-96.460000
 21
-96.434000
  0
LINE
 10
-26.942000
 11
-27.037000
 20
-96.434000
 21
-96.397000
  0
LINE
 10
-27.037000
 11
-27.126000
 20
-96.397000
 21
-96.347000
  0
LINE
 10
-27.126000
 11
-27.209000
 20
-96.347000
 21
-96.287000
  0
LINE
 10
-27.209000
 11
-27.283000
 20
-96.287000
 21
-96.217000
  0
LINE
 10
-27.283000
 11
-27.349000
 20
-96.217000
 21
-96.138000
  0
LINE
 10
-27.349000
 11
-27.403000
 20
-96.138000
 21
-96.052000
  0
LINE
 10
-27.403000
 11
-27.447000
 20
-96.052000
 21
-95.960000
  0
LINE
 10
-27.447000
 11
-27.478000
 20
-95.960000
 21
-95.862000
  0
LINE
 10
-27.478000
 11
-27.498000
 20
-95.862000
 21
-95.762000
  0
LINE
 10
-27.498000
 11
-27.504000
 20
-95.762000
 21
-95.660000
  0
LINE
 10
-18.850000
 11
-18.850000
 20
-130.050000
 21
-127.050000
  0
LINE
 10
-18.850000
 11
-11.850000
 20
-127.050000
 21
-127.050000
  0
LINE
 10
-11.850000
 11
-11.850000
 20
-127.050000
 21
-130.050000
  0
LINE
 10
-11.850000
 11
-18.850000
 20
-130.050000
 21
-130.050000
  0
LINE
 10
-18.850000
 11
-18.850000
 20
-82.050000
 21
-79.050000
  0
LINE
 10
-18.850000
 11
-11.850000
 20
-79.050000
 21
-79.050000
  0
LINE
 10
-11.850000
 11
-11.850000
 20
-79.050000
 21
-82.050000
  0
LINE
 10
-11.850000
 11
-18.850000
 20
-82.050000
 21
-82.050000
  0
LINE
 10
-18.850000
 11
-18.850000
 20
-25.500000
 21
-22.500000
  0
LINE
 10
-18.850000
 11
-11.850000
 20
-22.500000
 21
-22.500000
  0
LINE
 10
-11.850000
 11
-11.850000
 20
-22.500000
 21
-25.500000
  0
LINE
 10
-11.850000
 11
-18.850000
 20
-25.500000
 21
-25.500000
  0
LINE
 10
-18.850000
 11
-18.850000
 20
22.500000
 21
25.500000
  0
LINE
 10
-18.850000
 11
-11.850000
 20
25.500000
 21
25.500000
  0
LINE
 10
-11.850000
 11
-11.850000
 20
25.500000
 21
22.500000
  0
LINE
 10
-11.850000
 11
-18.850000
 20
22.500000
 21
22.500000
  0
LINE
 10
-12.700000
 11
-12.700000
 20
77.550000
 21
102.950000
  0
LINE
 10
-12.700000
 11
12.700000
 20
102.950000
 21
102.950000
  0
LINE
 10
12.700000
 11
12.700000
 20
102.950000
 21
77.550000
  0
LINE
 10
12.700000
 11
-12.700000
 20
77.550000
 21
77.550000
  0
LINE
 10
-3.000000
 11
-3.000000
 20
15.780000
 21
19.780000
  0
LINE
 10
-3.000000
 11
3.000000
 20
19.780000
 21
19.780000
  0
LINE
 10
3.000000
 11
3.000000
 20
19.780000
 21
15.780000
  0
LINE
 10
3.000000
 11
-3.000000
 20
15.780000
 21
15.780000
  0
LINE
 10
11.850000
 11
11.850000
 20
-130.050000
 21
-127.050000
  0
LINE
 10
11.850000
 11
18.850000
 20
-127.050000
 21
-127.050000
  0
LINE
 10
18.850000
 11
18.850000
 20
-127.050000
 21
-130.050000
  0
LINE
 10
18.850000
 11
11.850000
 20
-130.050000
 21
-130.050000
  0
LINE
 10
11.850000
 11
11.850000
 20
-82.050000
 21
-79.050000
  0
LINE
 10
11.850000
 11
18.850000
 20
-79.050000
 21
-79.050000
  0
LINE
 10
18.850000
 11
18.850000
 20
-79.050000
 21
-82.050000
  0
LINE
 10
18.850000
 11
11.850000
 20
-82.050000
 21
-82.050000
  0
LINE
 10
11.850000
 11
11.850000
 20
-25.500000
 21
-22.500000
  0
LINE
 10
11.850000
 11
18.850000
 20
-22.500000
 21
-22.500000
  0
LINE
 10
18.850000
 11
18.850000
 20
-22.500000
 21
-25.500000
  0
LINE
 10
18.850000
 11
11.850000
 20
-25.500000
 21
-25.500000
  0
LINE
 10
11.850000
 11
11.850000
 20
22.500000
 21
25.500000
  0
LINE
 10
11.850000
 11
18.850000
 20
25.500000
 21
25.500000
  0
LINE
 10
18.850000
 11
18.850000
 20
25.500000
 21
22.500000
  0
LINE
 10
18.850000
 11
11.850000
 20
22.500000
 21
22.500000
  0
LINE
 10
25.876000
 11
25.882000
 20
-95.660000
 21
-95.558000
  0
LINE
 10
25.882000
 11
25.902000
 20
-95.558000
 21
-95.458000
  0
LINE
 10
25.902000
 11
25.933000
 20
-95.458000
 21
-95.360000
  0
LINE
 10
25.933000
 11
25.977000
 20
-95.360000
 21
-95.268000
  0
LINE
 10
25.977000
 11
26.031000
 20
-95.268000
 21
-95.182000
  0
LINE
 10
26.031000
 11
26.097000
 20
-95.182000
 21
-95.103000
  0
LINE
 10
26.097000
 11
26.171000
 20
-95.103000
 21
-95.033000
  0
LINE
 10
26.171000
 11
26.254000
 20
-95.033000
 21
-94.973000
  0
LINE
 10
26.254000
 11
26.343000
 20
-94.973000
 21
-94.923000
  0
LINE
 10
26.343000
 11
26.438000
 20
-94.923000
 21
-94.886000
  0
LINE
 10
26.438000
 11
26.537000
 20
-94.886000
 21
-94.860000
  0
LINE
 10
26.537000
 11
26.639000
 20
-94.860000
 21
-94.848000
  0
LINE
 10
26.639000
 11
26.741000
 20
-94.848000
 21
-94.848000
  0
LINE
 10
26.741000
 11
26.843000
 20
-94.848000
 21
-94.860000
  0
LINE
 10
26.843000
 11
26.942000
 20
-94.860000
 21
-94.886000
  0
LINE
 10
26.942000
 11
27.037000
 20
-94.886000
 21
-94.923000
  0
LINE
 10
27.037000
 11
27.126000
 20
-94.923000
 21
-94.973000
  0
LINE
 10
27.126000
 11
27.209000
 20
-94.973000
 21
-95.033000
  0
LINE
 10
27.209000
 11
27.283000
 20
-95.033000
 21
-95.103000
  0
LINE
 10
27.283000
 11
27.349000
 20
-95.103000
 21
-95.182000
  0
LINE
 10
27.349000
 11
27.403000
 20
-95.182000
 21
-95.268000
  0
LINE
 10
27.403000
 11
27.447000
 20
-95.268000
 21
-95.360000
  0
LINE
 10
27.447000
 11
27.478000
 20
-95.360000
 21
-95.458000
  0
LINE
 10
27.478000
 11
27.498000
 20
-95.458000
 21
-95.558000
  0
LINE
 10
27.498000
 11
27.504000
 20
-95.558000
 21
-95.660000
  0
LINE
 10
27.504000
 11
27.498000
 20
-95.660000
 21
-95.762000
  0
LINE
 10
27.498000
 11
27.478000
 20
-95.762000
 21
-95.862000
  0
LINE
 10
27.478000
 11
27.447000
 20
-95.862000
 21
-95.960000
  0
LINE
 10
27.447000
 11
27.403000
 20
-95.960000
 21
-96.052000
  0
LINE
 10
27.403000
 11
27.349000
 20
-96.052000
 21
-96.138000
  0
LINE
 10
27.349000
 11
27.283000
 20
-96.138000
 21
-96.217000
  0
LINE
 10
27.283000
 11
27.209000
 20
-96.217000
 21
-96.287000
  0
LINE
 10
27.209000
 11
27.126000
 20
-96.287000
 21
-96.347000
  0
LINE
 10
27.126000
 11
27.037000
 20
-96.347000
 21
-96.397000
  0
LINE
 10
27.037000
 11
26.942000
 20
-96.397000
 21
-96.434000
  0
LINE
 10
26.942000
 11
26.843000
 20
-96.434000
 21
-96.460000
  0
LINE
 10
26.843000
 11
26.741000
 20
-96.460000
 21
-96.472000
  0
LINE
 10
26.741000
 11
26.639000
 20
-96.472000
 21
-96.472000
  0
LINE
 10
26.639000
 11
26.537000
 20
-96.472000
 21
-96.460000
  0
LINE
 10
26.537000
 11
26.438000
 20
-96.460000
 21
-96.434000
  0
LINE
 10
26.438000
 11
26.343000
 20
-96.434000
 21
-96.397000
  0
LINE
 10
26.343000
 11
26.254000
 20
-96.397000
 21
-96.347000
  0
LINE
 10
26.254000
 11
26.171000
 20
-96.347000
 21
-96.287000
  0
LINE
 10
26.171000
 11
26.097000
 20
-96.287000
 21
-96.217000
  0
LINE
 10
26.097000
 11
26.031000
 20
-96.217000
 21
-96.138000
  0
LINE
 10
26.031000
 11
25.977000
 20
-96.138000
 21
-96.052000
  0
LINE
 10
25.977000
 11
25.933000
 20
-96.052000
 21
-95.960000
  0
LINE
 10
25.933000
 11
25.902000
 20
-95.960000
 21
-95.862000
  0
LINE
 10
25.902000
 11
25.882000
 20
-95.862000
 21
-95.762000
  0
LINE
 10
25.882000
 11
25.876000
 20
-95.762000
 21
-95.660000
  0
LINE
 10
25.893000
 11
25.902000
 20
-123.373000
 21
-123.232000
  0
LINE
 10
25.902000
 11
25.929000
 20
-123.232000
 21
-123.092000
  0
LINE
 10
25.929000
 11
25.972000
 20
-123.092000
 21
-122.957000
  0
LINE
 10
25.972000
 11
26.033000
 20
-122.957000
 21
-122.829000
  0
LINE
 10
26.033000
 11
26.109000
 20
-122.829000
 21
-122.709000
  0
LINE
 10
26.109000
 11
26.199000
 20
-122.709000
 21
-122.600000
  0
LINE
 10
26.199000
 11
26.303000
 20
-122.600000
 21
-122.502000
  0
LINE
 10
26.303000
 11
26.418000
 20
-122.502000
 21
-122.419000
  0
LINE
 10
26.418000
 11
26.542000
 20
-122.419000
 21
-122.351000
  0
LINE
 10
26.542000
 11
26.674000
 20
-122.351000
 21
-122.298000
  0
LINE
 10
26.674000
 11
26.812000
 20
-122.298000
 21
-122.263000
  0
LINE
 10
26.812000
 11
26.952000
 20
-122.263000
 21
-122.245000
  0
LINE
 10
26.952000
 11
27.094000
 20
-122.245000
 21
-122.245000
  0
LINE
 10
27.094000
 11
27.235000
 20
-122.245000
 21
-122.263000
  0
LINE
 10
27.235000
 11
27.373000
 20
-122.263000
 21
-122.298000
  0
LINE
 10
27.373000
 11
27.505000
 20
-122.298000
 21
-122.351000
  0
LINE
 10
27.505000
 11
27.629000
 20
-122.351000
 21
-122.419000
  0
LINE
 10
27.629000
 11
27.744000
 20
-122.419000
 21
-122.502000
  0
LINE
 10
27.744000
 11
27.847000
 20
-122.502000
 21
-122.600000
  0
LINE
 10
27.847000
 11
27.938000
 20
-122.600000
 21
-122.709000
  0
LINE
 10
27.938000
 11
28.014000
 20
-122.709000
 21
-122.829000
  0
LINE
 10
28.014000
 11
28.074000
 20
-122.829000
 21
-122.957000
  0
LINE
 10
28.074000
 11
28.118000
 20
-122.957000
 21
-123.092000
  0
LINE
 10
28.118000
 11
28.145000
 20
-123.092000
 21
-123.232000
  0
LINE
 10
28.145000
 11
28.154000
 20
-123.232000
 21
-123.373000
  0
LINE
 10
28.154000
 11
28.145000
 20
-123.373000
 21
-123.515000
  0
LINE
 10
28.145000
 11
28.118000
 20
-123.515000
 21
-123.654000
  0
LINE
 10
28.118000
 11
28.074000
 20
-123.654000
 21
-123.789000
  0
LINE
 10
28.074000
 11
28.014000
 20
-123.789000
 21
-123.918000
  0
LINE
 10
28.014000
 11
27.938000
 20
-123.918000
 21
-124.038000
  0
LINE
 10
27.938000
 11
27.847000
 20
-124.038000
 21
-124.147000
  0
LINE
 10
27.847000
 11
27.744000
 20
-124.147000
 21
-124.244000
  0
LINE
 10
27.744000
 11
27.629000
 20
-124.244000
 21
-124.328000
  0
LINE
 10
27.629000
 11
27.505000
 20
-124.328000
 21
-124.396000
  0
LINE
 10
27.505000
 11
27.373000
 20
-124.396000
 21
-124.448000
  0
LINE
 10
27.373000
 11
27.235000
 20
-124.448000
 21
-124.484000
  0
LINE
 10
27.235000
 11
27.094000
 20
-124.484000
 21
-124.501000
  0
LINE
 10
27.094000
 11
26.952000
 20
-124.501000
 21
-124.501000
  0
LINE
 10
26.952000
 11
26.812000
 20
-124.501000
 21
-124.484000
  0
LINE
 10
26.812000
 11
26.674000
 20
-124.484000
 21
-124.448000
  0
LINE
 10
26.674000
 11
26.542000
 20
-124.448000
 21
-124.396000
  0
LINE
 10
26.542000
 11
26.418000
 20
-124.396000
 21
-124.328000
  0
LINE
 10
26.418000
 11
26.303000
 20
-124.328000
 21
-124.244000
  0
LINE
 10
26.303000
 11
26.199000
 20
-124.244000
 21
-124.147000
  0
LINE
 10
26.199000
 11
26.109000
 20
-124.147000
 21
-124.038000
  0
LINE
 10
26.109000
 11
26.033000
 20
-124.038000
 21
-123.918000
  0
LINE
 10
26.033000
 11
25.972000
 20
-123.918000
 21
-123.789000
  0
LINE
 10
25.972000
 11
25.929000
 20
-123.789000
 21
-123.654000
  0
LINE
 10
25.929000
 11
25.902000
 20
-123.654000
 21
-123.515000
  0
LINE
 10
25.902000
 11
25.893000
 20
-123.515000
 21
-123.373000
  0
LINE
 10
25.893000
 11
25.902000
 20
-85.727000
 21
-85.585000
  0
LINE
 10
25.902000
 11
25.929000
 20
-85.585000
 21
-85.446000
  0
LINE
 10
25.929000
 11
25.972000
 20
-85.446000
 21
-85.311000
  0
LINE
 10
25.972000
 11
26.033000
 20
-85.311000
 21
-85.182000
  0
LINE
 10
26.033000
 11
26.109000
 20
-85.182000
 21
-85.062000
  0
LINE
 10
26.109000
 11
26.199000
 20
-85.062000
 21
-84.953000
  0
LINE
 10
26.199000
 11
26.303000
 20
-84.953000
 21
-84.856000
  0
LINE
 10
26.303000
 11
26.418000
 20
-84.856000
 21
-84.772000
  0
LINE
 10
26.418000
 11
26.542000
 20
-84.772000
 21
-84.704000
  0
LINE
 10
26.542000
 11
26.674000
 20
-84.704000
 21
-84.652000
  0
LINE
 10
26.674000
 11
26.812000
 20
-84.652000
 21
-84.616000
  0
LINE
 10
26.812000
 11
26.952000
 20
-84.616000
 21
-84.599000
  0
LINE
 10
26.952000
 11
27.094000
 20
-84.599000
 21
-84.599000
  0
LINE
 10
27.094000
 11
27.235000
 20
-84.599000
 21
-84.616000
  0
LINE
 10
27.235000
 11
27.373000
 20
-84.616000
 21
-84.652000
  0
LINE
 10
27.373000
 11
27.505000
 20
-84.652000
 21
-84.704000
  0
LINE
 10
27.505000
 11
27.629000
 20
-84.704000
 21
-84.772000
  0
LINE
 10
27.629000
 11
27.744000
 20
-84.772000
 21
-84.856000
  0
LINE
 10
27.744000
 11
27.847000
 20
-84.856000
 21
-84.953000
  0
LINE
 10
27.847000
 11
27.938000
 20
-84.953000
 21
-85.062000
  0
LINE
 10
27.938000
 11
28.014000
 20
-85.062000
 21
-85.182000
  0
LINE
 10
28.014000
 11
28.074000
 20
-85.182000
 21
-85.311000
  0
LINE
 10
28.074000
 11
28.118000
 20
-85.311000
 21
-85.446000
  0
LINE
 10
28.118000
 11
28.145000
 20
-85.446000
 21
-85.585000
  0
LINE
 10
28.145000
 11
28.154000
 20
-85.585000
 21
-85.727000
  0
LINE
 10
28.154000
 11
28.145000
 20
-85.727000
 21
-85.868000
  0
LINE
 10
28.145000
 11
28.118000
 20
-85.868000
 21
-86.008000
  0
LINE
 10
28.118000
 11
28.074000
 20
-86.008000
 21
-86.143000
  0
LINE
 10
28.074000
 11
28.014000
 20
-86.143000
 21
-86.271000
  0
LINE
 10
28.014000
 11
27.938000
 20
-86.271000
 21
-86.391000
  0
LINE
 10
27.938000
 11
27.847000
 20
-86.391000
 21
-86.500000
  0
LINE
 10
27.847000
 11
27.744000
 20
-86.500000
 21
-86.598000
  0
LINE
 10
27.744000
 11
27.629000
 20
-86.598000
 21
-86.681000
  0
LINE
 10
27.629000
 11
27.505000
 20
-86.681000
 21
-86.749000
  0
LINE
 10
27.505000
 11
27.373000
 20
-86.749000
 21
-86.802000
  0
LINE
 10
27.373000
 11
27.235000
 20
-86.802000
 21
-86.837000
  0
LINE
 10
27.235000
 11
27.094000
 20
-86.837000
 21
-86.855000
  0
LINE
 10
27.094000
 11
26.952000
 20
-86.855000
 21
-86.855000
  0
LINE
 10
26.952000
 11
26.812000
 20
-86.855000
 21
-86.837000
  0
LINE
 10
26.812000
 11
26.674000
 20
-86.837000
 21
-86.802000
  0
LINE
 10
26.674000
 11
26.542000
 20
-86.802000
 21
-86.749000
  0
LINE
 10
26.542000
 11
26.418000
 20
-86.749000
 21
-86.681000
  0
LINE
 10
26.418000
 11
26.303000
 20
-86.681000
 21
-86.598000
  0
LINE
 10
26.303000
 11
26.199000
 20
-86.598000
 21
-86.500000
  0
LINE
 10
26.199000
 11
26.109000
 20
-86.500000
 21
-86.391000
  0
LINE
 10
26.109000
 11
26.033000
 20
-86.391000
 21
-86.271000
  0
LINE
 10
26.033000
 11
25.972000
 20
-86.271000
 21
-86.143000
  0
LINE
 10
25.972000
 11
25.929000
 20
-86.143000
 21
-86.008000
  0
LINE
 10
25.929000
 11
25.902000
 20
-86.008000
 21
-85.868000
  0
LINE
 10
25.902000
 11
25.893000
 20
-85.868000
 21
-85.727000
  0
LINE
 10
25.893000
 11
25.902000
 20
-18.823000
 21
-18.682000
  0
LINE
 10
25.902000
 11
25.929000
 20
-18.682000
 21
-18.542000
  0
LINE
 10
25.929000
 11
25.972000
 20
-18.542000
 21
-18.407000
  0
LINE
 10
25.972000
 11
26.033000
 20
-18.407000
 21
-18.279000
  0
LINE
 10
26.033000
 11
26.109000
 20
-18.279000
 21
-18.159000
  0
LINE
 10
26.109000
 11
26.199000
 20
-18.159000
 21
-18.050000
  0
LINE
 10
26.199000
 11
26.303000
 20
-18.050000
 21
-17.952000
  0
LINE
 10
26.303000
 11
26.418000
 20
-17.952000
 21
-17.869000
  0
LINE
 10
26.418000
 11
26.542000
 20
-17.869000
 21
-17.801000
  0
LINE
 10
26.542000
 11
26.674000
 20
-17.801000
 21
-17.748000
  0
LINE
 10
26.674000
 11
26.812000
 20
-17.748000
 21
-17.713000
  0
LINE
 10
26.812000
 11
26.952000
 20
-17.713000
 21
-17.695000
  0
LINE
 10
26.952000
 11
27.094000
 20
-17.695000
 21
-17.695000
  0
LINE
 10
27.094000
 11
27.235000
 20
-17.695000
 21
-17.713000
  0
LINE
 10
27.235000
 11
27.373000
 20
-17.713000
 21
-17.748000
  0
LINE
 10
27.373000
 11
27.505000
 20
-17.748000
 21
-17.801000
  0
LINE
 10
27.505000
 11
27.629000
 20
-17.801000
 21
-17.869000
  0
LINE
 10
27.629000
 11
27.744000
 20
-17.869000
 21
-17.952000
  0
LINE
 10
27.744000
 11
27.847000
 20
-17.952000
 21
-18.050000
  0
LINE
 10
27.847000
 11
27.938000
 20
-18.050000
 21
-18.159000
  0
LINE
 10
27.938000
 11
28.014000
 20
-18.159000
 21
-18.279000
  0
LINE
 10
28.014000
 11
28.074000
 20
-18.279000
 21
-18.407000
  0
LINE
 10
28.074000
 11
28.118000
 20
-18.407000
 21
-18.542000
  0
LINE
 10
28.118000
 11
28.145000
 20
-18.542000
 21
-18.682000
  0
LINE
 10
28.145000
 11
28.154000
 20
-18.682000
 21
-18.823000
  0
LINE
 10
28.154000
 11
28.145000
 20
-18.823000
 21
-18.965000
  0
LINE
 10
28.145000
 11
28.118000
 20
-18.965000
 21
-19.104000
  0
LINE
 10
28.118000
 11
28.074000
 20
-19.104000
 21
-19.239000
  0
LINE
 10
28.074000
 11
28.014000
 20
-19.239000
 21
-19.368000
  0
LINE
 10
28.014000
 11
27.938000
 20
-19.368000
 21
-19.488000
  0
LINE
 10
27.938000
 11
27.847000
 20
-19.488000
 21
-19.597000
  0
LINE
 10
27.847000
 11
27.744000
 20
-19.597000
 21
-19.694000
  0
LINE
 10
27.744000
 11
27.629000
 20
-19.694000
 21
-19.778000
  0
LINE
 10
27.629000
 11
27.505000
 20
-19.778000
 21
-19.846000
  0
LINE
 10
27.505000
 11
27.373000
 20
-19.846000
 21
-19.898000
  0
LINE
 10
27.373000
 11
27.235000
 20
-19.898000
 21
-19.934000
  0
LINE
 10
27.235000
 11
27.094000
 20
-19.934000
 21
-19.951000
  0
LINE
 10
27.094000
 11
26.952000
 20
-19.951000
 21
-19.951000
  0
LINE
 10
26.952000
 11
26.812000
 20
-19.951000
 21
-19.934000
  0
LINE
 10
26.812000
 11
26.674000
 20
-19.934000
 21
-19.898000
  0
LINE
 10
26.674000
 11
26.542000
 20
-19.898000
 21
-19.846000
  0
LINE
 10
26.542000
 11
26.418000
 20
-19.846000
 21
-19.778000
  0
LINE
 10
26.418000
 11
26.303000
 20
-19.778000
 21
-19.694000
  0
LINE
 10
26.303000
 11
26.199000
 20
-19.694000
 21
-19.597000
  0
LINE
 10
26.199000
 11
26.109000
 20
-19.597000
 21
-19.488000
  0
LINE
 10
26.109000
 11
26.033000
 20
-19.488000
 21
-19.368000
  0
LINE
 10
26.033000
 11
25.972000
 20
-19.368000
 21
-19.239000
  0
LINE
 10
25.972000
 11
25.929000
 20
-19.239000
 21
-19.104000
  0
LINE
 10
25.929000
 11
25.902000
 20
-19.104000
 21
-18.965000
  0
LINE
 10
25.902000
 11
25.893000
 20
-18.965000
 21
-18.823000
  0
LINE
 10
25.893000
 11
25.902000
 20
18.823000
 21
18.965000
  0
LINE
 10
25.902000
 11
25.929000
 20
18.965000
 21
19.104000
  0
LINE
 10
25.929000
 11
25.972000
 20
19.104000
 21
19.239000
  0
LINE
 10
25.972000
 11
26.033000
 20
19.239000
 21
19.368000
  0
LINE
 10
26.033000
 11
26.109000
 20
19.368000
 21
19.488000
  0
LINE
 10
26.109000
 11
26.199000
 20
19.488000
 21
19.597000
  0
LINE
 10
26.199000
 11
26.303000
 20
19.597000
 21
19.694000
  0
LINE
 10
26.303000
 11
26.418000
 20
19.694000
 21
19.778000
  0
LINE
 10
26.418000
 11
26.542000
 20
19.778000
 21
19.846000
  0
LINE
 10
26.542000
 11
26.674000
 20
19.846000
 21
19.898000
  0
LINE
 10
26.674000
 11
26.812000
 20
19.898000
 21
19.934000
  0
LINE
 10
26.812000
 11
26.952000
 20
19.934000
 21
19.951000
  0
LINE
 10
26.952000
 11
27.094000
 20
19.951000
 21
19.951000
  0
LINE
 10
27.094000
 11
27.235000
 20
19.951000
 21
19.934000
  0
LINE
 10
27.235000
 11
27.373000
 20
19.934000
 21
19.898000
  0
LINE
 10
27.373000
 11
27.505000
 20
19.898000
 21
19.846000
  0
LINE
 10
27.505000
 11
27.629000
 20
19.846000
 21
19.778000
  0
LINE
 10
27.629000
 11
27.744000
 20
19.778000
 21
19.694000
  0
LINE
 10
27.744000
 11
27.847000
 20
19.694000
 21
19.597000
  0
LINE
 10
27.847000
 11
27.938000
 20
19.597000
 21
19.488000
  0
LINE
 10
27.938000
 11
28.014000
 20
19.488000
 21
19.368000
  0
LINE
 10
28.014000
 11
28.074000
 20
19.368000
 21
19.239000
  0
LINE
 10
28.074000
 11
28.118000
 20
19.239000
 21
19.104000
  0
LINE
 10
28.118000
 11
28.145000
 20
19.104000
 21
18.965000
  0
LINE
 10
28.145000
 11
28.154000
 20
18.965000
 21
18.823000
  0
LINE
 10
28.154000
 11
28.145000
 20
18.823000
 21
18.682000
  0
LINE
 10
28.145000
 11
28.118000
 20
18.682000
 21
18.542000
  0
LINE
 10
28.118000
 11
28.074000
 20
18.542000
 21
18.407000
  0
LINE
 10
28.074000
 11
28.014000
 20
18.407000
 21
18.279000
  0
LINE
 10
28.014000
 11
27.938000
 20
18.279000
 21
18.159000
  0
LINE
 10
27.938000
 11
27.847000
 20
18.159000
 21
18.050000
  0
LINE
 10
27.847000
 11
27.744000
 20
18.050000
 21
17.952000
  0
LINE
 10
27.744000
 11
27.629000
 20
17.952000
 21
17.869000
  0
LINE
 10
27.629000
 11
27.505000
 20
17.869000
 21
17.801000
  0
LINE
 10
27.505000
 11
27.373000
 20
17.801000
 21
17.748000
  0
LINE
 10
27.373000
 11
27.235000
 20
17.748000
 21
17.713000
  0
LINE
 10
27.235000
 11
27.094000
 20
17.713000
 21
17.695000
  0
LINE
 10
27.094000
 11
26.952000
 20
17.695000
 21
17.695000
  0
LINE
 10
26.952000
 11
26.812000
 20
17.695000
 21
17.713000
  0
LINE
 10
26.812000
 11
26.674000
 20
17.713000
 21
17.748000
  0
LINE
 10
26.674000
 11
26.542000
 20
17.748000
 21
17.801000
  0
LINE
 10
26.542000
 11
26.418000
 20
17.801000
 21
17.869000
  0
LINE
 10
26.418000
 11
26.303000
 20
17.869000
 21
17.952000
  0
LINE
 10
26.303000
 11
26.199000
 20
17.952000
 21
18.050000
  0
LINE
 10
26.199000
 11
26.109000
 20
18.050000
 21
18.159000
  0
LINE
 10
26.109000
 11
26.033000
 20
18.159000
 21
18.279000
  0
LINE
 10
26.033000
 11
25.972000
 20
18.279000
 21
18.407000
  0
LINE
 10
25.972000
 11
25.929000
 20
18.407000
 21
18.542000
  0
LINE
 10
25.929000
 11
25.902000
 20
18.542000
 21
18.682000
  0
LINE
 10
25.902000
 11
25.893000
 20
18.682000
 21
18.823000
  0
LINE
 10
26.992000
 11
26.998000
 20
-9.136000
 21
-9.034000
  0
LINE
 10
26.998000
 11
27.018000
 20
-9.034000
 21
-8.934000
  0
LINE
 10
27.018000
 11
27.049000
 20
-8.934000
 21
-8.836000
  0
LINE
 10
27.049000
 11
27.093000
 20
-8.836000
 21
-8.744000
  0
LINE
 10
27.093000
 11
27.147000
 20
-8.744000
 21
-8.658000
  0
LINE
 10
27.147000
 11
27.213000
 20
-8.658000
 21
-8.579000
  0
LINE
 10
27.213000
 11
27.287000
 20
-8.579000
 21
-8.509000
  0
LINE
 10
27.287000
 11
27.370000
 20
-8.509000
 21
-8.449000
  0
LINE
 10
27.370000
 11
27.459000
 20
-8.449000
 21
-8.399000
  0
LINE
 10
27.459000
 11
27.554000
 20
-8.399000
 21
-8.362000
  0
LINE
 10
27.554000
 11
27.653000
 20
-8.362000
 21
-8.336000
  0
LINE
 10
27.653000
 11
27.755000
 20
-8.336000
 21
-8.324000
  0
LINE
 10
27.755000
 11
27.857000
 20
-8.324000
 21
-8.324000
  0
LINE
 10
27.857000
 11
27.959000
 20
-8.324000
 21
-8.336000
  0
LINE
 10
27.959000
 11
28.058000
 20
-8.336000
 21
-8.362000
  0
LINE
 10
28.058000
 11
28.153000
 20
-8.362000
 21
-8.399000
  0
LINE
 10
28.153000
 11
28.242000
 20
-8.399000
 21
-8.449000
  0
LINE
 10
28.242000
 11
28.325000
 20
-8.449000
 21
-8.509000
  0
LINE
 10
28.325000
 11
28.399000
 20
-8.509000
 21
-8.579000
  0
LINE
 10
28.399000
 11
28.465000
 20
-8.579000
 21
-8.658000
  0
LINE
 10
28.465000
 11
28.519000
 20
-8.658000
 21
-8.744000
  0
LINE
 10
28.519000
 11
28.563000
 20
-8.744000
 21
-8.836000
  0
LINE
 10
28.563000
 11
28.594000
 20
-8.836000
 21
-8.934000
  0
LINE
 10
28.594000
 11
28.614000
 20
-8.934000
 21
-9.034000
  0
LINE
 10
28.614000
 11
28.620000
 20
-9.034000
 21
-9.136000
  0
LINE
 10
28.620000
 11
28.614000
 20
-9.136000
 21
-9.238000
  0
LINE
 10
28.614000
 11
28.594000
 20
-9.238000
 21
-9.338000
  0
LINE
 10
28.594000
 11
28.563000
 20
-9.338000
 21
-9.436000
  0
LINE
 10
28.563000
 11
28.519000
 20
-9.436000
 21
-9.528000
  0
LINE
 10
28.519000
 11
28.465000
 20
-9.528000
 21
-9.614000
  0
LINE
 10
28.465000
 11
28.399000
 20
-9.614000
 21
-9.693000
  0
LINE
 10
28.399000
 11
28.325000
 20
-9.693000
 21
-9.763000
  0
LINE
 10
28.325000
 11
28.242000
 20
-9.763000
 21
-9.823000
  0
LINE
 10
28.242000
 11
28.153000
 20
-9.823000
 21
-9.873000
  0
LINE
 10
28.153000
 11
28.058000
 20
-9.873000
 21
-9.910000
  0
LINE
 10
28.058000
 11
27.959000
 20
-9.910000
 21
-9.936000
  0
LINE
 10
27.959000
 11
27.857000
 20
-9.936000
 21
-9.948000
  0
LINE
 10
27.857000
 11
27.755000
 20
-9.948000
 21
-9.948000
  0
LINE
 10
27.755000
 11
27.653000
 20
-9.948000
 21
-9.936000
  0
LINE
 10
27.653000
 11
27.554000
 20
-9.936000
 21
-9.910000
  0
LINE
 10
27.554000
 11
27.459000
 20
-9.910000
 21
-9.873000
  0
LINE
 10
27.459000
 11
27.370000
 20
-9.873000
 21
-9.823000
  0
LINE
 10
27.370000
 11
27.287000
 20
-9.823000
 21
-9.763000
  0
LINE
 10
27.287000
 11
27.213000
 20
-9.763000
 21
-9.693000
  0
LINE
 10
27.213000
 11
27.147000
 20
-9.693000
 21
-9.614000
  0
LINE
 10
27.147000
 11
27.093000
 20
-9.614000
 21
-9.528000
  0
LINE
 10
27.093000
 11
27.049000
 20
-9.528000
 21
-9.436000
  0
LINE
 10
27.049000
 11
27.018000
 20
-9.436000
 21
-9.338000
  0
LINE
 10
27.018000
 11
26.998000
 20
-9.338000
 21
-9.238000
  0
LINE
 10
26.998000
 11
26.992000
 20
-9.238000
 21
-9.136000
  0
LINE
 10
26.992000
 11
26.998000
 20
11.676000
 21
11.778000
  0
LINE
 10
26.998000
 11
27.018000
 20
11.778000
 21
11.878000
  0
LINE
 10
27.018000
 11
27.049000
 20
11.878000
 21
11.976000
  0
LINE
 10
27.049000
 11
27.093000
 20
11.976000
 21
12.068000
  0
LINE
 10
27.093000
 11
27.147000
 20
12.068000
 21
12.154000
  0
LINE
 10
27.147000
 11
27.213000
 20
12.154000
 21
12.233000
  0
LINE
 10
27.213000
 11
27.287000
 20
12.233000
 21
12.303000
  0
LINE
 10
27.287000
 11
27.370000
 20
12.303000
 21
12.363000
  0
LINE
 10
27.370000
 11
27.459000
 20
12.363000
 21
12.413000
  0
LINE
 10
27.459000
 11
27.554000
 20
12.413000
 21
12.450000
  0
LINE
 10
27.554000
 11
27.653000
 20
12.450000
 21
12.476000
  0
LINE
 10
27.653000
 11
27.755000
 20
12.476000
 21
12.488000
  0
LINE
 10
27.755000
 11
27.857000
 20
12.488000
 21
12.488000
  0
LINE
 10
27.857000
 11
27.959000
 20
12.488000
 21
12.476000
  0
LINE
 10
27.959000
 11
28.058000
 20
12.476000
 21
12.450000
  0
LINE
 10
28.058000
 11
28.153000
 20
12.450000
 21
12.413000
  0
LINE
 10
28.153000
 11
28.242000
 20
12.413000
 21
12.363000
  0
LINE
 10
28.242000
 11
28.325000
 20
12.363000
 21
12.303000
  0
LINE
 10
28.325000
 11
28.399000
 20
12.303000
 21
12.233000
  0
LINE
 10
28.399000
 11
28.465000
 20
12.233000
 21
12.154000
  0
LINE
 10
28.465000
 11
28.519000
 20
12.154000
 21
12.068000
  0
LINE
 10
28.519000
 11
28.563000
 20
12.068000
 21
11.976000
  0
LINE
 10
28.563000
 11
28.594000
 20
11.976000
 21
11.878000
  0
LINE
 10
28.594000
 11
28.614000
 20
11.878000
 21
11.778000
  0
LINE
 10
28.614000
 11
28.620000
 20
11.778000
 21
11.676000
  0
LINE
 10
28.620000
 11
28.614000
 20
11.676000
 21
11.574000
  0
LINE
 10
28.614000
 11
28.594000
 20
11.574000
 21
11.474000
  0
LINE
 10
28.594000
 11
28.563000
 20
11.474000
 21
11.376000
  0
LINE
 10
28.563000
 11
28.519000
 20
11.376000
 21
11.284000
  0
LINE
 10
28.519000
 11
28.465000
 20
11.284000
 21
11.198000
  0
LINE
 10
28.465000
 11
28.399000
 20
11.198000
 21
11.119000
  0
LINE
 10
28.399000
 11
28.325000
 20
11.119000
 21
11.049000
  0
LINE
 10
28.325000
 11
28.242000
 20
11.049000
 21
10.989000
  0
LINE
 10
28.242000
 11
28.153000
 20
10.989000
 21
10.939000
  0
LINE
 10
28.153000
 11
28.058000
 20
10.939000
 21
10.902000
  0
LINE
 10
28.058000
 11
27.959000
 20
10.902000
 21
10.876000
  0
LINE
 10
27.959000
 11
27.857000
 20
10.876000
 21
10.864000
  0
LINE
 10
27.857000
 11
27.755000
 20
10.864000
 21
10.864000
  0
LINE
 10
27.755000
 11
27.653000
 20
10.864000
 21
10.876000
  0
LINE
 10
27.653000
 11
27.554000
 20
10.876000
 21
10.902000
  0
LINE
 10
27.554000
 11
27.459000
 20
10.902000
 21
10.939000
  0
LINE
 10
27.459000
 11
27.370000
 20
10.939000
 21
10.989000
  0
LINE
 10
27.370000
 11
27.287000
 20
10.989000
 21
11.049000
  0
LINE
 10
27.287000
 11
27.213000
 20
11.049000
 21
11.119000
  0
LINE
 10
27.213000
 11
27.147000
 20
11.119000
 21
11.198000
  0
LINE
 10
27.147000
 11
27.093000
 20
11.198000
 21
11.284000
  0
LINE
 10
27.093000
 11
27.049000
 20
11.284000
 21
11.376000
  0
LINE
 10
27.049000
 11
27.018000
 20
11.376000
 21
11.474000
  0
LINE
 10
27.018000
 11
26.998000
 20
11.474000
 21
11.574000
  0
LINE
 10
26.998000
 11
26.992000
 20
11.574000
 21
11.676000
  0
LINE
 10
30.700000
 11
30.700000
 20
-120.800000
 21
-113.800000
  0
LINE
 10
30.700000
 11
33.700000
 20
-113.800000
 21
-113.800000
  0
LINE
 10
33.700000
 11
33.700000
 20
-113.800000
 21
-120.800000
  0
LINE
 10
33.700000
 11
30.700000
 20
-120.800000
 21
-120.800000
  0
LINE
 10
30.700000
 11
30.700000
 20
-95.300000
 21
-88.300000
  0
LINE
 10
30.700000
 11
33.700000
 20
-88.300000
 21
-88.300000
  0
LINE
 10
33.700000
 11
33.700000
 20
-88.300000
 21
-95.300000
  0
LINE
 10
33.700000
 11
30.700000
 20
-95.300000
 21
-95.300000
  0
LINE
 10
30.700000
 11
30.700000
 20
-16.250000
 21
-9.250000
  0
LINE
 10
30.700000
 11
33.700000
 20
-9.250000
 21
-9.250000
  0
LINE
 10
33.700000
 11
33.700000
 20
-9.250000
 21
-16.250000
  0
LINE
 10
33.700000
 11
30.700000
 20
-16.250000
 21
-16.250000
  0
LINE
 10
30.700000
 11
30.700000
 20
9.250000
 21
16.250000
  0
LINE
 10
30.700000
 11
33.700000
 20
16.250000
 21
16.250000
  0
LINE
 10
33.700000
 11
33.700000
 20
16.250000
 21
9.250000
  0
LINE
 10
33.700000
 11
30.700000
 20
9.250000
 21
9.250000
  0
LINE
 10
36.176000
 11
36.188000
 20
-2.500000
 21
-2.309000
  0
LINE
 10
36.188000
 11
36.224000
 20
-2.309000
 21
-2.121000
  0
LINE
 10
36.224000
 11
36.283000
 20
-2.121000
 21
-1.939000
  0
LINE
 10
36.283000
 11
36.365000
 20
-1.939000
 21
-1.766000
  0
LINE
 10
36.365000
 11
36.467000
 20
-1.766000
 21
-1.604000
  0
LINE
 10
36.467000
 11
36.589000
 20
-1.604000
 21
-1.457000
  0
LINE
 10
36.589000
 11
36.729000
 20
-1.457000
 21
-1.326000
  0
LINE
 10
36.729000
 11
36.883000
 20
-1.326000
 21
-1.213000
  0
LINE
 10
36.883000
 11
37.051000
 20
-1.213000
 21
-1.121000
  0
LINE
 10
37.051000
 11
37.229000
 20
-1.121000
 21
-1.051000
  0
LINE
 10
37.229000
 11
37.414000
 20
-1.051000
 21
-1.003000
  0
LINE
 10
37.414000
 11
37.604000
 20
-1.003000
 21
-0.979000
  0
LINE
 10
37.604000
 11
37.796000
 20
-0.979000
 21
-0.979000
  0
LINE
 10
37.796000
 11
37.986000
 20
-0.979000
 21
-1.003000
  0
LINE
 10
37.986000
 11
38.171000
 20
-1.003000
 21
-1.051000
  0
LINE
 10
38.171000
 11
38.349000
 20
-1.051000
 21
-1.121000
  0
LINE
 10
38.349000
 11
38.517000
 20
-1.121000
 21
-1.213000
  0
LINE
 10
38.517000
 11
38.671000
 20
-1.213000
 21
-1.326000
  0
LINE
 10
38.671000
 11
38.811000
 20
-1.326000
 21
-1.457000
  0
LINE
 10
38.811000
 11
38.933000
 20
-1.457000
 21
-1.604000
  0
LINE
 10
38.933000
 11
39.035000
 20
-1.604000
 21
-1.766000
  0
LINE
 10
39.035000
 11
39.117000
 20
-1.766000
 21
-1.939000
  0
LINE
 10
39.117000
 11
39.176000
 20
-1.939000
 21
-2.121000
  0
LINE
 10
39.176000
 11
39.212000
 20
-2.121000
 21
-2.309000
  0
LINE
 10
39.212000
 11
39.224000
 20
-2.309000
 21
-2.500000
  0
LINE
 10
39.224000
 11
39.212000
 20
-2.500000
 21
-2.691000
  0
LINE
 10
39.212000
 11
39.176000
 20
-2.691000
 21
-2.879000
  0
LINE
 10
39.176000
 11
39.117000
 20
-2.879000
 21
-3.061000
  0
LINE
 10
39.117000
 11
39.035000
 20
-3.061000
 21
-3.234000
  0
LINE
 10
39.035000
 11
38.933000
 20
-3.234000
 21
-3.396000
  0
LINE
 10
38.933000
 11
38.811000
 20
-3.396000
 21
-3.543000
  0
LINE
 10
38.811000
 11
38.671000
 20
-3.543000
 21
-3.674000
  0
LINE
 10
38.671000
 11
38.517000
 20
-3.674000
 21
-3.787000
  0
LINE
 10
38.517000
 11
38.349000
 20
-3.787000
 21
-3.879000
  0
LINE
 10
38.349000
 11
38.171000
 20
-3.879000
 21
-3.949000
  0
LINE
 10
38.171000
 11
37.986000
 20
-3.949000
 21
-3.997000
  0
LINE
 10
37.986000
 11
37.796000
 20
-3.997000
 21
-4.021000
  0
LINE
 10
37.796000
 11
37.604000
 20
-4.021000
 21
-4.021000
  0
LINE
 10
37.604000
 11
37.414000
 20
-4.021000
 21
-3.997000
  0
LINE
 10
37.414000
 11
37.229000
 20
-3.997000
 21
-3.949000
  0
LINE
 10
37.229000
 11
37.051000
 20
-3.949000
 21
-3.879000
  0
LINE
 10
37.051000
 11
36.883000
 20
-3.879000
 21
-3.787000
  0
LINE
 10
36.883000
 11
36.729000
 20
-3.787000
 21
-3.674000
  0
LINE
 10
36.729000
 11
36.589000
 20
-3.674000
 21
-3.543000
  0
LINE
 10
36.589000
 11
36.467000
 20
-3.543000
 21
-3.396000
  0
LINE
 10
36.467000
 11
36.365000
 20
-3.396000
 21
-3.234000
  0
LINE
 10
36.365000
 11
36.283000
 20
-3.234000
 21
-3.061000
  0
LINE
 10
36.283000
 11
36.224000
 20
-3.061000
 21
-2.879000
  0
LINE
 10
36.224000
 11
36.188000
 20
-2.879000
 21
-2.691000
  0
LINE
 10
36.188000
 11
36.176000
 20
-2.691000
 21
-2.500000
  0
LINE
 10
53.700000
 11
53.700000
 20
-16.250000
 21
-9.250000
  0
LINE
 10
53.700000
 11
56.700000
 20
-9.250000
 21
-9.250000
  0
LINE
 10
56.700000
 11
56.700000
 20
-9.250000
 21
9.250000
  0
LINE
 10
56.700000
 11
53.700000
 20
9.250000
 21
9.250000
  0
LINE
 10
53.700000
 11
53.700000
 20
9.250000
 21
16.250000
  0
LINE
 10
53.700000
 11
56.700000
 20
16.250000
 21
16.250000
  0
LINE
 10
56.700000
 11
56.700000
 20
16.250000
 21
25.500000
  0
LINE
 10
56.700000
 11
62.725000
 20
25.500000
 21
25.500000
  0
LINE
 10
62.725000
 11
62.725000
 20
25.500000
 21
22.500000
  0
LINE
 10
62.725000
 11
69.725000
 20
22.500000
 21
22.500000
  0
LINE
 10
69.725000
 11
69.725000
 20
22.500000
 21
25.500000
  0
LINE
 10
69.725000
 11
75.750000
 20
25.500000
 21
25.500000
  0
LINE
 10
75.750000
 11
75.750000
 20
25.500000
 21
16.250000
  0
LINE
 10
75.750000
 11
78.750000
 20
16.250000
 21
16.250000
  0
LINE
 10
78.750000
 11
78.750000
 20
16.250000
 21
9.250000
  0
LINE
 10
78.750000
 11
75.750000
 20
9.250000
 21
9.250000
  0
LINE
 10
75.750000
 11
75.750000
 20
9.250000
 21
1.970000
  0
LINE
 10
75.750000
 11
74.550000
 20
1.970000
 21
1.970000
  0
LINE
 10
74.550000
 11
74.525000
 20
1.970000
 21
1.968000
  0
LINE
 10
74.525000
 11
74.500000
 20
1.968000
 21
1.964000
  0
LINE
 10
74.500000
 11
74.476000
 20
1.964000
 21
1.956000
  0
LINE
 10
74.476000
 11
74.454000
 20
1.956000
 21
1.945000
  0
LINE
 10
74.454000
 11
74.432000
 20
1.945000
 21
1.932000
  0
LINE
 10
74.432000
 11
74.413000
 20
1.932000
 21
1.916000
  0
LINE
 10
74.413000
 11
74.396000
 20
1.916000
 21
1.897000
  0
LINE
 10
74.396000
 11
74.381000
 20
1.897000
 21
1.877000
  0
LINE
 10
74.381000
 11
74.369000
 20
1.877000
 21
1.855000
  0
LINE
 10
74.369000
 11
74.360000
 20
1.855000
 21
1.832000
  0
LINE
 10
74.360000
 11
74.354000
 20
1.832000
 21
1.807000
  0
LINE
 10
74.354000
 11
74.350000
 20
1.807000
 21
1.783000
  0
LINE
 10
74.350000
 11
74.350000
 20
1.783000
 21
0.757000
  0
LINE
 10
74.350000
 11
74.354000
 20
0.757000
 21
0.733000
  0
LINE
 10
74.354000
 11
74.360000
 20
0.733000
 21
0.708000
  0
LINE
 10
74.360000
 11
74.369000
 20
0.708000
 21
0.685000
  0
LINE
 10
74.369000
 11
74.381000
 20
0.685000
 21
0.663000
  0
LINE
 10
74.381000
 11
74.396000
 20
0.663000
 21
0.643000
  0
LINE
 10
74.396000
 11
74.413000
 20
0.643000
 21
0.624000
  0
LINE
 10
74.413000
 11
74.432000
 20
0.624000
 21
0.608000
  0
LINE
 10
74.432000
 11
74.454000
 20
0.608000
 21
0.595000
  0
LINE
 10
74.454000
 11
74.476000
 20
0.595000
 21
0.584000
  0
LINE
 10
74.476000
 11
74.500000
 20
0.584000
 21
0.576000
  0
LINE
 10
74.500000
 11
74.525000
 20
0.576000
 21
0.572000
  0
LINE
 10
74.525000
 11
74.550000
 20
0.572000
 21
0.570000
  0
LINE
 10
74.550000
 11
75.750000
 20
0.570000
 21
0.570000
  0
LINE
 10
75.750000
 11
75.750000
 20
0.570000
 21
-9.250000
  0
LINE
 10
75.750000
 11
78.750000
 20
-9.250000
 21
-9.250000
  0
LINE
 10
78.750000
 11
78.750000
 20
-9.250000
 21
-16.250000
  0
LINE
 10
78.750000
 11
75.750000
 20
-16.250000
 21
-16.250000
  0
LINE
 10
75.750000
 11
75.750000
 20
-16.250000
 21
-25.500000
  0
LINE
 10
75.750000
 11
69.725000
 20
-25.500000
 21
-25.500000
  0
LINE
 10
69.725000
 11
69.725000
 20
-25.500000
 21
-22.500000
  0
LINE
 10
69.725000
 11
62.725000
 20
-22.500000
 21
-22.500000
  0
LINE
 10
62.725000
 11
62.725000
 20
-22.500000
 21
-25.500000
  0
LINE
 10
62.725000
 11
56.700000
 20
-25.500000
 21
-25.500000
  0
LINE
 10
56.700000
 11
56.700000
 20
-25.500000
 21
-16.250000
  0
LINE
 10
56.700000
 11
53.700000
 20
-16.250000
 21
-16.250000
  0
LINE
 10
53.700000
 11
53.700000
 20
42.000000
 21
57.000000
  0
LINE
 10
53.700000
 11
53.712000
 20
57.000000
 21
57.188000
  0
LINE
 10
53.712000
 11
53.747000
 20
57.188000
 21
57.373000
  0
LINE
 10
53.747000
 11
53.805000
 20
57.373000
 21
57.552000
  0
LINE
 10
53.805000
 11
53.886000
 20
57.552000
 21
57.723000
  0
LINE
 10
53.886000
 11
53.986000
 20
57.723000
 21
57.882000
  0
LINE
 10
53.986000
 11
54.107000
 20
57.882000
 21
58.027000
  0
LINE
 10
54.107000
 11
54.244000
 20
58.027000
 21
58.156000
  0
LINE
 10
54.244000
 11
54.396000
 20
58.156000
 21
58.266000
  0
LINE
 10
54.396000
 11
54.561000
 20
58.266000
 21
58.357000
  0
LINE
 10
54.561000
 11
54.736000
 20
58.357000
 21
58.427000
  0
LINE
 10
54.736000
 11
54.919000
 20
58.427000
 21
58.473000
  0
LINE
 10
54.919000
 11
55.106000
 20
58.473000
 21
58.497000
  0
LINE
 10
55.106000
 11
55.200000
 20
58.497000
 21
58.497000
  0
LINE
 10
55.200000
 11
55.200000
 20
58.497000
 21
58.500000
  0
LINE
 10
55.200000
 11
59.700000
 20
58.500000
 21
58.500000
  0
LINE
 10
59.700000
 11
59.700000
 20
58.500000
 21
58.497000
  0
LINE
 10
59.700000
 11
59.794000
 20
58.497000
 21
58.497000
  0
LINE
 10
59.794000
 11
59.981000
 20
58.497000
 21
58.473000
  0
LINE
 10
59.981000
 11
60.164000
 20
58.473000
 21
58.427000
  0
LINE
 10
60.164000
 11
60.339000
 20
58.427000
 21
58.357000
  0
LINE
 10
60.339000
 11
60.504000
 20
58.357000
 21
58.266000
  0
LINE
 10
60.504000
 11
60.656000
 20
58.266000
 21
58.156000
  0
LINE
 10
60.656000
 11
60.793000
 20
58.156000
 21
58.027000
  0
LINE
 10
60.793000
 11
60.914000
 20
58.027000
 21
57.882000
  0
LINE
 10
60.914000
 11
61.014000
 20
57.882000
 21
57.723000
  0
LINE
 10
61.014000
 11
61.095000
 20
57.723000
 21
57.552000
  0
LINE
 10
61.095000
 11
61.153000
 20
57.552000
 21
57.373000
  0
LINE
 10
61.153000
 11
61.188000
 20
57.373000
 21
57.188000
  0
LINE
 10
61.188000
 11
61.200000
 20
57.188000
 21
57.000000
  0
LINE
 10
61.200000
 11
61.200000
 20
57.000000
 21
42.000000
  0
LINE
 10
61.200000
 11
61.188000
 20
42.000000
 21
41.812000
  0
LINE
 10
61.188000
 11
61.153000
 20
41.812000
 21
41.627000
  0
LINE
 10
61.153000
 11
61.095000
 20
41.627000
 21
41.448000
  0
LINE
 10
61.095000
 11
61.014000
 20
41.448000
 21
41.277000
  0
LINE
 10
61.014000
 11
60.914000
 20
41.277000
 21
41.118000
  0
LINE
 10
60.914000
 11
60.793000
 20
41.118000
 21
40.973000
  0
LINE
 10
60.793000
 11
60.656000
 20
40.973000
 21
40.844000
  0
LINE
 10
60.656000
 11
60.504000
 20
40.844000
 21
40.734000
  0
LINE
 10
60.504000
 11
60.339000
 20
40.734000
 21
40.643000
  0
LINE
 10
60.339000
 11
60.164000
 20
40.643000
 21
40.573000
  0
LINE
 10
60.164000
 11
59.981000
 20
40.573000
 21
40.527000
  0
LINE
 10
59.981000
 11
59.794000
 20
40.527000
 21
40.503000
  0
LINE
 10
59.794000
 11
59.700000
 20
40.503000
 21
40.503000
  0
LINE
 10
59.700000
 11
59.700000
 20
40.503000
 21
40.500000
  0
LINE
 10
59.700000
 11
55.200000
 20
40.500000
 21
40.500000
  0
LINE
 10
55.200000
 11
55.200000
 20
40.500000
 21
40.503000
  0
LINE
 10
55.200000
 11
55.106000
 20
40.503000
 21
40.503000
  0
LINE
 10
55.106000
 11
54.919000
 20
40.503000
 21
40.527000
  0
LINE
 10
54.919000
 11
54.736000
 20
40.527000
 21
40.573000
  0
LINE
 10
54.736000
 11
54.561000
 20
40.573000
 21
40.643000
  0
LINE
 10
54.561000
 11
54.396000
 20
40.643000
 21
40.734000
  0
LINE
 10
54.396000
 11
54.244000
 20
40.734000
 21
40.844000
  0
LINE
 10
54.244000
 11
54.107000
 20
40.844000
 21
40.973000
  0
LINE
 10
54.107000
 11
53.986000
 20
40.973000
 21
41.118000
  0
LINE
 10
53.986000
 11
53.886000
 20
41.118000
 21
41.277000
  0
LINE
 10
53.886000
 11
53.805000
 20
41.277000
 21
41.448000
  0
LINE
 10
53.805000
 11
53.747000
 20
41.448000
 21
41.627000
  0
LINE
 10
53.747000
 11
53.712000
 20
41.627000
 21
41.812000
  0
LINE
 10
53.712000
 11
53.700000
 20
41.812000
 21
42.000000
  0
LINE
 10
56.320000
 11
56.329000
 20
47.000000
 21
47.142000
  0
LINE
 10
56.329000
 11
56.355000
 20
47.142000
 21
47.281000
  0
LINE
 10
56.355000
 11
56.399000
 20
47.281000
 21
47.416000
  0
LINE
 10
56.399000
 11
56.460000
 20
47.416000
 21
47.545000
  0
LINE
 10
56.460000
 11
56.536000
 20
47.545000
 21
47.664000
  0
LINE
 10
56.536000
 11
56.626000
 20
47.664000
 21
47.774000
  0
LINE
 10
56.626000
 11
56.730000
 20
47.774000
 21
47.871000
  0
LINE
 10
56.730000
 11
56.844000
 20
47.871000
 21
47.954000
  0
LINE
 10
56.844000
 11
56.969000
 20
47.954000
 21
48.023000
  0
LINE
 10
56.969000
 11
57.101000
 20
48.023000
 21
48.075000
  0
LINE
 10
57.101000
 11
57.238000
 20
48.075000
 21
48.110000
  0
LINE
 10
57.238000
 11
57.379000
 20
48.110000
 21
48.128000
  0
LINE
 10
57.379000
 11
57.521000
 20
48.128000
 21
48.128000
  0
LINE
 10
57.521000
 11
57.662000
 20
48.128000
 21
48.110000
  0
LINE
 10
57.662000
 11
57.799000
 20
48.110000
 21
48.075000
  0
LINE
 10
57.799000
 11
57.931000
 20
48.075000
 21
48.023000
  0
LINE
 10
57.931000
 11
58.056000
 20
48.023000
 21
47.954000
  0
LINE
 10
58.056000
 11
58.170000
 20
47.954000
 21
47.871000
  0
LINE
 10
58.170000
 11
58.274000
 20
47.871000
 21
47.774000
  0
LINE
 10
58.274000
 11
58.364000
 20
47.774000
 21
47.664000
  0
LINE
 10
58.364000
 11
58.440000
 20
47.664000
 21
47.545000
  0
LINE
 10
58.440000
 11
58.501000
 20
47.545000
 21
47.416000
  0
LINE
 10
58.501000
 11
58.545000
 20
47.416000
 21
47.281000
  0
LINE
 10
58.545000
 11
58.571000
 20
47.281000
 21
47.142000
  0
LINE
 10
58.571000
 11
58.580000
 20
47.142000
 21
47.000000
  0
LINE
 10
58.580000
 11
58.571000
 20
47.000000
 21
46.858000
  0
LINE
 10
58.571000
 11
58.545000
 20
46.858000
 21
46.719000
  0
LINE
 10
58.545000
 11
58.501000
 20
46.719000
 21
46.584000
  0
LINE
 10
58.501000
 11
58.440000
 20
46.584000
 21
46.455000
  0
LINE
 10
58.440000
 11
58.364000
 20
46.455000
 21
46.336000
  0
LINE
 10
58.364000
 11
58.274000
 20
46.336000
 21
46.226000
  0
LINE
 10
58.274000
 11
58.170000
 20
46.226000
 21
46.129000
  0
LINE
 10
58.170000
 11
58.056000
 20
46.129000
 21
46.046000
  0
LINE
 10
58.056000
 11
57.931000
 20
46.046000
 21
45.977000
  0
LINE
 10
57.931000
 11
57.799000
 20
45.977000
 21
45.925000
  0
LINE
 10
57.799000
 11
57.662000
 20
45.925000
 21
45.890000
  0
LINE
 10
57.662000
 11
57.521000
 20
45.890000
 21
45.872000
  0
LINE
 10
57.521000
 11
57.379000
 20
45.872000
 21
45.872000
  0
LINE
 10
57.379000
 11
57.238000
 20
45.872000
 21
45.890000
  0
LINE
 10
57.238000
 11
57.101000
 20
45.890000
 21
45.925000
  0
LINE
 10
57.101000
 11
56.969000
 20
45.925000
 21
45.977000
  0
LINE
 10
56.969000
 11
56.844000
 20
45.977000
 21
46.046000
  0
LINE
 10
56.844000
 11
56.730000
 20
46.046000
 21
46.129000
  0
LINE
 10
56.730000
 11
56.626000
 20
46.129000
 21
46.226000
  0
LINE
 10
56.626000
 11
56.536000
 20
46.226000
 21
46.336000
  0
LINE
 10
56.536000
 11
56.460000
 20
46.336000
 21
46.455000
  0
LINE
 10
56.460000
 11
56.399000
 20
46.455000
 21
46.584000
  0
LINE
 10
56.399000
 11
56.355000
 20
46.584000
 21
46.719000
  0
LINE
 10
56.355000
 11
56.329000
 20
46.719000
 21
46.858000
  0
LINE
 10
56.329000
 11
56.320000
 20
46.858000
 21
47.000000
  0
ENDSEC
  0
EOF
