  0
SECTION
  2
ENTITIES
  0
LINE
 10
-78.750000
 11
-78.750000
 20
-16.250000
 21
-9.250000
  0
LINE
 10
-78.750000
 11
-75.750000
 20
-9.250000
 21
-9.250000
  0
LINE
 10
-75.750000
 11
-75.750000
 20
-9.250000
 21
0.050000
  0
LINE
 10
-75.750000
 11
-74.550000
 20
0.050000
 21
0.050000
  0
LINE
 10
-74.550000
 11
-74.525000
 20
0.050000
 21
0.052000
  0
LINE
 10
-74.525000
 11
-74.500000
 20
0.052000
 21
0.056000
  0
LINE
 10
-74.500000
 11
-74.476000
 20
0.056000
 21
0.064000
  0
LINE
 10
-74.476000
 11
-74.454000
 20
0.064000
 21
0.075000
  0
LINE
 10
-74.454000
 11
-74.432000
 20
0.075000
 21
0.088000
  0
LINE
 10
-74.432000
 11
-74.413000
 20
0.088000
 21
0.104000
  0
LINE
 10
-74.413000
 11
-74.396000
 20
0.104000
 21
0.123000
  0
LINE
 10
-74.396000
 11
-74.381000
 20
0.123000
 21
0.143000
  0
LINE
 10
-74.381000
 11
-74.369000
 20
0.143000
 21
0.165000
  0
LINE
 10
-74.369000
 11
-74.360000
 20
0.165000
 21
0.188000
  0
LINE
 10
-74.360000
 11
-74.354000
 20
0.188000
 21
0.213000
  0
LINE
 10
-74.354000
 11
-74.350000
 20
0.213000
 21
0.237000
  0
LINE
 10
-74.350000
 11
-74.350000
 20
0.237000
 21
1.263000
  0
LINE
 10
-74.350000
 11
-74.354000
 20
1.263000
 21
1.287000
  0
LINE
 10
-74.354000
 11
-74.360000
 20
1.287000
 21
1.312000
  0
LINE
 10
-74.360000
 11
-74.369000
 20
1.312000
 21
1.335000
  0
LINE
 10
-74.369000
 11
-74.381000
 20
1.335000
 21
1.357000
  0
LINE
 10
-74.381000
 11
-74.396000
 20
1.357000
 21
1.377000
  0
LINE
 10
-74.396000
 11
-74.413000
 20
1.377000
 21
1.396000
  0
LINE
 10
-74.413000
 11
-74.432000
 20
1.396000
 21
1.412000
  0
LINE
 10
-74.432000
 11
-74.454000
 20
1.412000
 21
1.425000
  0
LINE
 10
-74.454000
 11
-74.476000
 20
1.425000
 21
1.436000
  0
LINE
 10
-74.476000
 11
-74.500000
 20
1.436000
 21
1.444000
  0
LINE
 10
-74.500000
 11
-74.525000
 20
1.444000
 21
1.448000
  0
LINE
 10
-74.525000
 11
-74.550000
 20
1.448000
 21
1.450000
  0
LINE
 10
-74.550000
 11
-75.750000
 20
1.450000
 21
1.450000
  0
LINE
 10
-75.750000
 11
-75.750000
 20
1.450000
 21
9.250000
  0
LINE
 10
-75.750000
 11
-78.750000
 20
9.250000
 21
9.250000
  0
LINE
 10
-78.750000
 11
-78.750000
 20
9.250000
 21
16.250000
  0
LINE
 10
-78.750000
 11
-75.750000
 20
16.250000
 21
16.250000
  0
LINE
 10
-75.750000
 11
-75.750000
 20
16.250000
 21
25.500000
  0
LINE
 10
-75.750000
 11
-69.725000
 20
25.500000
 21
25.500000
  0
LINE
 10
-69.725000
 11
-69.725000
 20
25.500000
 21
22.500000
  0
LINE
 10
-69.725000
 11
-62.725000
 20
22.500000
 21
22.500000
  0
LINE
 10
-62.725000
 11
-62.725000
 20
22.500000
 21
25.500000
  0
LINE
 10
-62.725000
 11
-56.700000
 20
25.500000
 21
25.500000
  0
LINE
 10
-56.700000
 11
-56.700000
 20
25.500000
 21
16.250000
  0
LINE
 10
-56.700000
 11
-53.700000
 20
16.250000
 21
16.250000
  0
LINE
 10
-53.700000
 11
-53.700000
 20
16.250000
 21
9.250000
  0
LINE
 10
-53.700000
 11
-56.700000
 20
9.250000
 21
9.250000
  0
LINE
 10
-56.700000
 11
-56.700000
 20
9.250000
 21
-9.250000
  0
LINE
 10
-56.700000
 11
-53.700000
 20
-9.250000
 21
-9.250000
  0
LINE
 10
-53.700000
 11
-53.700000
 20
-9.250000
 21
-16.250000
  0
LINE
 10
-53.700000
 11
-56.700000
 20
-16.250000
 21
-16.250000
  0
LINE
 10
-56.700000
 11
-56.700000
 20
-16.250000
 21
-25.500000
  0
LINE
 10
-56.700000
 11
-62.725000
 20
-25.500000
 21
-25.500000
  0
LINE
 10
-62.725000
 11
-62.725000
 20
-25.500000
 21
-22.500000
  0
LINE
 10
-62.725000
 11
-69.725000
 20
-22.500000
 21
-22.500000
  0
LINE
 10
-69.725000
 11
-69.725000
 20
-22.500000
 21
-25.500000
  0
LINE
 10
-69.725000
 11
-75.750000
 20
-25.500000
 21
-25.500000
  0
LINE
 10
-75.750000
 11
-75.750000
 20
-25.500000
 21
-16.250000
  0
LINE
 10
-75.750000
 11
-78.750000
 20
-16.250000
 21
-16.250000
  0
LINE
 10
-41.700000
 11
-41.700000
 20
-27.000000
 21
27.000000
  0
LINE
 10
-41.700000
 11
-41.688000
 20
27.000000
 21
27.188000
  0
LINE
 10
-41.688000
 11
-41.653000
 20
27.188000
 21
27.373000
  0
LINE
 10
-41.653000
 11
-41.595000
 20
27.373000
 21
27.552000
  0
LINE
 10
-41.595000
 11
-41.514000
 20
27.552000
 21
27.723000
  0
LINE
 10
-41.514000
 11
-41.414000
 20
27.723000
 21
27.882000
  0
LINE
 10
-41.414000
 11
-41.293000
 20
27.882000
 21
28.027000
  0
LINE
 10
-41.293000
 11
-41.156000
 20
28.027000
 21
28.156000
  0
LINE
 10
-41.156000
 11
-41.004000
 20
28.156000
 21
28.266000
  0
LINE
 10
-41.004000
 11
-40.839000
 20
28.266000
 21
28.357000
  0
LINE
 10
-40.839000
 11
-40.664000
 20
28.357000
 21
28.427000
  0
LINE
 10
-40.664000
 11
-40.481000
 20
28.427000
 21
28.473000
  0
LINE
 10
-40.481000
 11
-40.294000
 20
28.473000
 21
28.497000
  0
LINE
 10
-40.294000
 11
-40.200000
 20
28.497000
 21
28.497000
  0
LINE
 10
-40.200000
 11
-40.200000
 20
28.497000
 21
28.500000
  0
LINE
 10
-40.200000
 11
40.200000
 20
28.500000
 21
28.500000
  0
LINE
 10
40.200000
 11
40.200000
 20
28.500000
 21
28.497000
  0
LINE
 10
40.200000
 11
40.294000
 20
28.497000
 21
28.497000
  0
LINE
 10
40.294000
 11
40.481000
 20
28.497000
 21
28.473000
  0
LINE
 10
40.481000
 11
40.664000
 20
28.473000
 21
28.427000
  0
LINE
 10
40.664000
 11
40.839000
 20
28.427000
 21
28.357000
  0
LINE
 10
40.839000
 11
41.004000
 20
28.357000
 21
28.266000
  0
LINE
 10
41.004000
 11
41.156000
 20
28.266000
 21
28.156000
  0
LINE
 10
41.156000
 11
41.293000
 20
28.156000
 21
28.027000
  0
LINE
 10
41.293000
 11
41.414000
 20
28.027000
 21
27.882000
  0
LINE
 10
41.414000
 11
41.514000
 20
27.882000
 21
27.723000
  0
LINE
 10
41.514000
 11
41.595000
 20
27.723000
 21
27.552000
  0
LINE
 10
41.595000
 11
41.653000
 20
27.552000
 21
27.373000
  0
LINE
 10
41.653000
 11
41.688000
 20
27.373000
 21
27.188000
  0
LINE
 10
41.688000
 11
41.700000
 20
27.188000
 21
27.000000
  0
LINE
 10
41.700000
 11
41.700000
 20
27.000000
 21
-27.000000
  0
LINE
 10
41.700000
 11
41.688000
 20
-27.000000
 21
-27.188000
  0
LINE
 10
41.688000
 11
41.653000
 20
-27.188000
 21
-27.373000
  0
LINE
 10
41.653000
 11
41.595000
 20
-27.373000
 21
-27.552000
  0
LINE
 10
41.595000
 11
41.514000
 20
-27.552000
 21
-27.723000
  0
LINE
 10
41.514000
 11
41.414000
 20
-27.723000
 21
-27.882000
  0
LINE
 10
41.414000
 11
41.293000
 20
-27.882000
 21
-28.027000
  0
LINE
 10
41.293000
 11
41.156000
 20
-28.027000
 21
-28.156000
  0
LINE
 10
41.156000
 11
41.004000
 20
-28.156000
 21
-28.266000
  0
LINE
 10
41.004000
 11
40.839000
 20
-28.266000
 21
-28.357000
  0
LINE
 10
40.839000
 11
40.664000
 20
-28.357000
 21
-28.427000
  0
LINE
 10
40.664000
 11
40.481000
 20
-28.427000
 21
-28.473000
  0
LINE
 10
40.481000
 11
40.294000
 20
-28.473000
 21
-28.497000
  0
LINE
 10
40.294000
 11
40.200000
 20
-28.497000
 21
-28.497000
  0
LINE
 10
40.200000
 11
40.200000
 20
-28.497000
 21
-28.500000
  0
LINE
 10
40.200000
 11
-40.200000
 20
-28.500000
 21
-28.500000
  0
LINE
 10
-40.200000
 11
-40.200000
 20
-28.500000
 21
-28.497000
  0
LINE
 10
-40.200000
 11
-40.294000
 20
-28.497000
 21
-28.497000
  0
LINE
 10
-40.294000
 11
-40.481000
 20
-28.497000
 21
-28.473000
  0
LINE
 10
-40.481000
 11
-40.664000
 20
-28.473000
 21
-28.427000
  0
LINE
 10
-40.664000
 11
-40.839000
 20
-28.427000
 21
-28.357000
  0
LINE
 10
-40.839000
 11
-41.004000
 20
-28.357000
 21
-28.266000
  0
LINE
 10
-41.004000
 11
-41.156000
 20
-28.266000
 21
-28.156000
  0
LINE
 10
-41.156000
 11
-41.293000
 20
-28.156000
 21
-28.027000
  0
LINE
 10
-41.293000
 11
-41.414000
 20
-28.027000
 21
-27.882000
  0
LINE
 10
-41.414000
 11
-41.514000
 20
-27.882000
 21
-27.723000
  0
LINE
 10
-41.514000
 11
-41.595000
 20
-27.723000
 21
-27.552000
  0
LINE
 10
-41.595000
 11
-41.653000
 20
-27.552000
 21
-27.373000
  0
LINE
 10
-41.653000
 11
-41.688000
 20
-27.373000
 21
-27.188000
  0
LINE
 10
-41.688000
 11
-41.700000
 20
-27.188000
 21
-27.000000
  0
LINE
 10
-39.224000
 11
-39.212000
 20
-3.000000
 21
-2.809000
  0
LINE
 10
-39.212000
 11
-39.176000
 20
-2.809000
 21
-2.621000
  0
LINE
 10
-39.176000
 11
-39.117000
 20
-2.621000
 21
-2.439000
  0
LINE
 10
-39.117000
 11
-39.035000
 20
-2.439000
 21
-2.266000
  0
LINE
 10
-39.035000
 11
-38.933000
 20
-2.266000
 21
-2.104000
  0
LINE
 10
-38.933000
 11
-38.811000
 20
-2.104000
 21
-1.957000
  0
LINE
 10
-38.811000
 11
-38.671000
 20
-1.957000
 21
-1.826000
  0
LINE
 10
-38.671000
 11
-38.517000
 20
-1.826000
 21
-1.713000
  0
LINE
 10
-38.517000
 11
-38.349000
 20
-1.713000
 21
-1.621000
  0
LINE
 10
-38.349000
 11
-38.171000
 20
-1.621000
 21
-1.551000
  0
LINE
 10
-38.171000
 11
-37.986000
 20
-1.551000
 21
-1.503000
  0
LINE
 10
-37.986000
 11
-37.796000
 20
-1.503000
 21
-1.479000
  0
LINE
 10
-37.796000
 11
-37.604000
 20
-1.479000
 21
-1.479000
  0
LINE
 10
-37.604000
 11
-37.414000
 20
-1.479000
 21
-1.503000
  0
LINE
 10
-37.414000
 11
-37.229000
 20
-1.503000
 21
-1.551000
  0
LINE
 10
-37.229000
 11
-37.051000
 20
-1.551000
 21
-1.621000
  0
LINE
 10
-37.051000
 11
-36.883000
 20
-1.621000
 21
-1.713000
  0
LINE
 10
-36.883000
 11
-36.729000
 20
-1.713000
 21
-1.826000
  0
LINE
 10
-36.729000
 11
-36.589000
 20
-1.826000
 21
-1.957000
  0
LINE
 10
-36.589000
 11
-36.467000
 20
-1.957000
 21
-2.104000
  0
LINE
 10
-36.467000
 11
-36.365000
 20
-2.104000
 21
-2.266000
  0
LINE
 10
-36.365000
 11
-36.283000
 20
-2.266000
 21
-2.439000
  0
LINE
 10
-36.283000
 11
-36.224000
 20
-2.439000
 21
-2.621000
  0
LINE
 10
-36.224000
 11
-36.188000
 20
-2.621000
 21
-2.809000
  0
LINE
 10
-36.188000
 11
-36.176000
 20
-2.809000
 21
-3.000000
  0
LINE
 10
-36.176000
 11
-36.188000
 20
-3.000000
 21
-3.191000
  0
LINE
 10
-36.188000
 11
-36.224000
 20
-3.191000
 21
-3.379000
  0
LINE
 10
-36.224000
 11
-36.283000
 20
-3.379000
 21
-3.561000
  0
LINE
 10
-36.283000
 11
-36.365000
 20
-3.561000
 21
-3.734000
  0
LINE
 10
-36.365000
 11
-36.467000
 20
-3.734000
 21
-3.896000
  0
LINE
 10
-36.467000
 11
-36.589000
 20
-3.896000
 21
-4.043000
  0
LINE
 10
-36.589000
 11
-36.729000
 20
-4.043000
 21
-4.174000
  0
LINE
 10
-36.729000
 11
-36.883000
 20
-4.174000
 21
-4.287000
  0
LINE
 10
-36.883000
 11
-37.051000
 20
-4.287000
 21
-4.379000
  0
LINE
 10
-37.051000
 11
-37.229000
 20
-4.379000
 21
-4.449000
  0
LINE
 10
-37.229000
 11
-37.414000
 20
-4.449000
 21
-4.497000
  0
LINE
 10
-37.414000
 11
-37.604000
 20
-4.497000
 21
-4.521000
  0
LINE
 10
-37.604000
 11
-37.796000
 20
-4.521000
 21
-4.521000
  0
LINE
 10
-37.796000
 11
-37.986000
 20
-4.521000
 21
-4.497000
  0
LINE
 10
-37.986000
 11
-38.171000
 20
-4.497000
 21
-4.449000
  0
LINE
 10
-38.171000
 11
-38.349000
 20
-4.449000
 21
-4.379000
  0
LINE
 10
-38.349000
 11
-38.517000
 20
-4.379000
 21
-4.287000
  0
LINE
 10
-38.517000
 11
-38.671000
 20
-4.287000
 21
-4.174000
  0
LINE
 10
-38.671000
 11
-38.811000
 20
-4.174000
 21
-4.043000
  0
LINE
 10
-38.811000
 11
-38.933000
 20
-4.043000
 21
-3.896000
  0
LINE
 10
-38.933000
 11
-39.035000
 20
-3.896000
 21
-3.734000
  0
LINE
 10
-39.035000
 11
-39.117000
 20
-3.734000
 21
-3.561000
  0
LINE
 10
-39.117000
 11
-39.176000
 20
-3.561000
 21
-3.379000
  0
LINE
 10
-39.176000
 11
-39.212000
 20
-3.379000
 21
-3.191000
  0
LINE
 10
-39.212000
 11
-39.224000
 20
-3.191000
 21
-3.000000
  0
LINE
 10
-35.200000
 11
-35.200000
 20
-130.050000
 21
-79.050000
  0
LINE
 10
-35.200000
 11
-35.188000
 20
-79.050000
 21
-78.862000
  0
LINE
 10
-35.188000
 11
-35.153000
 20
-78.862000
 21
-78.677000
  0
LINE
 10
-35.153000
 11
-35.095000
 20
-78.677000
 21
-78.498000
  0
LINE
 10
-35.095000
 11
-35.014000
 20
-78.498000
 21
-78.327000
  0
LINE
 10
-35.014000
 11
-34.914000
 20
-78.327000
 21
-78.168000
  0
LINE
 10
-34.914000
 11
-34.793000
 20
-78.168000
 21
-78.023000
  0
LINE
 10
-34.793000
 11
-34.656000
 20
-78.023000
 21
-77.894000
  0
LINE
 10
-34.656000
 11
-34.504000
 20
-77.894000
 21
-77.784000
  0
LINE
 10
-34.504000
 11
-34.339000
 20
-77.784000
 21
-77.693000
  0
LINE
 10
-34.339000
 11
-34.164000
 20
-77.693000
 21
-77.623000
  0
LINE
 10
-34.164000
 11
-33.981000
 20
-77.623000
 21
-77.577000
  0
LINE
 10
-33.981000
 11
-33.794000
 20
-77.577000
 21
-77.553000
  0
LINE
 10
-33.794000
 11
-33.700000
 20
-77.553000
 21
-77.553000
  0
LINE
 10
-33.700000
 11
-33.700000
 20
-77.553000
 21
-77.550000
  0
LINE
 10
-33.700000
 11
33.700000
 20
-77.550000
 21
-77.550000
  0
LINE
 10
33.700000
 11
33.700000
 20
-77.550000
 21
-77.553000
  0
LINE
 10
33.700000
 11
33.794000
 20
-77.553000
 21
-77.553000
  0
LINE
 10
33.794000
 11
33.981000
 20
-77.553000
 21
-77.577000
  0
LINE
 10
33.981000
 11
34.164000
 20
-77.577000
 21
-77.623000
  0
LINE
 10
34.164000
 11
34.339000
 20
-77.623000
 21
-77.693000
  0
LINE
 10
34.339000
 11
34.504000
 20
-77.693000
 21
-77.784000
  0
LINE
 10
34.504000
 11
34.656000
 20
-77.784000
 21
-77.894000
  0
LINE
 10
34.656000
 11
34.793000
 20
-77.894000
 21
-78.023000
  0
LINE
 10
34.793000
 11
34.914000
 20
-78.023000
 21
-78.168000
  0
LINE
 10
34.914000
 11
35.014000
 20
-78.168000
 21
-78.327000
  0
LINE
 10
35.014000
 11
35.095000
 20
-78.327000
 21
-78.498000
  0
LINE
 10
35.095000
 11
35.153000
 20
-78.498000
 21
-78.677000
  0
LINE
 10
35.153000
 11
35.188000
 20
-78.677000
 21
-78.862000
  0
LINE
 10
35.188000
 11
35.200000
 20
-78.862000
 21
-79.050000
  0
LINE
 10
35.200000
 11
35.200000
 20
-79.050000
 21
-130.050000
  0
LINE
 10
35.200000
 11
35.188000
 20
-130.050000
 21
-130.238000
  0
LINE
 10
35.188000
 11
35.153000
 20
-130.238000
 21
-130.423000
  0
LINE
 10
35.153000
 11
35.095000
 20
-130.423000
 21
-130.602000
  0
LINE
 10
35.095000
 11
35.014000
 20
-130.602000
 21
-130.773000
  0
LINE
 10
35.014000
 11
34.914000
 20
-130.773000
 21
-130.932000
  0
LINE
 10
34.914000
 11
34.793000
 20
-130.932000
 21
-131.077000
  0
LINE
 10
34.793000
 11
34.656000
 20
-131.077000
 21
-131.206000
  0
LINE
 10
34.656000
 11
34.504000
 20
-131.206000
 21
-131.316000
  0
LINE
 10
34.504000
 11
34.339000
 20
-131.316000
 21
-131.407000
  0
LINE
 10
34.339000
 11
34.164000
 20
-131.407000
 21
-131.477000
  0
LINE
 10
34.164000
 11
33.981000
 20
-131.477000
 21
-131.523000
  0
LINE
 10
33.981000
 11
33.794000
 20
-131.523000
 21
-131.547000
  0
LINE
 10
33.794000
 11
33.700000
 20
-131.547000
 21
-131.547000
  0
LINE
 10
33.700000
 11
33.700000
 20
-131.547000
 21
-131.550000
  0
LINE
 10
33.700000
 11
-33.700000
 20
-131.550000
 21
-131.550000
  0
LINE
 10
-33.700000
 11
-33.700000
 20
-131.550000
 21
-131.547000
  0
LINE
 10
-33.700000
 11
-33.794000
 20
-131.547000
 21
-131.547000
  0
LINE
 10
-33.794000
 11
-33.981000
 20
-131.547000
 21
-131.523000
  0
LINE
 10
-33.981000
 11
-34.164000
 20
-131.523000
 21
-131.477000
  0
LINE
 10
-34.164000
 11
-34.339000
 20
-131.477000
 21
-131.407000
  0
LINE
 10
-34.339000
 11
-34.504000
 20
-131.407000
 21
-131.316000
  0
LINE
 10
-34.504000
 11
-34.656000
 20
-131.316000
 21
-131.206000
  0
LINE
 10
-34.656000
 11
-34.793000
 20
-131.206000
 21
-131.077000
  0
LINE
 10
-34.793000
 11
-34.914000
 20
-131.077000
 21
-130.932000
  0
LINE
 10
-34.914000
 11
-35.014000
 20
-130.932000
 21
-130.773000
  0
LINE
 10
-35.014000
 11
-35.095000
 20
-130.773000
 21
-130.602000
  0
LINE
 10
-35.095000
 11
-35.153000
 20
-130.602000
 21
-130.423000
  0
LINE
 10
-35.153000
 11
-35.188000
 20
-130.423000
 21
-130.238000
  0
LINE
 10
-35.188000
 11
-35.200000
 20
-130.238000
 21
-130.050000
  0
LINE
 10
-33.700000
 11
-33.700000
 20
-120.800000
 21
-113.800000
  0
LINE
 10
-33.700000
 11
-30.700000
 20
-113.800000
 21
-113.800000
  0
LINE
 10
-30.700000
 11
-30.700000
 20
-113.800000
 21
-120.800000
  0
LINE
 10
-30.700000
 11
-33.700000
 20
-120.800000
 21
-120.800000
  0
LINE
 10
-33.700000
 11
-33.700000
 20
-95.300000
 21
-88.300000
  0
LINE
 10
-33.700000
 11
-30.700000
 20
-88.300000
 21
-88.300000
  0
LINE
 10
-30.700000
 11
-30.700000
 20
-88.300000
 21
-95.300000
  0
LINE
 10
-30.700000
 11
-33.700000
 20
-95.300000
 21
-95.300000
  0
LINE
 10
-33.700000
 11
-33.700000
 20
-56.525000
 21
-49.525000
  0
LINE
 10
-33.700000
 11
-30.700000
 20
-49.525000
 21
-49.525000
  0
LINE
 10
-30.700000
 11
-30.700000
 20
-49.525000
 21
-43.500000
  0
LINE
 10
-30.700000
 11
-18.850000
 20
-43.500000
 21
-43.500000
  0
LINE
 10
-18.850000
 11
-18.850000
 20
-43.500000
 21
-40.500000
  0
LINE
 10
-18.850000
 11
-11.850000
 20
-40.500000
 21
-40.500000
  0
LINE
 10
-11.850000
 11
-11.850000
 20
-40.500000
 21
-43.500000
  0
LINE
 10
-11.850000
 11
11.850000
 20
-43.500000
 21
-43.500000
  0
LINE
 10
11.850000
 11
11.850000
 20
-43.500000
 21
-40.500000
  0
LINE
 10
11.850000
 11
18.850000
 20
-40.500000
 21
-40.500000
  0
LINE
 10
18.850000
 11
18.850000
 20
-40.500000
 21
-43.500000
  0
LINE
 10
18.850000
 11
30.700000
 20
-43.500000
 21
-43.500000
  0
LINE
 10
30.700000
 11
30.700000
 20
-43.500000
 21
-49.525000
  0
LINE
 10
30.700000
 11
33.700000
 20
-49.525000
 21
-49.525000
  0
LINE
 10
33.700000
 11
33.700000
 20
-49.525000
 21
-56.525000
  0
LINE
 10
33.700000
 11
30.700000
 20
-56.525000
 21
-56.525000
  0
LINE
 10
30.700000
 11
30.700000
 20
-56.525000
 21
-62.550000
  0
LINE
 10
30.700000
 11
18.850000
 20
-62.550000
 21
-62.550000
  0
LINE
 10
18.850000
 11
18.850000
 20
-62.550000
 21
-65.550000
  0
LINE
 10
18.850000
 11
11.850000
 20
-65.550000
 21
-65.550000
  0
LINE
 10
11.850000
 11
11.850000
 20
-65.550000
 21
-62.550000
  0
LINE
 10
11.850000
 11
-11.850000
 20
-62.550000
 21
-62.550000
  0
LINE
 10
-11.850000
 11
-11.850000
 20
-62.550000
 21
-65.550000
  0
LINE
 10
-11.850000
 11
-18.850000
 20
-65.550000
 21
-65.550000
  0
LINE
 10
-18.850000
 11
-18.850000
 20
-65.550000
 21
-62.550000
  0
LINE
 10
-18.850000
 11
-30.700000
 20
-62.550000
 21
-62.550000
  0
LINE
 10
-30.700000
 11
-30.700000
 20
-62.550000
 21
-56.525000
  0
LINE
 10
-30.700000
 11
-33.700000
 20
-56.525000
 21
-56.525000
  0
LINE
 10
-33.700000
 11
-33.700000
 20
-16.250000
 21
-9.250000
  0
LINE
 10
-33.700000
 11
-30.700000
 20
-9.250000
 21
-9.250000
  0
LINE
 10
-30.700000
 11
-30.700000
 20
-9.250000
 21
-16.250000
  0
LINE
 10
-30.700000
 11
-33.700000
 20
-16.250000
 21
-16.250000
  0
LINE
 10
-33.700000
 11
-33.700000
 20
9.250000
 21
16.250000
  0
LINE
 10
-33.700000
 11
-30.700000
 20
16.250000
 21
16.250000
  0
LINE
 10
-30.700000
 11
-30.700000
 20
16.250000
 21
9.250000
  0
LINE
 10
-30.700000
 11
-33.700000
 20
9.250000
 21
9.250000
  0
LINE
 10
-33.700000
 11
-33.700000
 20
49.525000
 21
56.525000
  0
LINE
 10
-33.700000
 11
-30.700000
 20
56.525000
 21
56.525000
  0
LINE
 10
-30.700000
 11
-30.700000
 20
56.525000
 21
62.550000
  0
LINE
 10
-30.700000
 11
-18.850000
 20
62.550000
 21
62.550000
  0
LINE
 10
-18.850000
 11
-18.850000
 20
62.550000
 21
65.550000
  0
LINE
 10
-18.850000
 11
-11.850000
 20
65.550000
 21
65.550000
  0
LINE
 10
-11.850000
 11
-11.850000
 20
65.550000
 21
62.550000
  0
LINE
 10
-11.850000
 11
11.850000
 20
62.550000
 21
62.550000
  0
LINE
 10
11.850000
 11
11.850000
 20
62.550000
 21
65.550000
  0
LINE
 10
11.850000
 11
18.850000
 20
65.550000
 21
65.550000
  0
LINE
 10
18.850000
 11
18.850000
 20
65.550000
 21
62.550000
  0
LINE
 10
18.850000
 11
30.700000
 20
62.550000
 21
62.550000
  0
LINE
 10
30.700000
 11
30.700000
 20
62.550000
 21
56.525000
  0
LINE
 10
30.700000
 11
33.700000
 20
56.525000
 21
56.525000
  0
LINE
 10
33.700000
 11
33.700000
 20
56.525000
 21
49.525000
  0
LINE
 10
33.700000
 11
30.700000
 20
49.525000
 21
49.525000
  0
LINE
 10
30.700000
 11
30.700000
 20
49.525000
 21
43.500000
  0
LINE
 10
30.700000
 11
18.850000
 20
43.500000
 21
43.500000
  0
LINE
 10
18.850000
 11
18.850000
 20
43.500000
 21
40.500000
  0
LINE
 10
18.850000
 11
11.850000
 20
40.500000
 21
40.500000
  0
LINE
 10
11.850000
 11
11.850000
 20
40.500000
 21
43.500000
  0
LINE
 10
11.850000
 11
-11.850000
 20
43.500000
 21
43.500000
  0
LINE
 10
-11.850000
 11
-11.850000
 20
43.500000
 21
40.500000
  0
LINE
 10
-11.850000
 11
-18.850000
 20
40.500000
 21
40.500000
  0
LINE
 10
-18.850000
 11
-18.850000
 20
40.500000
 21
43.500000
  0
LINE
 10
-18.850000
 11
-30.700000
 20
43.500000
 21
43.500000
  0
LINE
 10
-30.700000
 11
-30.700000
 20
43.500000
 21
49.525000
  0
LINE
 10
-30.700000
 11
-33.700000
 20
49.525000
 21
49.525000
  0
LINE
 10
-30.665000
 11
-30.665000
 20
-7.160000
 21
5.790000
  0
LINE
 10
-30.665000
 11
30.665000
 20
5.790000
 21
5.790000
  0
LINE
 10
30.665000
 11
30.665000
 20
5.790000
 21
-7.160000
  0
LINE
 10
30.665000
 11
-30.665000
 20
-7.160000
 21
-7.160000
  0
LINE
 10
-28.154000
 11
-28.145000
 20
-123.373000
 21
-123.232000
  0
LINE
 10
-28.145000
 11
-28.118000
 20
-123.232000
 21
-123.092000
  0
LINE
 10
-28.118000
 11
-28.074000
 20
-123.092000
 21
-122.957000
  0
LINE
 10
-28.074000
 11
-28.014000
 20
-122.957000
 21
-122.829000
  0
LINE
 10
-28.014000
 11
-27.938000
 20
-122.829000
 21
-122.709000
  0
LINE
 10
-27.938000
 11
-27.847000
 20
-122.709000
 21
-122.600000
  0
LINE
 10
-27.847000
 11
-27.744000
 20
-122.600000
 21
-122.502000
  0
LINE
 10
-27.744000
 11
-27.629000
 20
-122.502000
 21
-122.419000
  0
LINE
 10
-27.629000
 11
-27.505000
 20
-122.419000
 21
-122.351000
  0
LINE
 10
-27.505000
 11
-27.373000
 20
-122.351000
 21
-122.298000
  0
LINE
 10
-27.373000
 11
-27.235000
 20
-122.298000
 21
-122.263000
  0
LINE
 10
-27.235000
 11
-27.094000
 20
-122.263000
 21
-122.245000
  0
LINE
 10
-27.094000
 11
-26.952000
 20
-122.245000
 21
-122.245000
  0
LINE
 10
-26.952000
 11
-26.812000
 20
-122.245000
 21
-122.263000
  0
LINE
 10
-26.812000
 11
-26.674000
 20
-122.263000
 21
-122.298000
  0
LINE
 10
-26.674000
 11
-26.542000
 20
-122.298000
 21
-122.351000
  0
LINE
 10
-26.542000
 11
-26.418000
 20
-122.351000
 21
-122.419000
  0
LINE
 10
-26.418000
 11
-26.303000
 20
-122.419000
 21
-122.502000
  0
LINE
 10
-26.303000
 11
-26.199000
 20
-122.502000
 21
-122.600000
  0
LINE
 10
-26.199000
 11
-26.109000
 20
-122.600000
 21
-122.709000
  0
LINE
 10
-26.109000
 11
-26.033000
 20
-122.709000
 21
-122.829000
  0
LINE
 10
-26.033000
 11
-25.972000
 20
-122.829000
 21
-122.957000
  0
LINE
 10
-25.972000
 11
-25.929000
 20
-122.957000
 21
-123.092000
  0
LINE
 10
-25.929000
 11
-25.902000
 20
-123.092000
 21
-123.232000
  0
LINE
 10
-25.902000
 11
-25.893000
 20
-123.232000
 21
-123.373000
  0
LINE
 10
-25.893000
 11
-25.902000
 20
-123.373000
 21
-123.515000
  0
LINE
 10
-25.902000
 11
-25.929000
 20
-123.515000
 21
-123.654000
  0
LINE
 10
-25.929000
 11
-25.972000
 20
-123.654000
 21
-123.789000
  0
LINE
 10
-25.972000
 11
-26.033000
 20
-123.789000
 21
-123.918000
  0
LINE
 10
-26.033000
 11
-26.109000
 20
-123.918000
 21
-124.038000
  0
LINE
 10
-26.109000
 11
-26.199000
 20
-124.038000
 21
-124.147000
  0
LINE
 10
-26.199000
 11
-26.303000
 20
-124.147000
 21
-124.244000
  0
LINE
 10
-26.303000
 11
-26.418000
 20
-124.244000
 21
-124.328000
  0
LINE
 10
-26.418000
 11
-26.542000
 20
-124.328000
 21
-124.396000
  0
LINE
 10
-26.542000
 11
-26.674000
 20
-124.396000
 21
-124.448000
  0
LINE
 10
-26.674000
 11
-26.812000
 20
-124.448000
 21
-124.484000
  0
LINE
 10
-26.812000
 11
-26.952000
 20
-124.484000
 21
-124.501000
  0
LINE
 10
-26.952000
 11
-27.094000
 20
-124.501000
 21
-124.501000
  0
LINE
 10
-27.094000
 11
-27.235000
 20
-124.501000
 21
-124.484000
  0
LINE
 10
-27.235000
 11
-27.373000
 20
-124.484000
 21
-124.448000
  0
LINE
 10
-27.373000
 11
-27.505000
 20
-124.448000
 21
-124.396000
  0
LINE
 10
-27.505000
 11
-27.629000
 20
-124.396000
 21
-124.328000
  0
LINE
 10
-27.629000
 11
-27.744000
 20
-124.328000
 21
-124.244000
  0
LINE
 10
-27.744000
 11
-27.847000
 20
-124.244000
 21
-124.147000
  0
LINE
 10
-27.847000
 11
-27.938000
 20
-124.147000
 21
-124.038000
  0
LINE
 10
-27.938000
 11
-28.014000
 20
-124.038000
 21
-123.918000
  0
LINE
 10
-28.014000
 11
-28.074000
 20
-123.918000
 21
-123.789000
  0
LINE
 10
-28.074000
 11
-28.118000
 20
-123.789000
 21
-123.654000
  0
LINE
 10
-28.118000
 11
-28.145000
 20
-123.654000
 21
-123.515000
  0
LINE
 10
-28.145000
 11
-28.154000
 20
-123.515000
 21
-123.373000
  0
LINE
 10
-28.154000
 11
-28.145000
 20
-85.727000
 21
-85.585000
  0
LINE
 10
-28.145000
 11
-28.118000
 20
-85.585000
 21
-85.446000
  0
LINE
 10
-28.118000
 11
-28.074000
 20
-85.446000
 21
-85.311000
  0
LINE
 10
-28.074000
 11
-28.014000
 20
-85.311000
 21
-85.182000
  0
LINE
 10
-28.014000
 11
-27.938000
 20
-85.182000
 21
-85.062000
  0
LINE
 10
-27.938000
 11
-27.847000
 20
-85.062000
 21
-84.953000
  0
LINE
 10
-27.847000
 11
-27.744000
 20
-84.953000
 21
-84.856000
  0
LINE
 10
-27.744000
 11
-27.629000
 20
-84.856000
 21
-84.772000
  0
LINE
 10
-27.629000
 11
-27.505000
 20
-84.772000
 21
-84.704000
  0
LINE
 10
-27.505000
 11
-27.373000
 20
-84.704000
 21
-84.652000
  0
LINE
 10
-27.373000
 11
-27.235000
 20
-84.652000
 21
-84.616000
  0
LINE
 10
-27.235000
 11
-27.094000
 20
-84.616000
 21
-84.599000
  0
LINE
 10
-27.094000
 11
-26.952000
 20
-84.599000
 21
-84.599000
  0
LINE
 10
-26.952000
 11
-26.812000
 20
-84.599000
 21
-84.616000
  0
LINE
 10
-26.812000
 11
-26.674000
 20
-84.616000
 21
-84.652000
  0
LINE
 10
-26.674000
 11
-26.542000
 20
-84.652000
 21
-84.704000
  0
LINE
 10
-26.542000
 11
-26.418000
 20
-84.704000
 21
-84.772000
  0
LINE
 10
-26.418000
 11
-26.303000
 20
-84.772000
 21
-84.856000
  0
LINE
 10
-26.303000
 11
-26.199000
 20
-84.856000
 21
-84.953000
  0
LINE
 10
-26.199000
 11
-26.109000
 20
-84.953000
 21
-85.062000
  0
LINE
 10
-26.109000
 11
-26.033000
 20
-85.062000
 21
-85.182000
  0
LINE
 10
-26.033000
 11
-25.972000
 20
-85.182000
 21
-85.311000
  0
LINE
 10
-25.972000
 11
-25.929000
 20
-85.311000
 21
-85.446000
  0
LINE
 10
-25.929000
 11
-25.902000
 20
-85.446000
 21
-85.585000
  0
LINE
 10
-25.902000
 11
-25.893000
 20
-85.585000
 21
-85.727000
  0
LINE
 10
-25.893000
 11
-25.902000
 20
-85.727000
 21
-85.868000
  0
LINE
 10
-25.902000
 11
-25.929000
 20
-85.868000
 21
-86.008000
  0
LINE
 10
-25.929000
 11
-25.972000
 20
-86.008000
 21
-86.143000
  0
LINE
 10
-25.972000
 11
-26.033000
 20
-86.143000
 21
-86.271000
  0
LINE
 10
-26.033000
 11
-26.109000
 20
-86.271000
 21
-86.391000
  0
LINE
 10
-26.109000
 11
-26.199000
 20
-86.391000
 21
-86.500000
  0
LINE
 10
-26.199000
 11
-26.303000
 20
-86.500000
 21
-86.598000
  0
LINE
 10
-26.303000
 11
-26.418000
 20
-86.598000
 21
-86.681000
  0
LINE
 10
-26.418000
 11
-26.542000
 20
-86.681000
 21
-86.749000
  0
LINE
 10
-26.542000
 11
-26.674000
 20
-86.749000
 21
-86.802000
  0
LINE
 10
-26.674000
 11
-26.812000
 20
-86.802000
 21
-86.837000
  0
LINE
 10
-26.812000
 11
-26.952000
 20
-86.837000
 21
-86.855000
  0
LINE
 10
-26.952000
 11
-27.094000
 20
-86.855000
 21
-86.855000
  0
LINE
 10
-27.094000
 11
-27.235000
 20
-86.855000
 21
-86.837000
  0
LINE
 10
-27.235000
 11
-27.373000
 20
-86.837000
 21
-86.802000
  0
LINE
 10
-27.373000
 11
-27.505000
 20
-86.802000
 21
-86.749000
  0
LINE
 10
-27.505000
 11
-27.629000
 20
-86.749000
 21
-86.681000
  0
LINE
 10
-27.629000
 11
-27.744000
 20
-86.681000
 21
-86.598000
  0
LINE
 10
-27.744000
 11
-27.847000
 20
-86.598000
 21
-86.500000
  0
LINE
 10
-27.847000
 11
-27.938000
 20
-86.500000
 21
-86.391000
  0
LINE
 10
-27.938000
 11
-28.014000
 20
-86.391000
 21
-86.271000
  0
LINE
 10
-28.014000
 11
-28.074000
 20
-86.271000
 21
-86.143000
  0
LINE
 10
-28.074000
 11
-28.118000
 20
-86.143000
 21
-86.008000
  0
LINE
 10
-28.118000
 11
-28.145000
 20
-86.008000
 21
-85.868000
  0
LINE
 10
-28.145000
 11
-28.154000
 20
-85.868000
 21
-85.727000
  0
LINE
 10
-28.154000
 11
-28.145000
 20
-18.823000
 21
-18.682000
  0
LINE
 10
-28.145000
 11
-28.118000
 20
-18.682000
 21
-18.542000
  0
LINE
 10
-28.118000
 11
-28.074000
 20
-18.542000
 21
-18.407000
  0
LINE
 10
-28.074000
 11
-28.014000
 20
-18.407000
 21
-18.279000
  0
LINE
 10
-28.014000
 11
-27.938000
 20
-18.279000
 21
-18.159000
  0
LINE
 10
-27.938000
 11
-27.847000
 20
-18.159000
 21
-18.050000
  0
LINE
 10
-27.847000
 11
-27.744000
 20
-18.050000
 21
-17.952000
  0
LINE
 10
-27.744000
 11
-27.629000
 20
-17.952000
 21
-17.869000
  0
LINE
 10
-27.629000
 11
-27.505000
 20
-17.869000
 21
-17.801000
  0
LINE
 10
-27.505000
 11
-27.373000
 20
-17.801000
 21
-17.748000
  0
LINE
 10
-27.373000
 11
-27.235000
 20
-17.748000
 21
-17.713000
  0
LINE
 10
-27.235000
 11
-27.094000
 20
-17.713000
 21
-17.695000
  0
LINE
 10
-27.094000
 11
-26.952000
 20
-17.695000
 21
-17.695000
  0
LINE
 10
-26.952000
 11
-26.812000
 20
-17.695000
 21
-17.713000
  0
LINE
 10
-26.812000
 11
-26.674000
 20
-17.713000
 21
-17.748000
  0
LINE
 10
-26.674000
 11
-26.542000
 20
-17.748000
 21
-17.801000
  0
LINE
 10
-26.542000
 11
-26.418000
 20
-17.801000
 21
-17.869000
  0
LINE
 10
-26.418000
 11
-26.303000
 20
-17.869000
 21
-17.952000
  0
LINE
 10
-26.303000
 11
-26.199000
 20
-17.952000
 21
-18.050000
  0
LINE
 10
-26.199000
 11
-26.109000
 20
-18.050000
 21
-18.159000
  0
LINE
 10
-26.109000
 11
-26.033000
 20
-18.159000
 21
-18.279000
  0
LINE
 10
-26.033000
 11
-25.972000
 20
-18.279000
 21
-18.407000
  0
LINE
 10
-25.972000
 11
-25.929000
 20
-18.407000
 21
-18.542000
  0
LINE
 10
-25.929000
 11
-25.902000
 20
-18.542000
 21
-18.682000
  0
LINE
 10
-25.902000
 11
-25.893000
 20
-18.682000
 21
-18.823000
  0
LINE
 10
-25.893000
 11
-25.902000
 20
-18.823000
 21
-18.965000
  0
LINE
 10
-25.902000
 11
-25.929000
 20
-18.965000
 21
-19.104000
  0
LINE
 10
-25.929000
 11
-25.972000
 20
-19.104000
 21
-19.239000
  0
LINE
 10
-25.972000
 11
-26.033000
 20
-19.239000
 21
-19.368000
  0
LINE
 10
-26.033000
 11
-26.109000
 20
-19.368000
 21
-19.488000
  0
LINE
 10
-26.109000
 11
-26.199000
 20
-19.488000
 21
-19.597000
  0
LINE
 10
-26.199000
 11
-26.303000
 20
-19.597000
 21
-19.694000
  0
LINE
 10
-26.303000
 11
-26.418000
 20
-19.694000
 21
-19.778000
  0
LINE
 10
-26.418000
 11
-26.542000
 20
-19.778000
 21
-19.846000
  0
LINE
 10
-26.542000
 11
-26.674000
 20
-19.846000
 21
-19.898000
  0
LINE
 10
-26.674000
 11
-26.812000
 20
-19.898000
 21
-19.934000
  0
LINE
 10
-26.812000
 11
-26.952000
 20
-19.934000
 21
-19.951000
  0
LINE
 10
-26.952000
 11
-27.094000
 20
-19.951000
 21
-19.951000
  0
LINE
 10
-27.094000
 11
-27.235000
 20
-19.951000
 21
-19.934000
  0
LINE
 10
-27.235000
 11
-27.373000
 20
-19.934000
 21
-19.898000
  0
LINE
 10
-27.373000
 11
-27.505000
 20
-19.898000
 21
-19.846000
  0
LINE
 10
-27.505000
 11
-27.629000
 20
-19.846000
 21
-19.778000
  0
LINE
 10
-27.629000
 11
-27.744000
 20
-19.778000
 21
-19.694000
  0
LINE
 10
-27.744000
 11
-27.847000
 20
-19.694000
 21
-19.597000
  0
LINE
 10
-27.847000
 11
-27.938000
 20
-19.597000
 21
-19.488000
  0
LINE
 10
-27.938000
 11
-28.014000
 20
-19.488000
 21
-19.368000
  0
LINE
 10
-28.014000
 11
-28.074000
 20
-19.368000
 21
-19.239000
  0
LINE
 10
-28.074000
 11
-28.118000
 20
-19.239000
 21
-19.104000
  0
LINE
 10
-28.118000
 11
-28.145000
 20
-19.104000
 21
-18.965000
  0
LINE
 10
-28.145000
 11
-28.154000
 20
-18.965000
 21
-18.823000
  0
LINE
 10
-28.154000
 11
-28.145000
 20
18.823000
 21
18.965000
  0
LINE
 10
-28.145000
 11
-28.118000
 20
18.965000
 21
19.104000
  0
LINE
 10
-28.118000
 11
-28.074000
 20
19.104000
 21
19.239000
  0
LINE
 10
-28.074000
 11
-28.014000
 20
19.239000
 21
19.368000
  0
LINE
 10
-28.014000
 11
-27.938000
 20
19.368000
 21
19.488000
  0
LINE
 10
-27.938000
 11
-27.847000
 20
19.488000
 21
19.597000
  0
LINE
 10
-27.847000
 11
-27.744000
 20
19.597000
 21
19.694000
  0
LINE
 10
-27.744000
 11
-27.629000
 20
19.694000
 21
19.778000
  0
LINE
 10
-27.629000
 11
-27.505000
 20
19.778000
 21
19.846000
  0
LINE
 10
-27.505000
 11
-27.373000
 20
19.846000
 21
19.898000
  0
LINE
 10
-27.373000
 11
-27.235000
 20
19.898000
 21
19.934000
  0
LINE
 10
-27.235000
 11
-27.094000
 20
19.934000
 21
19.951000
  0
LINE
 10
-27.094000
 11
-26.952000
 20
19.951000
 21
19.951000
  0
LINE
 10
-26.952000
 11
-26.812000
 20
19.951000
 21
19.934000
  0
LINE
 10
-26.812000
 11
-26.674000
 20
19.934000
 21
19.898000
  0
LINE
 10
-26.674000
 11
-26.542000
 20
19.898000
 21
19.846000
  0
LINE
 10
-26.542000
 11
-26.418000
 20
19.846000
 21
19.778000
  0
LINE
 10
-26.418000
 11
-26.303000
 20
19.778000
 21
19.694000
  0
LINE
 10
-26.303000
 11
-26.199000
 20
19.694000
 21
19.597000
  0
LINE
 10
-26.199000
 11
-26.109000
 20
19.597000
 21
19.488000
  0
LINE
 10
-26.109000
 11
-26.033000
 20
19.488000
 21
19.368000
  0
LINE
 10
-26.033000
 11
-25.972000
 20
19.368000
 21
19.239000
  0
LINE
 10
-25.972000
 11
-25.929000
 20
19.239000
 21
19.104000
  0
LINE
 10
-25.929000
 11
-25.902000
 20
19.104000
 21
18.965000
  0
LINE
 10
-25.902000
 11
-25.893000
 20
18.965000
 21
18.823000
  0
LINE
 10
-25.893000
 11
-25.902000
 20
18.823000
 21
18.682000
  0
LINE
 10
-25.902000
 11
-25.929000
 20
18.682000
 21
18.542000
  0
LINE
 10
-25.929000
 11
-25.972000
 20
18.542000
 21
18.407000
  0
LINE
 10
-25.972000
 11
-26.033000
 20
18.407000
 21
18.279000
  0
LINE
 10
-26.033000
 11
-26.109000
 20
18.279000
 21
18.159000
  0
LINE
 10
-26.109000
 11
-26.199000
 20
18.159000
 21
18.050000
  0
LINE
 10
-26.199000
 11
-26.303000
 20
18.050000
 21
17.952000
  0
LINE
 10
-26.303000
 11
-26.418000
 20
17.952000
 21
17.869000
  0
LINE
 10
-26.418000
 11
-26.542000
 20
17.869000
 21
17.801000
  0
LINE
 10
-26.542000
 11
-26.674000
 20
17.801000
 21
17.748000
  0
LINE
 10
-26.674000
 11
-26.812000
 20
17.748000
 21
17.713000
  0
LINE
 10
-26.812000
 11
-26.952000
 20
17.713000
 21
17.695000
  0
LINE
 10
-26.952000
 11
-27.094000
 20
17.695000
 21
17.695000
  0
LINE
 10
-27.094000
 11
-27.235000
 20
17.695000
 21
17.713000
  0
LINE
 10
-27.235000
 11
-27.373000
 20
17.713000
 21
17.748000
  0
LINE
 10
-27.373000
 11
-27.505000
 20
17.748000
 21
17.801000
  0
LINE
 10
-27.505000
 11
-27.629000
 20
17.801000
 21
17.869000
  0
LINE
 10
-27.629000
 11
-27.744000
 20
17.869000
 21
17.952000
  0
LINE
 10
-27.744000
 11
-27.847000
 20
17.952000
 21
18.050000
  0
LINE
 10
-27.847000
 11
-27.938000
 20
18.050000
 21
18.159000
  0
LINE
 10
-27.938000
 11
-28.014000
 20
18.159000
 21
18.279000
  0
LINE
 10
-28.014000
 11
-28.074000
 20
18.279000
 21
18.407000
  0
LINE
 10
-28.074000
 11
-28.118000
 20
18.407000
 21
18.542000
  0
LINE
 10
-28.118000
 11
-28.145000
 20
18.542000
 21
18.682000
  0
LINE
 10
-28.145000
 11
-28.154000
 20
18.682000
 21
18.823000
  0
LINE
 10
-27.604000
 11
-27.598000
 20
-9.390000
 21
-9.288000
  0
LINE
 10
-27.598000
 11
-27.578000
 20
-9.288000
 21
-9.188000
  0
LINE
 10
-27.578000
 11
-27.547000
 20
-9.188000
 21
-9.090000
  0
LINE
 10
-27.547000
 11
-27.503000
 20
-9.090000
 21
-8.998000
  0
LINE
 10
-27.503000
 11
-27.449000
 20
-8.998000
 21
-8.912000
  0
LINE
 10
-27.449000
 11
-27.383000
 20
-8.912000
 21
-8.833000
  0
LINE
 10
-27.383000
 11
-27.309000
 20
-8.833000
 21
-8.763000
  0
LINE
 10
-27.309000
 11
-27.226000
 20
-8.763000
 21
-8.703000
  0
LINE
 10
-27.226000
 11
-27.137000
 20
-8.703000
 21
-8.653000
  0
LINE
 10
-27.137000
 11
-27.042000
 20
-8.653000
 21
-8.616000
  0
LINE
 10
-27.042000
 11
-26.943000
 20
-8.616000
 21
-8.590000
  0
LINE
 10
-26.943000
 11
-26.841000
 20
-8.590000
 21
-8.578000
  0
LINE
 10
-26.841000
 11
-26.739000
 20
-8.578000
 21
-8.578000
  0
LINE
 10
-26.739000
 11
-26.637000
 20
-8.578000
 21
-8.590000
  0
LINE
 10
-26.637000
 11
-26.538000
 20
-8.590000
 21
-8.616000
  0
LINE
 10
-26.538000
 11
-26.443000
 20
-8.616000
 21
-8.653000
  0
LINE
 10
-26.443000
 11
-26.354000
 20
-8.653000
 21
-8.703000
  0
LINE
 10
-26.354000
 11
-26.271000
 20
-8.703000
 21
-8.763000
  0
LINE
 10
-26.271000
 11
-26.197000
 20
-8.763000
 21
-8.833000
  0
LINE
 10
-26.197000
 11
-26.131000
 20
-8.833000
 21
-8.912000
  0
LINE
 10
-26.131000
 11
-26.077000
 20
-8.912000
 21
-8.998000
  0
LINE
 10
-26.077000
 11
-26.033000
 20
-8.998000
 21
-9.090000
  0
LINE
 10
-26.033000
 11
-26.002000
 20
-9.090000
 21
-9.188000
  0
LINE
 10
-26.002000
 11
-25.982000
 20
-9.188000
 21
-9.288000
  0
LINE
 10
-25.982000
 11
-25.976000
 20
-9.288000
 21
-9.390000
  0
LINE
 10
-25.976000
 11
-25.982000
 20
-9.390000
 21
-9.492000
  0
LINE
 10
-25.982000
 11
-26.002000
 20
-9.492000
 21
-9.592000
  0
LINE
 10
-26.002000
 11
-26.033000
 20
-9.592000
 21
-9.690000
  0
LINE
 10
-26.033000
 11
-26.077000
 20
-9.690000
 21
-9.782000
  0
LINE
 10
-26.077000
 11
-26.131000
 20
-9.782000
 21
-9.868000
  0
LINE
 10
-26.131000
 11
-26.197000
 20
-9.868000
 21
-9.947000
  0
LINE
 10
-26.197000
 11
-26.271000
 20
-9.947000
 21
-10.017000
  0
LINE
 10
-26.271000
 11
-26.354000
 20
-10.017000
 21
-10.077000
  0
LINE
 10
-26.354000
 11
-26.443000
 20
-10.077000
 21
-10.127000
  0
LINE
 10
-26.443000
 11
-26.538000
 20
-10.127000
 21
-10.164000
  0
LINE
 10
-26.538000
 11
-26.637000
 20
-10.164000
 21
-10.190000
  0
LINE
 10
-26.637000
 11
-26.739000
 20
-10.190000
 21
-10.202000
  0
LINE
 10
-26.739000
 11
-26.841000
 20
-10.202000
 21
-10.202000
  0
LINE
 10
-26.841000
 11
-26.943000
 20
-10.202000
 21
-10.190000
  0
LINE
 10
-26.943000
 11
-27.042000
 20
-10.190000
 21
-10.164000
  0
LINE
 10
-27.042000
 11
-27.137000
 20
-10.164000
 21
-10.127000
  0
LINE
 10
-27.137000
 11
-27.226000
 20
-10.127000
 21
-10.077000
  0
LINE
 10
-27.226000
 11
-27.309000
 20
-10.077000
 21
-10.017000
  0
LINE
 10
-27.309000
 11
-27.383000
 20
-10.017000
 21
-9.947000
  0
LINE
 10
-27.383000
 11
-27.449000
 20
-9.947000
 21
-9.868000
  0
LINE
 10
-27.449000
 11
-27.503000
 20
-9.868000
 21
-9.782000
  0
LINE
 10
-27.503000
 11
-27.547000
 20
-9.782000
 21
-9.690000
  0
LINE
 10
-27.547000
 11
-27.578000
 20
-9.690000
 21
-9.592000
  0
LINE
 10
-27.578000
 11
-27.598000
 20
-9.592000
 21
-9.492000
  0
LINE
 10
-27.598000
 11
-27.604000
 20
-9.492000
 21
-9.390000
  0
LINE
 10
-27.604000
 11
-27.598000
 20
9.390000
 21
9.492000
  0
LINE
 10
-27.598000
 11
-27.578000
 20
9.492000
 21
9.592000
  0
LINE
 10
-27.578000
 11
-27.547000
 20
9.592000
 21
9.690000
  0
LINE
 10
-27.547000
 11
-27.503000
 20
9.690000
 21
9.782000
  0
LINE
 10
-27.503000
 11
-27.449000
 20
9.782000
 21
9.868000
  0
LINE
 10
-27.449000
 11
-27.383000
 20
9.868000
 21
9.947000
  0
LINE
 10
-27.383000
 11
-27.309000
 20
9.947000
 21
10.017000
  0
LINE
 10
-27.309000
 11
-27.226000
 20
10.017000
 21
10.077000
  0
LINE
 10
-27.226000
 11
-27.137000
 20
10.077000
 21
10.127000
  0
LINE
 10
-27.137000
 11
-27.042000
 20
10.127000
 21
10.164000
  0
LINE
 10
-27.042000
 11
-26.943000
 20
10.164000
 21
10.190000
  0
LINE
 10
-26.943000
 11
-26.841000
 20
10.190000
 21
10.202000
  0
LINE
 10
-26.841000
 11
-26.739000
 20
10.202000
 21
10.202000
  0
LINE
 10
-26.739000
 11
-26.637000
 20
10.202000
 21
10.190000
  0
LINE
 10
-26.637000
 11
-26.538000
 20
10.190000
 21
10.164000
  0
LINE
 10
-26.538000
 11
-26.443000
 20
10.164000
 21
10.127000
  0
LINE
 10
-26.443000
 11
-26.354000
 20
10.127000
 21
10.077000
  0
LINE
 10
-26.354000
 11
-26.271000
 20
10.077000
 21
10.017000
  0
LINE
 10
-26.271000
 11
-26.197000
 20
10.017000
 21
9.947000
  0
LINE
 10
-26.197000
 11
-26.131000
 20
9.947000
 21
9.868000
  0
LINE
 10
-26.131000
 11
-26.077000
 20
9.868000
 21
9.782000
  0
LINE
 10
-26.077000
 11
-26.033000
 20
9.782000
 21
9.690000
  0
LINE
 10
-26.033000
 11
-26.002000
 20
9.690000
 21
9.592000
  0
LINE
 10
-26.002000
 11
-25.982000
 20
9.592000
 21
9.492000
  0
LINE
 10
-25.982000
 11
-25.976000
 20
9.492000
 21
9.390000
  0
LINE
 10
-25.976000
 11
-25.982000
 20
9.390000
 21
9.288000
  0
LINE
 10
-25.982000
 11
-26.002000
 20
9.288000
 21
9.188000
  0
LINE
 10
-26.002000
 11
-26.033000
 20
9.188000
 21
9.090000
  0
LINE
 10
-26.033000
 11
-26.077000
 20
9.090000
 21
8.998000
  0
LINE
 10
-26.077000
 11
-26.131000
 20
8.998000
 21
8.912000
  0
LINE
 10
-26.131000
 11
-26.197000
 20
8.912000
 21
8.833000
  0
LINE
 10
-26.197000
 11
-26.271000
 20
8.833000
 21
8.763000
  0
LINE
 10
-26.271000
 11
-26.354000
 20
8.763000
 21
8.703000
  0
LINE
 10
-26.354000
 11
-26.443000
 20
8.703000
 21
8.653000
  0
LINE
 10
-26.443000
 11
-26.538000
 20
8.653000
 21
8.616000
  0
LINE
 10
-26.538000
 11
-26.637000
 20
8.616000
 21
8.590000
  0
LINE
 10
-26.637000
 11
-26.739000
 20
8.590000
 21
8.578000
  0
LINE
 10
-26.739000
 11
-26.841000
 20
8.578000
 21
8.578000
  0
LINE
 10
-26.841000
 11
-26.943000
 20
8.578000
 21
8.590000
  0
LINE
 10
-26.943000
 11
-27.042000
 20
8.590000
 21
8.616000
  0
LINE
 10
-27.042000
 11
-27.137000
 20
8.616000
 21
8.653000
  0
LINE
 10
-27.137000
 11
-27.226000
 20
8.653000
 21
8.703000
  0
LINE
 10
-27.226000
 11
-27.309000
 20
8.703000
 21
8.763000
  0
LINE
 10
-27.309000
 11
-27.383000
 20
8.763000
 21
8.833000
  0
LINE
 10
-27.383000
 11
-27.449000
 20
8.833000
 21
8.912000
  0
LINE
 10
-27.449000
 11
-27.503000
 20
8.912000
 21
8.998000
  0
LINE
 10
-27.503000
 11
-27.547000
 20
8.998000
 21
9.090000
  0
LINE
 10
-27.547000
 11
-27.578000
 20
9.090000
 21
9.188000
  0
LINE
 10
-27.578000
 11
-27.598000
 20
9.188000
 21
9.288000
  0
LINE
 10
-27.598000
 11
-27.604000
 20
9.288000
 21
9.390000
  0
LINE
 10
-27.504000
 11
-27.498000
 20
-95.660000
 21
-95.558000
  0
LINE
 10
-27.498000
 11
-27.478000
 20
-95.558000
 21
-95.458000
  0
LINE
 10
-27.478000
 11
-27.447000
 20
-95.458000
 21
-95.360000
  0
LINE
 10
-27.447000
 11
-27.403000
 20
-95.360000
 21
-95.268000
  0
LINE
 10
-27.403000
 11
-27.349000
 20
-95.268000
 21
-95.182000
  0
LINE
 10
-27.349000
 11
-27.283000
 20
-95.182000
 21
-95.103000
  0
LINE
 10
-27.283000
 11
-27.209000
 20
-95.103000
 21
-95.033000
  0
LINE
 10
-27.209000
 11
-27.126000
 20
-95.033000
 21
-94.973000
  0
LINE
 10
-27.126000
 11
-27.037000
 20
-94.973000
 21
-94.923000
  0
LINE
 10
-27.037000
 11
-26.942000
 20
-94.923000
 21
-94.886000
  0
LINE
 10
-26.942000
 11
-26.843000
 20
-94.886000
 21
-94.860000
  0
LINE
 10
-26.843000
 11
-26.741000
 20
-94.860000
 21
-94.848000
  0
LINE
 10
-26.741000
 11
-26.639000
 20
-94.848000
 21
-94.848000
  0
LINE
 10
-26.639000
 11
-26.537000
 20
-94.848000
 21
-94.860000
  0
LINE
 10
-26.537000
 11
-26.438000
 20
-94.860000
 21
-94.886000
  0
LINE
 10
-26.438000
 11
-26.343000
 20
-94.886000
 21
-94.923000
  0
LINE
 10
-26.343000
 11
-26.254000
 20
-94.923000
 21
-94.973000
  0
LINE
 10
-26.254000
 11
-26.171000
 20
-94.973000
 21
-95.033000
  0
LINE
 10
-26.171000
 11
-26.097000
 20
-95.033000
 21
-95.103000
  0
LINE
 10
-26.097000
 11
-26.031000
 20
-95.103000
 21
-95.182000
  0
LINE
 10
-26.031000
 11
-25.977000
 20
-95.182000
 21
-95.268000
  0
LINE
 10
-25.977000
 11
-25.933000
 20
-95.268000
 21
-95.360000
  0
LINE
 10
-25.933000
 11
-25.902000
 20
-95.360000
 21
-95.458000
  0
LINE
 10
-25.902000
 11
-25.882000
 20
-95.458000
 21
-95.558000
  0
LINE
 10
-25.882000
 11
-25.876000
 20
-95.558000
 21
-95.660000
  0
LINE
 10
-25.876000
 11
-25.882000
 20
-95.660000
 21
-95.762000
  0
LINE
 10
-25.882000
 11
-25.902000
 20
-95.762000
 21
-95.862000
  0
LINE
 10
-25.902000
 11
-25.933000
 20
-95.862000
 21
-95.960000
  0
LINE
 10
-25.933000
 11
-25.977000
 20
-95.960000
 21
-96.052000
  0
LINE
 10
-25.977000
 11
-26.031000
 20
-96.052000
 21
-96.138000
  0
LINE
 10
-26.031000
 11
-26.097000
 20
-96.138000
 21
-96.217000
  0
LINE
 10
-26.097000
 11
-26.171000
 20
-96.217000
 21
-96.287000
  0
LINE
 10
-26.171000
 11
-26.254000
 20
-96.287000
 21
-96.347000
  0
LINE
 10
-26.254000
 11
-26.343000
 20
-96.347000
 21
-96.397000
  0
LINE
 10
-26.343000
 11
-26.438000
 20
-96.397000
 21
-96.434000
  0
LINE
 10
-26.438000
 11
-26.537000
 20
-96.434000
 21
-96.460000
  0
LINE
 10
-26.537000
 11
-26.639000
 20
-96.460000
 21
-96.472000
  0
LINE
 10
-26.639000
 11
-26.741000
 20
-96.472000
 21
-96.472000
  0
LINE
 10
-26.741000
 11
-26.843000
 20
-96.472000
 21
-96.460000
  0
LINE
 10
-26.843000
 11
-26.942000
 20
-96.460000
 21
-96.434000
  0
LINE
 10
-26.942000
 11
-27.037000
 20
-96.434000
 21
-96.397000
  0
LINE
 10
-27.037000
 11
-27.126000
 20
-96.397000
 21
-96.347000
  0
LINE
 10
-27.126000
 11
-27.209000
 20
-96.347000
 21
-96.287000
  0
LINE
 10
-27.209000
 11
-27.283000
 20
-96.287000
 21
-96.217000
  0
LINE
 10
-27.283000
 11
-27.349000
 20
-96.217000
 21
-96.138000
  0
LINE
 10
-27.349000
 11
-27.403000
 20
-96.138000
 21
-96.052000
  0
LINE
 10
-27.403000
 11
-27.447000
 20
-96.052000
 21
-95.960000
  0
LINE
 10
-27.447000
 11
-27.478000
 20
-95.960000
 21
-95.862000
  0
LINE
 10
-27.478000
 11
-27.498000
 20
-95.862000
 21
-95.762000
  0
LINE
 10
-27.498000
 11
-27.504000
 20
-95.762000
 21
-95.660000
  0
LINE
 10
-18.850000
 11
-18.850000
 20
-130.050000
 21
-127.050000
  0
LINE
 10
-18.850000
 11
-11.850000
 20
-127.050000
 21
-127.050000
  0
LINE
 10
-11.850000
 11
-11.850000
 20
-127.050000
 21
-130.050000
  0
LINE
 10
-11.850000
 11
-18.850000
 20
-130.050000
 21
-130.050000
  0
LINE
 10
-18.850000
 11
-18.850000
 20
-82.050000
 21
-79.050000
  0
LINE
 10
-18.850000
 11
-11.850000
 20
-79.050000
 21
-79.050000
  0
LINE
 10
-11.850000
 11
-11.850000
 20
-79.050000
 21
-82.050000
  0
LINE
 10
-11.850000
 11
-18.850000
 20
-82.050000
 21
-82.050000
  0
LINE
 10
-18.850000
 11
-18.850000
 20
-25.500000
 21
-22.500000
  0
LINE
 10
-18.850000
 11
-11.850000
 20
-22.500000
 21
-22.500000
  0
LINE
 10
-11.850000
 11
-11.850000
 20
-22.500000
 21
-25.500000
  0
LINE
 10
-11.850000
 11
-18.850000
 20
-25.500000
 21
-25.500000
  0
LINE
 10
-18.850000
 11
-18.850000
 20
22.500000
 21
25.500000
  0
LINE
 10
-18.850000
 11
-11.850000
 20
25.500000
 21
25.500000
  0
LINE
 10
-11.850000
 11
-11.850000
 20
25.500000
 21
22.500000
  0
LINE
 10
-11.850000
 11
-18.850000
 20
22.500000
 21
22.500000
  0
LINE
 10
-12.700000
 11
-12.700000
 20
77.550000
 21
102.950000
  0
LINE
 10
-12.700000
 11
12.700000
 20
102.950000
 21
102.950000
  0
LINE
 10
12.700000
 11
12.700000
 20
102.950000
 21
77.550000
  0
LINE
 10
12.700000
 11
-12.700000
 20
77.550000
 21
77.550000
  0
LINE
 10
-3.000000
 11
-3.000000
 20
15.780000
 21
19.780000
  0
LINE
 10
-3.000000
 11
3.000000
 20
19.780000
 21
19.780000
  0
LINE
 10
3.000000
 11
3.000000
 20
19.780000
 21
15.780000
  0
LINE
 10
3.000000
 11
-3.000000
 20
15.780000
 21
15.780000
  0
LINE
 10
11.850000
 11
11.850000
 20
-130.050000
 21
-127.050000
  0
LINE
 10
11.850000
 11
18.850000
 20
-127.050000
 21
-127.050000
  0
LINE
 10
18.850000
 11
18.850000
 20
-127.050000
 21
-130.050000
  0
LINE
 10
18.850000
 11
11.850000
 20
-130.050000
 21
-130.050000
  0
LINE
 10
11.850000
 11
11.850000
 20
-82.050000
 21
-79.050000
  0
LINE
 10
11.850000
 11
18.850000
 20
-79.050000
 21
-79.050000
  0
LINE
 10
18.850000
 11
18.850000
 20
-79.050000
 21
-82.050000
  0
LINE
 10
18.850000
 11
11.850000
 20
-82.050000
 21
-82.050000
  0
LINE
 10
11.850000
 11
11.850000
 20
-25.500000
 21
-22.500000
  0
LINE
 10
11.850000
 11
18.850000
 20
-22.500000
 21
-22.500000
  0
LINE
 10
18.850000
 11
18.850000
 20
-22.500000
 21
-25.500000
  0
LINE
 10
18.850000
 11
11.850000
 20
-25.500000
 21
-25.500000
  0
LINE
 10
11.850000
 11
11.850000
 20
22.500000
 21
25.500000
  0
LINE
 10
11.850000
 11
18.850000
 20
25.500000
 21
25.500000
  0
LINE
 10
18.850000
 11
18.850000
 20
25.500000
 21
22.500000
  0
LINE
 10
18.850000
 11
11.850000
 20
22.500000
 21
22.500000
  0
LINE
 10
25.876000
 11
25.882000
 20
-95.660000
 21
-95.558000
  0
LINE
 10
25.882000
 11
25.902000
 20
-95.558000
 21
-95.458000
  0
LINE
 10
25.902000
 11
25.933000
 20
-95.458000
 21
-95.360000
  0
LINE
 10
25.933000
 11
25.977000
 20
-95.360000
 21
-95.268000
  0
LINE
 10
25.977000
 11
26.031000
 20
-95.268000
 21
-95.182000
  0
LINE
 10
26.031000
 11
26.097000
 20
-95.182000
 21
-95.103000
  0
LINE
 10
26.097000
 11
26.171000
 20
-95.103000
 21
-95.033000
  0
LINE
 10
26.171000
 11
26.254000
 20
-95.033000
 21
-94.973000
  0
LINE
 10
26.254000
 11
26.343000
 20
-94.973000
 21
-94.923000
  0
LINE
 10
26.343000
 11
26.438000
 20
-94.923000
 21
-94.886000
  0
LINE
 10
26.438000
 11
26.537000
 20
-94.886000
 21
-94.860000
  0
LINE
 10
26.537000
 11
26.639000
 20
-94.860000
 21
-94.848000
  0
LINE
 10
26.639000
 11
26.741000
 20
-94.848000
 21
-94.848000
  0
LINE
 10
26.741000
 11
26.843000
 20
-94.848000
 21
-94.860000
  0
LINE
 10
26.843000
 11
26.942000
 20
-94.860000
 21
-94.886000
  0
LINE
 10
26.942000
 11
27.037000
 20
-94.886000
 21
-94.923000
  0
LINE
 10
27.037000
 11
27.126000
 20
-94.923000
 21
-94.973000
  0
LINE
 10
27.126000
 11
27.209000
 20
-94.973000
 21
-95.033000
  0
LINE
 10
27.209000
 11
27.283000
 20
-95.033000
 21
-95.103000
  0
LINE
 10
27.283000
 11
27.349000
 20
-95.103000
 21
-95.182000
  0
LINE
 10
27.349000
 11
27.403000
 20
-95.182000
 21
-95.268000
  0
LINE
 10
27.403000
 11
27.447000
 20
-95.268000
 21
-95.360000
  0
LINE
 10
27.447000
 11
27.478000
 20
-95.360000
 21
-95.458000
  0
LINE
 10
27.478000
 11
27.498000
 20
-95.458000
 21
-95.558000
  0
LINE
 10
27.498000
 11
27.504000
 20
-95.558000
 21
-95.660000
  0
LINE
 10
27.504000
 11
27.498000
 20
-95.660000
 21
-95.762000
  0
LINE
 10
27.498000
 11
27.478000
 20
-95.762000
 21
-95.862000
  0
LINE
 10
27.478000
 11
27.447000
 20
-95.862000
 21
-95.960000
  0
LINE
 10
27.447000
 11
27.403000
 20
-95.960000
 21
-96.052000
  0
LINE
 10
27.403000
 11
27.349000
 20
-96.052000
 21
-96.138000
  0
LINE
 10
27.349000
 11
27.283000
 20
-96.138000
 21
-96.217000
  0
LINE
 10
27.283000
 11
27.209000
 20
-96.217000
 21
-96.287000
  0
LINE
 10
27.209000
 11
27.126000
 20
-96.287000
 21
-96.347000
  0
LINE
 10
27.126000
 11
27.037000
 20
-96.347000
 21
-96.397000
  0
LINE
 10
27.037000
 11
26.942000
 20
-96.397000
 21
-96.434000
  0
LINE
 10
26.942000
 11
26.843000
 20
-96.434000
 21
-96.460000
  0
LINE
 10
26.843000
 11
26.741000
 20
-96.460000
 21
-96.472000
  0
LINE
 10
26.741000
 11
26.639000
 20
-96.472000
 21
-96.472000
  0
LINE
 10
26.639000
 11
26.537000
 20
-96.472000
 21
-96.460000
  0
LINE
 10
26.537000
 11
26.438000
 20
-96.460000
 21
-96.434000
  0
LINE
 10
26.438000
 11
26.343000
 20
-96.434000
 21
-96.397000
  0
LINE
 10
26.343000
 11
26.254000
 20
-96.397000
 21
-96.347000
  0
LINE
 10
26.254000
 11
26.171000
 20
-96.347000
 21
-96.287000
  0
LINE
 10
26.171000
 11
26.097000
 20
-96.287000
 21
-96.217000
  0
LINE
 10
26.097000
 11
26.031000
 20
-96.217000
 21
-96.138000
  0
LINE
 10
26.031000
 11
25.977000
 20
-96.138000
 21
-96.052000
  0
LINE
 10
25.977000
 11
25.933000
 20
-96.052000
 21
-95.960000
  0
LINE
 10
25.933000
 11
25.902000
 20
-95.960000
 21
-95.862000
  0
LINE
 10
25.902000
 11
25.882000
 20
-95.862000
 21
-95.762000
  0
LINE
 10
25.882000
 11
25.876000
 20
-95.762000
 21
-95.660000
  0
LINE
 10
25.893000
 11
25.902000
 20
-123.373000
 21
-123.232000
  0
LINE
 10
25.902000
 11
25.929000
 20
-123.232000
 21
-123.092000
  0
LINE
 10
25.929000
 11
25.972000
 20
-123.092000
 21
-122.957000
  0
LINE
 10
25.972000
 11
26.033000
 20
-122.957000
 21
-122.829000
  0
LINE
 10
26.033000
 11
26.109000
 20
-122.829000
 21
-122.709000
  0
LINE
 10
26.109000
 11
26.199000
 20
-122.709000
 21
-122.600000
  0
LINE
 10
26.199000
 11
26.303000
 20
-122.600000
 21
-122.502000
  0
LINE
 10
26.303000
 11
26.418000
 20
-122.502000
 21
-122.419000
  0
LINE
 10
26.418000
 11
26.542000
 20
-122.419000
 21
-122.351000
  0
LINE
 10
26.542000
 11
26.674000
 20
-122.351000
 21
-122.298000
  0
LINE
 10
26.674000
 11
26.812000
 20
-122.298000
 21
-122.263000
  0
LINE
 10
26.812000
 11
26.952000
 20
-122.263000
 21
-122.245000
  0
LINE
 10
26.952000
 11
27.094000
 20
-122.245000
 21
-122.245000
  0
LINE
 10
27.094000
 11
27.235000
 20
-122.245000
 21
-122.263000
  0
LINE
 10
27.235000
 11
27.373000
 20
-122.263000
 21
-122.298000
  0
LINE
 10
27.373000
 11
27.505000
 20
-122.298000
 21
-122.351000
  0
LINE
 10
27.505000
 11
27.629000
 20
-122.351000
 21
-122.419000
  0
LINE
 10
27.629000
 11
27.744000
 20
-122.419000
 21
-122.502000
  0
LINE
 10
27.744000
 11
27.847000
 20
-122.502000
 21
-122.600000
  0
LINE
 10
27.847000
 11
27.938000
 20
-122.600000
 21
-122.709000
  0
LINE
 10
27.938000
 11
28.014000
 20
-122.709000
 21
-122.829000
  0
LINE
 10
28.014000
 11
28.074000
 20
-122.829000
 21
-122.957000
  0
LINE
 10
28.074000
 11
28.118000
 20
-122.957000
 21
-123.092000
  0
LINE
 10
28.118000
 11
28.145000
 20
-123.092000
 21
-123.232000
  0
LINE
 10
28.145000
 11
28.154000
 20
-123.232000
 21
-123.373000
  0
LINE
 10
28.154000
 11
28.145000
 20
-123.373000
 21
-123.515000
  0
LINE
 10
28.145000
 11
28.118000
 20
-123.515000
 21
-123.654000
  0
LINE
 10
28.118000
 11
28.074000
 20
-123.654000
 21
-123.789000
  0
LINE
 10
28.074000
 11
28.014000
 20
-123.789000
 21
-123.918000
  0
LINE
 10
28.014000
 11
27.938000
 20
-123.918000
 21
-124.038000
  0
LINE
 10
27.938000
 11
27.847000
 20
-124.038000
 21
-124.147000
  0
LINE
 10
27.847000
 11
27.744000
 20
-124.147000
 21
-124.244000
  0
LINE
 10
27.744000
 11
27.629000
 20
-124.244000
 21
-124.328000
  0
LINE
 10
27.629000
 11
27.505000
 20
-124.328000
 21
-124.396000
  0
LINE
 10
27.505000
 11
27.373000
 20
-124.396000
 21
-124.448000
  0
LINE
 10
27.373000
 11
27.235000
 20
-124.448000
 21
-124.484000
  0
LINE
 10
27.235000
 11
27.094000
 20
-124.484000
 21
-124.501000
  0
LINE
 10
27.094000
 11
26.952000
 20
-124.501000
 21
-124.501000
  0
LINE
 10
26.952000
 11
26.812000
 20
-124.501000
 21
-124.484000
  0
LINE
 10
26.812000
 11
26.674000
 20
-124.484000
 21
-124.448000
  0
LINE
 10
26.674000
 11
26.542000
 20
-124.448000
 21
-124.396000
  0
LINE
 10
26.542000
 11
26.418000
 20
-124.396000
 21
-124.328000
  0
LINE
 10
26.418000
 11
26.303000
 20
-124.328000
 21
-124.244000
  0
LINE
 10
26.303000
 11
26.199000
 20
-124.244000
 21
-124.147000
  0
LINE
 10
26.199000
 11
26.109000
 20
-124.147000
 21
-124.038000
  0
LINE
 10
26.109000
 11
26.033000
 20
-124.038000
 21
-123.918000
  0
LINE
 10
26.033000
 11
25.972000
 20
-123.918000
 21
-123.789000
  0
LINE
 10
25.972000
 11
25.929000
 20
-123.789000
 21
-123.654000
  0
LINE
 10
25.929000
 11
25.902000
 20
-123.654000
 21
-123.515000
  0
LINE
 10
25.902000
 11
25.893000
 20
-123.515000
 21
-123.373000
  0
LINE
 10
25.893000
 11
25.902000
 20
-85.727000
 21
-85.585000
  0
LINE
 10
25.902000
 11
25.929000
 20
-85.585000
 21
-85.446000
  0
LINE
 10
25.929000
 11
25.972000
 20
-85.446000
 21
-85.311000
  0
LINE
 10
25.972000
 11
26.033000
 20
-85.311000
 21
-85.182000
  0
LINE
 10
26.033000
 11
26.109000
 20
-85.182000
 21
-85.062000
  0
LINE
 10
26.109000
 11
26.199000
 20
-85.062000
 21
-84.953000
  0
LINE
 10
26.199000
 11
26.303000
 20
-84.953000
 21
-84.856000
  0
LINE
 10
26.303000
 11
26.418000
 20
-84.856000
 21
-84.772000
  0
LINE
 10
26.418000
 11
26.542000
 20
-84.772000
 21
-84.704000
  0
LINE
 10
26.542000
 11
26.674000
 20
-84.704000
 21
-84.652000
  0
LINE
 10
26.674000
 11
26.812000
 20
-84.652000
 21
-84.616000
  0
LINE
 10
26.812000
 11
26.952000
 20
-84.616000
 21
-84.599000
  0
LINE
 10
26.952000
 11
27.094000
 20
-84.599000
 21
-84.599000
  0
LINE
 10
27.094000
 11
27.235000
 20
-84.599000
 21
-84.616000
  0
LINE
 10
27.235000
 11
27.373000
 20
-84.616000
 21
-84.652000
  0
LINE
 10
27.373000
 11
27.505000
 20
-84.652000
 21
-84.704000
  0
LINE
 10
27.505000
 11
27.629000
 20
-84.704000
 21
-84.772000
  0
LINE
 10
27.629000
 11
27.744000
 20
-84.772000
 21
-84.856000
  0
LINE
 10
27.744000
 11
27.847000
 20
-84.856000
 21
-84.953000
  0
LINE
 10
27.847000
 11
27.938000
 20
-84.953000
 21
-85.062000
  0
LINE
 10
27.938000
 11
28.014000
 20
-85.062000
 21
-85.182000
  0
LINE
 10
28.014000
 11
28.074000
 20
-85.182000
 21
-85.311000
  0
LINE
 10
28.074000
 11
28.118000
 20
-85.311000
 21
-85.446000
  0
LINE
 10
28.118000
 11
28.145000
 20
-85.446000
 21
-85.585000
  0
LINE
 10
28.145000
 11
28.154000
 20
-85.585000
 21
-85.727000
  0
LINE
 10
28.154000
 11
28.145000
 20
-85.727000
 21
-85.868000
  0
LINE
 10
28.145000
 11
28.118000
 20
-85.868000
 21
-86.008000
  0
LINE
 10
28.118000
 11
28.074000
 20
-86.008000
 21
-86.143000
  0
LINE
 10
28.074000
 11
28.014000
 20
-86.143000
 21
-86.271000
  0
LINE
 10
28.014000
 11
27.938000
 20
-86.271000
 21
-86.391000
  0
LINE
 10
27.938000
 11
27.847000
 20
-86.391000
 21
-86.500000
  0
LINE
 10
27.847000
 11
27.744000
 20
-86.500000
 21
-86.598000
  0
LINE
 10
27.744000
 11
27.629000
 20
-86.598000
 21
-86.681000
  0
LINE
 10
27.629000
 11
27.505000
 20
-86.681000
 21
-86.749000
  0
LINE
 10
27.505000
 11
27.373000
 20
-86.749000
 21
-86.802000
  0
LINE
 10
27.373000
 11
27.235000
 20
-86.802000
 21
-86.837000
  0
LINE
 10
27.235000
 11
27.094000
 20
-86.837000
 21
-86.855000
  0
LINE
 10
27.094000
 11
26.952000
 20
-86.855000
 21
-86.855000
  0
LINE
 10
26.952000
 11
26.812000
 20
-86.855000
 21
-86.837000
  0
LINE
 10
26.812000
 11
26.674000
 20
-86.837000
 21
-86.802000
  0
LINE
 10
26.674000
 11
26.542000
 20
-86.802000
 21
-86.749000
  0
LINE
 10
26.542000
 11
26.418000
 20
-86.749000
 21
-86.681000
  0
LINE
 10
26.418000
 11
26.303000
 20
-86.681000
 21
-86.598000
  0
LINE
 10
26.303000
 11
26.199000
 20
-86.598000
 21
-86.500000
  0
LINE
 10
26.199000
 11
26.109000
 20
-86.500000
 21
-86.391000
  0
LINE
 10
26.109000
 11
26.033000
 20
-86.391000
 21
-86.271000
  0
LINE
 10
26.033000
 11
25.972000
 20
-86.271000
 21
-86.143000
  0
LINE
 10
25.972000
 11
25.929000
 20
-86.143000
 21
-86.008000
  0
LINE
 10
25.929000
 11
25.902000
 20
-86.008000
 21
-85.868000
  0
LINE
 10
25.902000
 11
25.893000
 20
-85.868000
 21
-85.727000
  0
LINE
 10
25.893000
 11
25.902000
 20
-18.823000
 21
-18.682000
  0
LINE
 10
25.902000
 11
25.929000
 20
-18.682000
 21
-18.542000
  0
LINE
 10
25.929000
 11
25.972000
 20
-18.542000
 21
-18.407000
  0
LINE
 10
25.972000
 11
26.033000
 20
-18.407000
 21
-18.279000
  0
LINE
 10
26.033000
 11
26.109000
 20
-18.279000
 21
-18.159000
  0
LINE
 10
26.109000
 11
26.199000
 20
-18.159000
 21
-18.050000
  0
LINE
 10
26.199000
 11
26.303000
 20
-18.050000
 21
-17.952000
  0
LINE
 10
26.303000
 11
26.418000
 20
-17.952000
 21
-17.869000
  0
LINE
 10
26.418000
 11
26.542000
 20
-17.869000
 21
-17.801000
  0
LINE
 10
26.542000
 11
26.674000
 20
-17.801000
 21
-17.748000
  0
LINE
 10
26.674000
 11
26.812000
 20
-17.748000
 21
-17.713000
  0
LINE
 10
26.812000
 11
26.952000
 20
-17.713000
 21
-17.695000
  0
LINE
 10
26.952000
 11
27.094000
 20
-17.695000
 21
-17.695000
  0
LINE
 10
27.094000
 11
27.235000
 20
-17.695000
 21
-17.713000
  0
LINE
 10
27.235000
 11
27.373000
 20
-17.713000
 21
-17.748000
  0
LINE
 10
27.373000
 11
27.505000
 20
-17.748000
 21
-17.801000
  0
LINE
 10
27.505000
 11
27.629000
 20
-17.801000
 21
-17.869000
  0
LINE
 10
27.629000
 11
27.744000
 20
-17.869000
 21
-17.952000
  0
LINE
 10
27.744000
 11
27.847000
 20
-17.952000
 21
-18.050000
  0
LINE
 10
27.847000
 11
27.938000
 20
-18.050000
 21
-18.159000
  0
LINE
 10
27.938000
 11
28.014000
 20
-18.159000
 21
-18.279000
  0
LINE
 10
28.014000
 11
28.074000
 20
-18.279000
 21
-18.407000
  0
LINE
 10
28.074000
 11
28.118000
 20
-18.407000
 21
-18.542000
  0
LINE
 10
28.118000
 11
28.145000
 20
-18.542000
 21
-18.682000
  0
LINE
 10
28.145000
 11
28.154000
 20
-18.682000
 21
-18.823000
  0
LINE
 10
28.154000
 11
28.145000
 20
-18.823000
 21
-18.965000
  0
LINE
 10
28.145000
 11
28.118000
 20
-18.965000
 21
-19.104000
  0
LINE
 10
28.118000
 11
28.074000
 20
-19.104000
 21
-19.239000
  0
LINE
 10
28.074000
 11
28.014000
 20
-19.239000
 21
-19.368000
  0
LINE
 10
28.014000
 11
27.938000
 20
-19.368000
 21
-19.488000
  0
LINE
 10
27.938000
 11
27.847000
 20
-19.488000
 21
-19.597000
  0
LINE
 10
27.847000
 11
27.744000
 20
-19.597000
 21
-19.694000
  0
LINE
 10
27.744000
 11
27.629000
 20
-19.694000
 21
-19.778000
  0
LINE
 10
27.629000
 11
27.505000
 20
-19.778000
 21
-19.846000
  0
LINE
 10
27.505000
 11
27.373000
 20
-19.846000
 21
-19.898000
  0
LINE
 10
27.373000
 11
27.235000
 20
-19.898000
 21
-19.934000
  0
LINE
 10
27.235000
 11
27.094000
 20
-19.934000
 21
-19.951000
  0
LINE
 10
27.094000
 11
26.952000
 20
-19.951000
 21
-19.951000
  0
LINE
 10
26.952000
 11
26.812000
 20
-19.951000
 21
-19.934000
  0
LINE
 10
26.812000
 11
26.674000
 20
-19.934000
 21
-19.898000
  0
LINE
 10
26.674000
 11
26.542000
 20
-19.898000
 21
-19.846000
  0
LINE
 10
26.542000
 11
26.418000
 20
-19.846000
 21
-19.778000
  0
LINE
 10
26.418000
 11
26.303000
 20
-19.778000
 21
-19.694000
  0
LINE
 10
26.303000
 11
26.199000
 20
-19.694000
 21
-19.597000
  0
LINE
 10
26.199000
 11
26.109000
 20
-19.597000
 21
-19.488000
  0
LINE
 10
26.109000
 11
26.033000
 20
-19.488000
 21
-19.368000
  0
LINE
 10
26.033000
 11
25.972000
 20
-19.368000
 21
-19.239000
  0
LINE
 10
25.972000
 11
25.929000
 20
-19.239000
 21
-19.104000
  0
LINE
 10
25.929000
 11
25.902000
 20
-19.104000
 21
-18.965000
  0
LINE
 10
25.902000
 11
25.893000
 20
-18.965000
 21
-18.823000
  0
LINE
 10
25.893000
 11
25.902000
 20
18.823000
 21
18.965000
  0
LINE
 10
25.902000
 11
25.929000
 20
18.965000
 21
19.104000
  0
LINE
 10
25.929000
 11
25.972000
 20
19.104000
 21
19.239000
  0
LINE
 10
25.972000
 11
26.033000
 20
19.239000
 21
19.368000
  0
LINE
 10
26.033000
 11
26.109000
 20
19.368000
 21
19.488000
  0
LINE
 10
26.109000
 11
26.199000
 20
19.488000
 21
19.597000
  0
LINE
 10
26.199000
 11
26.303000
 20
19.597000
 21
19.694000
  0
LINE
 10
26.303000
 11
26.418000
 20
19.694000
 21
19.778000
  0
LINE
 10
26.418000
 11
26.542000
 20
19.778000
 21
19.846000
  0
LINE
 10
26.542000
 11
26.674000
 20
19.846000
 21
19.898000
  0
LINE
 10
26.674000
 11
26.812000
 20
19.898000
 21
19.934000
  0
LINE
 10
26.812000
 11
26.952000
 20
19.934000
 21
19.951000
  0
LINE
 10
26.952000
 11
27.094000
 20
19.951000
 21
19.951000
  0
LINE
 10
27.094000
 11
27.235000
 20
19.951000
 21
19.934000
  0
LINE
 10
27.235000
 11
27.373000
 20
19.934000
 21
19.898000
  0
LINE
 10
27.373000
 11
27.505000
 20
19.898000
 21
19.846000
  0
LINE
 10
27.505000
 11
27.629000
 20
19.846000
 21
19.778000
  0
LINE
 10
27.629000
 11
27.744000
 20
19.778000
 21
19.694000
  0
LINE
 10
27.744000
 11
27.847000
 20
19.694000
 21
19.597000
  0
LINE
 10
27.847000
 11
27.938000
 20
19.597000
 21
19.488000
  0
LINE
 10
27.938000
 11
28.014000
 20
19.488000
 21
19.368000
  0
LINE
 10
28.014000
 11
28.074000
 20
19.368000
 21
19.239000
  0
LINE
 10
28.074000
 11
28.118000
 20
19.239000
 21
19.104000
  0
LINE
 10
28.118000
 11
28.145000
 20
19.104000
 21
18.965000
  0
LINE
 10
28.145000
 11
28.154000
 20
18.965000
 21
18.823000
  0
LINE
 10
28.154000
 11
28.145000
 20
18.823000
 21
18.682000
  0
LINE
 10
28.145000
 11
28.118000
 20
18.682000
 21
18.542000
  0
LINE
 10
28.118000
 11
28.074000
 20
18.542000
 21
18.407000
  0
LINE
 10
28.074000
 11
28.014000
 20
18.407000
 21
18.279000
  0
LINE
 10
28.014000
 11
27.938000
 20
18.279000
 21
18.159000
  0
LINE
 10
27.938000
 11
27.847000
 20
18.159000
 21
18.050000
  0
LINE
 10
27.847000
 11
27.744000
 20
18.050000
 21
17.952000
  0
LINE
 10
27.744000
 11
27.629000
 20
17.952000
 21
17.869000
  0
LINE
 10
27.629000
 11
27.505000
 20
17.869000
 21
17.801000
  0
LINE
 10
27.505000
 11
27.373000
 20
17.801000
 21
17.748000
  0
LINE
 10
27.373000
 11
27.235000
 20
17.748000
 21
17.713000
  0
LINE
 10
27.235000
 11
27.094000
 20
17.713000
 21
17.695000
  0
LINE
 10
27.094000
 11
26.952000
 20
17.695000
 21
17.695000
  0
LINE
 10
26.952000
 11
26.812000
 20
17.695000
 21
17.713000
  0
LINE
 10
26.812000
 11
26.674000
 20
17.713000
 21
17.748000
  0
LINE
 10
26.674000
 11
26.542000
 20
17.748000
 21
17.801000
  0
LINE
 10
26.542000
 11
26.418000
 20
17.801000
 21
17.869000
  0
LINE
 10
26.418000
 11
26.303000
 20
17.869000
 21
17.952000
  0
LINE
 10
26.303000
 11
26.199000
 20
17.952000
 21
18.050000
  0
LINE
 10
26.199000
 11
26.109000
 20
18.050000
 21
18.159000
  0
LINE
 10
26.109000
 11
26.033000
 20
18.159000
 21
18.279000
  0
LINE
 10
26.033000
 11
25.972000
 20
18.279000
 21
18.407000
  0
LINE
 10
25.972000
 11
25.929000
 20
18.407000
 21
18.542000
  0
LINE
 10
25.929000
 11
25.902000
 20
18.542000
 21
18.682000
  0
LINE
 10
25.902000
 11
25.893000
 20
18.682000
 21
18.823000
  0
LINE
 10
25.976000
 11
25.982000
 20
-9.390000
 21
-9.288000
  0
LINE
 10
25.982000
 11
26.002000
 20
-9.288000
 21
-9.188000
  0
LINE
 10
26.002000
 11
26.033000
 20
-9.188000
 21
-9.090000
  0
LINE
 10
26.033000
 11
26.077000
 20
-9.090000
 21
-8.998000
  0
LINE
 10
26.077000
 11
26.131000
 20
-8.998000
 21
-8.912000
  0
LINE
 10
26.131000
 11
26.197000
 20
-8.912000
 21
-8.833000
  0
LINE
 10
26.197000
 11
26.271000
 20
-8.833000
 21
-8.763000
  0
LINE
 10
26.271000
 11
26.354000
 20
-8.763000
 21
-8.703000
  0
LINE
 10
26.354000
 11
26.443000
 20
-8.703000
 21
-8.653000
  0
LINE
 10
26.443000
 11
26.538000
 20
-8.653000
 21
-8.616000
  0
LINE
 10
26.538000
 11
26.637000
 20
-8.616000
 21
-8.590000
  0
LINE
 10
26.637000
 11
26.739000
 20
-8.590000
 21
-8.578000
  0
LINE
 10
26.739000
 11
26.841000
 20
-8.578000
 21
-8.578000
  0
LINE
 10
26.841000
 11
26.943000
 20
-8.578000
 21
-8.590000
  0
LINE
 10
26.943000
 11
27.042000
 20
-8.590000
 21
-8.616000
  0
LINE
 10
27.042000
 11
27.137000
 20
-8.616000
 21
-8.653000
  0
LINE
 10
27.137000
 11
27.226000
 20
-8.653000
 21
-8.703000
  0
LINE
 10
27.226000
 11
27.309000
 20
-8.703000
 21
-8.763000
  0
LINE
 10
27.309000
 11
27.383000
 20
-8.763000
 21
-8.833000
  0
LINE
 10
27.383000
 11
27.449000
 20
-8.833000
 21
-8.912000
  0
LINE
 10
27.449000
 11
27.503000
 20
-8.912000
 21
-8.998000
  0
LINE
 10
27.503000
 11
27.547000
 20
-8.998000
 21
-9.090000
  0
LINE
 10
27.547000
 11
27.578000
 20
-9.090000
 21
-9.188000
  0
LINE
 10
27.578000
 11
27.598000
 20
-9.188000
 21
-9.288000
  0
LINE
 10
27.598000
 11
27.604000
 20
-9.288000
 21
-9.390000
  0
LINE
 10
27.604000
 11
27.598000
 20
-9.390000
 21
-9.492000
  0
LINE
 10
27.598000
 11
27.578000
 20
-9.492000
 21
-9.592000
  0
LINE
 10
27.578000
 11
27.547000
 20
-9.592000
 21
-9.690000
  0
LINE
 10
27.547000
 11
27.503000
 20
-9.690000
 21
-9.782000
  0
LINE
 10
27.503000
 11
27.449000
 20
-9.782000
 21
-9.868000
  0
LINE
 10
27.449000
 11
27.383000
 20
-9.868000
 21
-9.947000
  0
LINE
 10
27.383000
 11
27.309000
 20
-9.947000
 21
-10.017000
  0
LINE
 10
27.309000
 11
27.226000
 20
-10.017000
 21
-10.077000
  0
LINE
 10
27.226000
 11
27.137000
 20
-10.077000
 21
-10.127000
  0
LINE
 10
27.137000
 11
27.042000
 20
-10.127000
 21
-10.164000
  0
LINE
 10
27.042000
 11
26.943000
 20
-10.164000
 21
-10.190000
  0
LINE
 10
26.943000
 11
26.841000
 20
-10.190000
 21
-10.202000
  0
LINE
 10
26.841000
 11
26.739000
 20
-10.202000
 21
-10.202000
  0
LINE
 10
26.739000
 11
26.637000
 20
-10.202000
 21
-10.190000
  0
LINE
 10
26.637000
 11
26.538000
 20
-10.190000
 21
-10.164000
  0
LINE
 10
26.538000
 11
26.443000
 20
-10.164000
 21
-10.127000
  0
LINE
 10
26.443000
 11
26.354000
 20
-10.127000
 21
-10.077000
  0
LINE
 10
26.354000
 11
26.271000
 20
-10.077000
 21
-10.017000
  0
LINE
 10
26.271000
 11
26.197000
 20
-10.017000
 21
-9.947000
  0
LINE
 10
26.197000
 11
26.131000
 20
-9.947000
 21
-9.868000
  0
LINE
 10
26.131000
 11
26.077000
 20
-9.868000
 21
-9.782000
  0
LINE
 10
26.077000
 11
26.033000
 20
-9.782000
 21
-9.690000
  0
LINE
 10
26.033000
 11
26.002000
 20
-9.690000
 21
-9.592000
  0
LINE
 10
26.002000
 11
25.982000
 20
-9.592000
 21
-9.492000
  0
LINE
 10
25.982000
 11
25.976000
 20
-9.492000
 21
-9.390000
  0
LINE
 10
25.976000
 11
25.982000
 20
9.390000
 21
9.492000
  0
LINE
 10
25.982000
 11
26.002000
 20
9.492000
 21
9.592000
  0
LINE
 10
26.002000
 11
26.033000
 20
9.592000
 21
9.690000
  0
LINE
 10
26.033000
 11
26.077000
 20
9.690000
 21
9.782000
  0
LINE
 10
26.077000
 11
26.131000
 20
9.782000
 21
9.868000
  0
LINE
 10
26.131000
 11
26.197000
 20
9.868000
 21
9.947000
  0
LINE
 10
26.197000
 11
26.271000
 20
9.947000
 21
10.017000
  0
LINE
 10
26.271000
 11
26.354000
 20
10.017000
 21
10.077000
  0
LINE
 10
26.354000
 11
26.443000
 20
10.077000
 21
10.127000
  0
LINE
 10
26.443000
 11
26.538000
 20
10.127000
 21
10.164000
  0
LINE
 10
26.538000
 11
26.637000
 20
10.164000
 21
10.190000
  0
LINE
 10
26.637000
 11
26.739000
 20
10.190000
 21
10.202000
  0
LINE
 10
26.739000
 11
26.841000
 20
10.202000
 21
10.202000
  0
LINE
 10
26.841000
 11
26.943000
 20
10.202000
 21
10.190000
  0
LINE
 10
26.943000
 11
27.042000
 20
10.190000
 21
10.164000
  0
LINE
 10
27.042000
 11
27.137000
 20
10.164000
 21
10.127000
  0
LINE
 10
27.137000
 11
27.226000
 20
10.127000
 21
10.077000
  0
LINE
 10
27.226000
 11
27.309000
 20
10.077000
 21
10.017000
  0
LINE
 10
27.309000
 11
27.383000
 20
10.017000
 21
9.947000
  0
LINE
 10
27.383000
 11
27.449000
 20
9.947000
 21
9.868000
  0
LINE
 10
27.449000
 11
27.503000
 20
9.868000
 21
9.782000
  0
LINE
 10
27.503000
 11
27.547000
 20
9.782000
 21
9.690000
  0
LINE
 10
27.547000
 11
27.578000
 20
9.690000
 21
9.592000
  0
LINE
 10
27.578000
 11
27.598000
 20
9.592000
 21
9.492000
  0
LINE
 10
27.598000
 11
27.604000
 20
9.492000
 21
9.390000
  0
LINE
 10
27.604000
 11
27.598000
 20
9.390000
 21
9.288000
  0
LINE
 10
27.598000
 11
27.578000
 20
9.288000
 21
9.188000
  0
LINE
 10
27.578000
 11
27.547000
 20
9.188000
 21
9.090000
  0
LINE
 10
27.547000
 11
27.503000
 20
9.090000
 21
8.998000
  0
LINE
 10
27.503000
 11
27.449000
 20
8.998000
 21
8.912000
  0
LINE
 10
27.449000
 11
27.383000
 20
8.912000
 21
8.833000
  0
LINE
 10
27.383000
 11
27.309000
 20
8.833000
 21
8.763000
  0
LINE
 10
27.309000
 11
27.226000
 20
8.763000
 21
8.703000
  0
LINE
 10
27.226000
 11
27.137000
 20
8.703000
 21
8.653000
  0
LINE
 10
27.137000
 11
27.042000
 20
8.653000
 21
8.616000
  0
LINE
 10
27.042000
 11
26.943000
 20
8.616000
 21
8.590000
  0
LINE
 10
26.943000
 11
26.841000
 20
8.590000
 21
8.578000
  0
LINE
 10
26.841000
 11
26.739000
 20
8.578000
 21
8.578000
  0
LINE
 10
26.739000
 11
26.637000
 20
8.578000
 21
8.590000
  0
LINE
 10
26.637000
 11
26.538000
 20
8.590000
 21
8.616000
  0
LINE
 10
26.538000
 11
26.443000
 20
8.616000
 21
8.653000
  0
LINE
 10
26.443000
 11
26.354000
 20
8.653000
 21
8.703000
  0
LINE
 10
26.354000
 11
26.271000
 20
8.703000
 21
8.763000
  0
LINE
 10
26.271000
 11
26.197000
 20
8.763000
 21
8.833000
  0
LINE
 10
26.197000
 11
26.131000
 20
8.833000
 21
8.912000
  0
LINE
 10
26.131000
 11
26.077000
 20
8.912000
 21
8.998000
  0
LINE
 10
26.077000
 11
26.033000
 20
8.998000
 21
9.090000
  0
LINE
 10
26.033000
 11
26.002000
 20
9.090000
 21
9.188000
  0
LINE
 10
26.002000
 11
25.982000
 20
9.188000
 21
9.288000
  0
LINE
 10
25.982000
 11
25.976000
 20
9.288000
 21
9.390000
  0
LINE
 10
30.700000
 11
30.700000
 20
-120.800000
 21
-113.800000
  0
LINE
 10
30.700000
 11
33.700000
 20
-113.800000
 21
-113.800000
  0
LINE
 10
33.700000
 11
33.700000
 20
-113.800000
 21
-120.800000
  0
LINE
 10
33.700000
 11
30.700000
 20
-120.800000
 21
-120.800000
  0
LINE
 10
30.700000
 11
30.700000
 20
-95.300000
 21
-88.300000
  0
LINE
 10
30.700000
 11
33.700000
 20
-88.300000
 21
-88.300000
  0
LINE
 10
33.700000
 11
33.700000
 20
-88.300000
 21
-95.300000
  0
LINE
 10
33.700000
 11
30.700000
 20
-95.300000
 21
-95.300000
  0
LINE
 10
30.700000
 11
30.700000
 20
-16.250000
 21
-9.250000
  0
LINE
 10
30.700000
 11
33.700000
 20
-9.250000
 21
-9.250000
  0
LINE
 10
33.700000
 11
33.700000
 20
-9.250000
 21
-16.250000
  0
LINE
 10
33.700000
 11
30.700000
 20
-16.250000
 21
-16.250000
  0
LINE
 10
30.700000
 11
30.700000
 20
9.250000
 21
16.250000
  0
LINE
 10
30.700000
 11
33.700000
 20
16.250000
 21
16.250000
  0
LINE
 10
33.700000
 11
33.700000
 20
16.250000
 21
9.250000
  0
LINE
 10
33.700000
 11
30.700000
 20
9.250000
 21
9.250000
  0
LINE
 10
36.176000
 11
36.188000
 20
-3.000000
 21
-2.809000
  0
LINE
 10
36.188000
 11
36.224000
 20
-2.809000
 21
-2.621000
  0
LINE
 10
36.224000
 11
36.283000
 20
-2.621000
 21
-2.439000
  0
LINE
 10
36.283000
 11
36.365000
 20
-2.439000
 21
-2.266000
  0
LINE
 10
36.365000
 11
36.467000
 20
-2.266000
 21
-2.104000
  0
LINE
 10
36.467000
 11
36.589000
 20
-2.104000
 21
-1.957000
  0
LINE
 10
36.589000
 11
36.729000
 20
-1.957000
 21
-1.826000
  0
LINE
 10
36.729000
 11
36.883000
 20
-1.826000
 21
-1.713000
  0
LINE
 10
36.883000
 11
37.051000
 20
-1.713000
 21
-1.621000
  0
LINE
 10
37.051000
 11
37.229000
 20
-1.621000
 21
-1.551000
  0
LINE
 10
37.229000
 11
37.414000
 20
-1.551000
 21
-1.503000
  0
LINE
 10
37.414000
 11
37.604000
 20
-1.503000
 21
-1.479000
  0
LINE
 10
37.604000
 11
37.796000
 20
-1.479000
 21
-1.479000
  0
LINE
 10
37.796000
 11
37.986000
 20
-1.479000
 21
-1.503000
  0
LINE
 10
37.986000
 11
38.171000
 20
-1.503000
 21
-1.551000
  0
LINE
 10
38.171000
 11
38.349000
 20
-1.551000
 21
-1.621000
  0
LINE
 10
38.349000
 11
38.517000
 20
-1.621000
 21
-1.713000
  0
LINE
 10
38.517000
 11
38.671000
 20
-1.713000
 21
-1.826000
  0
LINE
 10
38.671000
 11
38.811000
 20
-1.826000
 21
-1.957000
  0
LINE
 10
38.811000
 11
38.933000
 20
-1.957000
 21
-2.104000
  0
LINE
 10
38.933000
 11
39.035000
 20
-2.104000
 21
-2.266000
  0
LINE
 10
39.035000
 11
39.117000
 20
-2.266000
 21
-2.439000
  0
LINE
 10
39.117000
 11
39.176000
 20
-2.439000
 21
-2.621000
  0
LINE
 10
39.176000
 11
39.212000
 20
-2.621000
 21
-2.809000
  0
LINE
 10
39.212000
 11
39.224000
 20
-2.809000
 21
-3.000000
  0
LINE
 10
39.224000
 11
39.212000
 20
-3.000000
 21
-3.191000
  0
LINE
 10
39.212000
 11
39.176000
 20
-3.191000
 21
-3.379000
  0
LINE
 10
39.176000
 11
39.117000
 20
-3.379000
 21
-3.561000
  0
LINE
 10
39.117000
 11
39.035000
 20
-3.561000
 21
-3.734000
  0
LINE
 10
39.035000
 11
38.933000
 20
-3.734000
 21
-3.896000
  0
LINE
 10
38.933000
 11
38.811000
 20
-3.896000
 21
-4.043000
  0
LINE
 10
38.811000
 11
38.671000
 20
-4.043000
 21
-4.174000
  0
LINE
 10
38.671000
 11
38.517000
 20
-4.174000
 21
-4.287000
  0
LINE
 10
38.517000
 11
38.349000
 20
-4.287000
 21
-4.379000
  0
LINE
 10
38.349000
 11
38.171000
 20
-4.379000
 21
-4.449000
  0
LINE
 10
38.171000
 11
37.986000
 20
-4.449000
 21
-4.497000
  0
LINE
 10
37.986000
 11
37.796000
 20
-4.497000
 21
-4.521000
  0
LINE
 10
37.796000
 11
37.604000
 20
-4.521000
 21
-4.521000
  0
LINE
 10
37.604000
 11
37.414000
 20
-4.521000
 21
-4.497000
  0
LINE
 10
37.414000
 11
37.229000
 20
-4.497000
 21
-4.449000
  0
LINE
 10
37.229000
 11
37.051000
 20
-4.449000
 21
-4.379000
  0
LINE
 10
37.051000
 11
36.883000
 20
-4.379000
 21
-4.287000
  0
LINE
 10
36.883000
 11
36.729000
 20
-4.287000
 21
-4.174000
  0
LINE
 10
36.729000
 11
36.589000
 20
-4.174000
 21
-4.043000
  0
LINE
 10
36.589000
 11
36.467000
 20
-4.043000
 21
-3.896000
  0
LINE
 10
36.467000
 11
36.365000
 20
-3.896000
 21
-3.734000
  0
LINE
 10
36.365000
 11
36.283000
 20
-3.734000
 21
-3.561000
  0
LINE
 10
36.283000
 11
36.224000
 20
-3.561000
 21
-3.379000
  0
LINE
 10
36.224000
 11
36.188000
 20
-3.379000
 21
-3.191000
  0
LINE
 10
36.188000
 11
36.176000
 20
-3.191000
 21
-3.000000
  0
LINE
 10
53.700000
 11
53.700000
 20
-16.250000
 21
-9.250000
  0
LINE
 10
53.700000
 11
56.700000
 20
-9.250000
 21
-9.250000
  0
LINE
 10
56.700000
 11
56.700000
 20
-9.250000
 21
9.250000
  0
LINE
 10
56.700000
 11
53.700000
 20
9.250000
 21
9.250000
  0
LINE
 10
53.700000
 11
53.700000
 20
9.250000
 21
16.250000
  0
LINE
 10
53.700000
 11
56.700000
 20
16.250000
 21
16.250000
  0
LINE
 10
56.700000
 11
56.700000
 20
16.250000
 21
25.500000
  0
LINE
 10
56.700000
 11
62.725000
 20
25.500000
 21
25.500000
  0
LINE
 10
62.725000
 11
62.725000
 20
25.500000
 21
22.500000
  0
LINE
 10
62.725000
 11
69.725000
 20
22.500000
 21
22.500000
  0
LINE
 10
69.725000
 11
69.725000
 20
22.500000
 21
25.500000
  0
LINE
 10
69.725000
 11
75.750000
 20
25.500000
 21
25.500000
  0
LINE
 10
75.750000
 11
75.750000
 20
25.500000
 21
16.250000
  0
LINE
 10
75.750000
 11
78.750000
 20
16.250000
 21
16.250000
  0
LINE
 10
78.750000
 11
78.750000
 20
16.250000
 21
9.250000
  0
LINE
 10
78.750000
 11
75.750000
 20
9.250000
 21
9.250000
  0
LINE
 10
75.750000
 11
75.750000
 20
9.250000
 21
1.450000
  0
LINE
 10
75.750000
 11
74.550000
 20
1.450000
 21
1.450000
  0
LINE
 10
74.550000
 11
74.525000
 20
1.450000
 21
1.448000
  0
LINE
 10
74.525000
 11
74.500000
 20
1.448000
 21
1.444000
  0
LINE
 10
74.500000
 11
74.476000
 20
1.444000
 21
1.436000
  0
LINE
 10
74.476000
 11
74.454000
 20
1.436000
 21
1.425000
  0
LINE
 10
74.454000
 11
74.432000
 20
1.425000
 21
1.412000
  0
LINE
 10
74.432000
 11
74.413000
 20
1.412000
 21
1.396000
  0
LINE
 10
74.413000
 11
74.396000
 20
1.396000
 21
1.377000
  0
LINE
 10
74.396000
 11
74.381000
 20
1.377000
 21
1.357000
  0
LINE
 10
74.381000
 11
74.369000
 20
1.357000
 21
1.335000
  0
LINE
 10
74.369000
 11
74.360000
 20
1.335000
 21
1.312000
  0
LINE
 10
74.360000
 11
74.354000
 20
1.312000
 21
1.287000
  0
LINE
 10
74.354000
 11
74.350000
 20
1.287000
 21
1.263000
  0
LINE
 10
74.350000
 11
74.350000
 20
1.263000
 21
0.237000
  0
LINE
 10
74.350000
 11
74.354000
 20
0.237000
 21
0.213000
  0
LINE
 10
74.354000
 11
74.360000
 20
0.213000
 21
0.188000
  0
LINE
 10
74.360000
 11
74.369000
 20
0.188000
 21
0.165000
  0
LINE
 10
74.369000
 11
74.381000
 20
0.165000
 21
0.143000
  0
LINE
 10
74.381000
 11
74.396000
 20
0.143000
 21
0.123000
  0
LINE
 10
74.396000
 11
74.413000
 20
0.123000
 21
0.104000
  0
LINE
 10
74.413000
 11
74.432000
 20
0.104000
 21
0.088000
  0
LINE
 10
74.432000
 11
74.454000
 20
0.088000
 21
0.075000
  0
LINE
 10
74.454000
 11
74.476000
 20
0.075000
 21
0.064000
  0
LINE
 10
74.476000
 11
74.500000
 20
0.064000
 21
0.056000
  0
LINE
 10
74.500000
 11
74.525000
 20
0.056000
 21
0.052000
  0
LINE
 10
74.525000
 11
74.550000
 20
0.052000
 21
0.050000
  0
LINE
 10
74.550000
 11
75.750000
 20
0.050000
 21
0.050000
  0
LINE
 10
75.750000
 11
75.750000
 20
0.050000
 21
-9.250000
  0
LINE
 10
75.750000
 11
78.750000
 20
-9.250000
 21
-9.250000
  0
LINE
 10
78.750000
 11
78.750000
 20
-9.250000
 21
-16.250000
  0
LINE
 10
78.750000
 11
75.750000
 20
-16.250000
 21
-16.250000
  0
LINE
 10
75.750000
 11
75.750000
 20
-16.250000
 21
-25.500000
  0
LINE
 10
75.750000
 11
69.725000
 20
-25.500000
 21
-25.500000
  0
LINE
 10
69.725000
 11
69.725000
 20
-25.500000
 21
-22.500000
  0
LINE
 10
69.725000
 11
62.725000
 20
-22.500000
 21
-22.500000
  0
LINE
 10
62.725000
 11
62.725000
 20
-22.500000
 21
-25.500000
  0
LINE
 10
62.725000
 11
56.700000
 20
-25.500000
 21
-25.500000
  0
LINE
 10
56.700000
 11
56.700000
 20
-25.500000
 21
-16.250000
  0
LINE
 10
56.700000
 11
53.700000
 20
-16.250000
 21
-16.250000
  0
LINE
 10
53.700000
 11
53.700000
 20
42.000000
 21
57.000000
  0
LINE
 10
53.700000
 11
53.712000
 20
57.000000
 21
57.188000
  0
LINE
 10
53.712000
 11
53.747000
 20
57.188000
 21
57.373000
  0
LINE
 10
53.747000
 11
53.805000
 20
57.373000
 21
57.552000
  0
LINE
 10
53.805000
 11
53.886000
 20
57.552000
 21
57.723000
  0
LINE
 10
53.886000
 11
53.986000
 20
57.723000
 21
57.882000
  0
LINE
 10
53.986000
 11
54.107000
 20
57.882000
 21
58.027000
  0
LINE
 10
54.107000
 11
54.244000
 20
58.027000
 21
58.156000
  0
LINE
 10
54.244000
 11
54.396000
 20
58.156000
 21
58.266000
  0
LINE
 10
54.396000
 11
54.561000
 20
58.266000
 21
58.357000
  0
LINE
 10
54.561000
 11
54.736000
 20
58.357000
 21
58.427000
  0
LINE
 10
54.736000
 11
54.919000
 20
58.427000
 21
58.473000
  0
LINE
 10
54.919000
 11
55.106000
 20
58.473000
 21
58.497000
  0
LINE
 10
55.106000
 11
55.200000
 20
58.497000
 21
58.497000
  0
LINE
 10
55.200000
 11
55.200000
 20
58.497000
 21
58.500000
  0
LINE
 10
55.200000
 11
59.700000
 20
58.500000
 21
58.500000
  0
LINE
 10
59.700000
 11
59.700000
 20
58.500000
 21
58.497000
  0
LINE
 10
59.700000
 11
59.794000
 20
58.497000
 21
58.497000
  0
LINE
 10
59.794000
 11
59.981000
 20
58.497000
 21
58.473000
  0
LINE
 10
59.981000
 11
60.164000
 20
58.473000
 21
58.427000
  0
LINE
 10
60.164000
 11
60.339000
 20
58.427000
 21
58.357000
  0
LINE
 10
60.339000
 11
60.504000
 20
58.357000
 21
58.266000
  0
LINE
 10
60.504000
 11
60.656000
 20
58.266000
 21
58.156000
  0
LINE
 10
60.656000
 11
60.793000
 20
58.156000
 21
58.027000
  0
LINE
 10
60.793000
 11
60.914000
 20
58.027000
 21
57.882000
  0
LINE
 10
60.914000
 11
61.014000
 20
57.882000
 21
57.723000
  0
LINE
 10
61.014000
 11
61.095000
 20
57.723000
 21
57.552000
  0
LINE
 10
61.095000
 11
61.153000
 20
57.552000
 21
57.373000
  0
LINE
 10
61.153000
 11
61.188000
 20
57.373000
 21
57.188000
  0
LINE
 10
61.188000
 11
61.200000
 20
57.188000
 21
57.000000
  0
LINE
 10
61.200000
 11
61.200000
 20
57.000000
 21
42.000000
  0
LINE
 10
61.200000
 11
61.188000
 20
42.000000
 21
41.812000
  0
LINE
 10
61.188000
 11
61.153000
 20
41.812000
 21
41.627000
  0
LINE
 10
61.153000
 11
61.095000
 20
41.627000
 21
41.448000
  0
LINE
 10
61.095000
 11
61.014000
 20
41.448000
 21
41.277000
  0
LINE
 10
61.014000
 11
60.914000
 20
41.277000
 21
41.118000
  0
LINE
 10
60.914000
 11
60.793000
 20
41.118000
 21
40.973000
  0
LINE
 10
60.793000
 11
60.656000
 20
40.973000
 21
40.844000
  0
LINE
 10
60.656000
 11
60.504000
 20
40.844000
 21
40.734000
  0
LINE
 10
60.504000
 11
60.339000
 20
40.734000
 21
40.643000
  0
LINE
 10
60.339000
 11
60.164000
 20
40.643000
 21
40.573000
  0
LINE
 10
60.164000
 11
59.981000
 20
40.573000
 21
40.527000
  0
LINE
 10
59.981000
 11
59.794000
 20
40.527000
 21
40.503000
  0
LINE
 10
59.794000
 11
59.700000
 20
40.503000
 21
40.503000
  0
LINE
 10
59.700000
 11
59.700000
 20
40.503000
 21
40.500000
  0
LINE
 10
59.700000
 11
55.200000
 20
40.500000
 21
40.500000
  0
LINE
 10
55.200000
 11
55.200000
 20
40.500000
 21
40.503000
  0
LINE
 10
55.200000
 11
55.106000
 20
40.503000
 21
40.503000
  0
LINE
 10
55.106000
 11
54.919000
 20
40.503000
 21
40.527000
  0
LINE
 10
54.919000
 11
54.736000
 20
40.527000
 21
40.573000
  0
LINE
 10
54.736000
 11
54.561000
 20
40.573000
 21
40.643000
  0
LINE
 10
54.561000
 11
54.396000
 20
40.643000
 21
40.734000
  0
LINE
 10
54.396000
 11
54.244000
 20
40.734000
 21
40.844000
  0
LINE
 10
54.244000
 11
54.107000
 20
40.844000
 21
40.973000
  0
LINE
 10
54.107000
 11
53.986000
 20
40.973000
 21
41.118000
  0
LINE
 10
53.986000
 11
53.886000
 20
41.118000
 21
41.277000
  0
LINE
 10
53.886000
 11
53.805000
 20
41.277000
 21
41.448000
  0
LINE
 10
53.805000
 11
53.747000
 20
41.448000
 21
41.627000
  0
LINE
 10
53.747000
 11
53.712000
 20
41.627000
 21
41.812000
  0
LINE
 10
53.712000
 11
53.700000
 20
41.812000
 21
42.000000
  0
LINE
 10
56.320000
 11
56.329000
 20
46.500000
 21
46.642000
  0
LINE
 10
56.329000
 11
56.355000
 20
46.642000
 21
46.781000
  0
LINE
 10
56.355000
 11
56.399000
 20
46.781000
 21
46.916000
  0
LINE
 10
56.399000
 11
56.460000
 20
46.916000
 21
47.045000
  0
LINE
 10
56.460000
 11
56.536000
 20
47.045000
 21
47.164000
  0
LINE
 10
56.536000
 11
56.626000
 20
47.164000
 21
47.274000
  0
LINE
 10
56.626000
 11
56.730000
 20
47.274000
 21
47.371000
  0
LINE
 10
56.730000
 11
56.844000
 20
47.371000
 21
47.454000
  0
LINE
 10
56.844000
 11
56.969000
 20
47.454000
 21
47.523000
  0
LINE
 10
56.969000
 11
57.101000
 20
47.523000
 21
47.575000
  0
LINE
 10
57.101000
 11
57.238000
 20
47.575000
 21
47.610000
  0
LINE
 10
57.238000
 11
57.379000
 20
47.610000
 21
47.628000
  0
LINE
 10
57.379000
 11
57.521000
 20
47.628000
 21
47.628000
  0
LINE
 10
57.521000
 11
57.662000
 20
47.628000
 21
47.610000
  0
LINE
 10
57.662000
 11
57.799000
 20
47.610000
 21
47.575000
  0
LINE
 10
57.799000
 11
57.931000
 20
47.575000
 21
47.523000
  0
LINE
 10
57.931000
 11
58.056000
 20
47.523000
 21
47.454000
  0
LINE
 10
58.056000
 11
58.170000
 20
47.454000
 21
47.371000
  0
LINE
 10
58.170000
 11
58.274000
 20
47.371000
 21
47.274000
  0
LINE
 10
58.274000
 11
58.364000
 20
47.274000
 21
47.164000
  0
LINE
 10
58.364000
 11
58.440000
 20
47.164000
 21
47.045000
  0
LINE
 10
58.440000
 11
58.501000
 20
47.045000
 21
46.916000
  0
LINE
 10
58.501000
 11
58.545000
 20
46.916000
 21
46.781000
  0
LINE
 10
58.545000
 11
58.571000
 20
46.781000
 21
46.642000
  0
LINE
 10
58.571000
 11
58.580000
 20
46.642000
 21
46.500000
  0
LINE
 10
58.580000
 11
58.571000
 20
46.500000
 21
46.358000
  0
LINE
 10
58.571000
 11
58.545000
 20
46.358000
 21
46.219000
  0
LINE
 10
58.545000
 11
58.501000
 20
46.219000
 21
46.084000
  0
LINE
 10
58.501000
 11
58.440000
 20
46.084000
 21
45.955000
  0
LINE
 10
58.440000
 11
58.364000
 20
45.955000
 21
45.836000
  0
LINE
 10
58.364000
 11
58.274000
 20
45.836000
 21
45.726000
  0
LINE
 10
58.274000
 11
58.170000
 20
45.726000
 21
45.629000
  0
LINE
 10
58.170000
 11
58.056000
 20
45.629000
 21
45.546000
  0
LINE
 10
58.056000
 11
57.931000
 20
45.546000
 21
45.477000
  0
LINE
 10
57.931000
 11
57.799000
 20
45.477000
 21
45.425000
  0
LINE
 10
57.799000
 11
57.662000
 20
45.425000
 21
45.390000
  0
LINE
 10
57.662000
 11
57.521000
 20
45.390000
 21
45.372000
  0
LINE
 10
57.521000
 11
57.379000
 20
45.372000
 21
45.372000
  0
LINE
 10
57.379000
 11
57.238000
 20
45.372000
 21
45.390000
  0
LINE
 10
57.238000
 11
57.101000
 20
45.390000
 21
45.425000
  0
LINE
 10
57.101000
 11
56.969000
 20
45.425000
 21
45.477000
  0
LINE
 10
56.969000
 11
56.844000
 20
45.477000
 21
45.546000
  0
LINE
 10
56.844000
 11
56.730000
 20
45.546000
 21
45.629000
  0
LINE
 10
56.730000
 11
56.626000
 20
45.629000
 21
45.726000
  0
LINE
 10
56.626000
 11
56.536000
 20
45.726000
 21
45.836000
  0
LINE
 10
56.536000
 11
56.460000
 20
45.836000
 21
45.955000
  0
LINE
 10
56.460000
 11
56.399000
 20
45.955000
 21
46.084000
  0
LINE
 10
56.399000
 11
56.355000
 20
46.084000
 21
46.219000
  0
LINE
 10
56.355000
 11
56.329000
 20
46.219000
 21
46.358000
  0
LINE
 10
56.329000
 11
56.320000
 20
46.358000
 21
46.500000
  0
ENDSEC
  0
EOF
