  0
SECTION
  2
ENTITIES
  0
LINE
 10
-30.500000
 11
-30.500000
 20
-12.700000
 21
12.700000
  0
LINE
 10
-30.500000
 11
30.500000
 20
12.700000
 21
12.700000
  0
LINE
 10
30.500000
 11
30.500000
 20
12.700000
 21
-12.700000
  0
LINE
 10
30.500000
 11
-30.500000
 20
-12.700000
 21
-12.700000
  0
LINE
 10
-27.820000
 11
-27.811000
 20
8.890000
 21
9.032000
  0
LINE
 10
-27.811000
 11
-27.785000
 20
9.032000
 21
9.171000
  0
LINE
 10
-27.785000
 11
-27.741000
 20
9.171000
 21
9.306000
  0
LINE
 10
-27.741000
 11
-27.680000
 20
9.306000
 21
9.435000
  0
LINE
 10
-27.680000
 11
-27.604000
 20
9.435000
 21
9.554000
  0
LINE
 10
-27.604000
 11
-27.514000
 20
9.554000
 21
9.664000
  0
LINE
 10
-27.514000
 11
-27.410000
 20
9.664000
 21
9.761000
  0
LINE
 10
-27.410000
 11
-27.296000
 20
9.761000
 21
9.844000
  0
LINE
 10
-27.296000
 11
-27.171000
 20
9.844000
 21
9.913000
  0
LINE
 10
-27.171000
 11
-27.039000
 20
9.913000
 21
9.965000
  0
LINE
 10
-27.039000
 11
-26.902000
 20
9.965000
 21
10.000000
  0
LINE
 10
-26.902000
 11
-26.761000
 20
10.000000
 21
10.018000
  0
LINE
 10
-26.761000
 11
-26.619000
 20
10.018000
 21
10.018000
  0
LINE
 10
-26.619000
 11
-26.478000
 20
10.018000
 21
10.000000
  0
LINE
 10
-26.478000
 11
-26.341000
 20
10.000000
 21
9.965000
  0
LINE
 10
-26.341000
 11
-26.209000
 20
9.965000
 21
9.913000
  0
LINE
 10
-26.209000
 11
-26.084000
 20
9.913000
 21
9.844000
  0
LINE
 10
-26.084000
 11
-25.970000
 20
9.844000
 21
9.761000
  0
LINE
 10
-25.970000
 11
-25.866000
 20
9.761000
 21
9.664000
  0
LINE
 10
-25.866000
 11
-25.776000
 20
9.664000
 21
9.554000
  0
LINE
 10
-25.776000
 11
-25.700000
 20
9.554000
 21
9.435000
  0
LINE
 10
-25.700000
 11
-25.639000
 20
9.435000
 21
9.306000
  0
LINE
 10
-25.639000
 11
-25.595000
 20
9.306000
 21
9.171000
  0
LINE
 10
-25.595000
 11
-25.569000
 20
9.171000
 21
9.032000
  0
LINE
 10
-25.569000
 11
-25.560000
 20
9.032000
 21
8.890000
  0
LINE
 10
-25.560000
 11
-25.569000
 20
8.890000
 21
8.748000
  0
LINE
 10
-25.569000
 11
-25.595000
 20
8.748000
 21
8.609000
  0
LINE
 10
-25.595000
 11
-25.639000
 20
8.609000
 21
8.474000
  0
LINE
 10
-25.639000
 11
-25.700000
 20
8.474000
 21
8.345000
  0
LINE
 10
-25.700000
 11
-25.776000
 20
8.345000
 21
8.226000
  0
LINE
 10
-25.776000
 11
-25.866000
 20
8.226000
 21
8.116000
  0
LINE
 10
-25.866000
 11
-25.970000
 20
8.116000
 21
8.019000
  0
LINE
 10
-25.970000
 11
-26.084000
 20
8.019000
 21
7.936000
  0
LINE
 10
-26.084000
 11
-26.209000
 20
7.936000
 21
7.867000
  0
LINE
 10
-26.209000
 11
-26.341000
 20
7.867000
 21
7.815000
  0
LINE
 10
-26.341000
 11
-26.478000
 20
7.815000
 21
7.780000
  0
LINE
 10
-26.478000
 11
-26.619000
 20
7.780000
 21
7.762000
  0
LINE
 10
-26.619000
 11
-26.761000
 20
7.762000
 21
7.762000
  0
LINE
 10
-26.761000
 11
-26.902000
 20
7.762000
 21
7.780000
  0
LINE
 10
-26.902000
 11
-27.039000
 20
7.780000
 21
7.815000
  0
LINE
 10
-27.039000
 11
-27.171000
 20
7.815000
 21
7.867000
  0
LINE
 10
-27.171000
 11
-27.296000
 20
7.867000
 21
7.936000
  0
LINE
 10
-27.296000
 11
-27.410000
 20
7.936000
 21
8.019000
  0
LINE
 10
-27.410000
 11
-27.514000
 20
8.019000
 21
8.116000
  0
LINE
 10
-27.514000
 11
-27.604000
 20
8.116000
 21
8.226000
  0
LINE
 10
-27.604000
 11
-27.680000
 20
8.226000
 21
8.345000
  0
LINE
 10
-27.680000
 11
-27.741000
 20
8.345000
 21
8.474000
  0
LINE
 10
-27.741000
 11
-27.785000
 20
8.474000
 21
8.609000
  0
LINE
 10
-27.785000
 11
-27.811000
 20
8.609000
 21
8.748000
  0
LINE
 10
-27.811000
 11
-27.820000
 20
8.748000
 21
8.890000
  0
LINE
 10
25.560000
 11
25.569000
 20
8.890000
 21
9.032000
  0
LINE
 10
25.569000
 11
25.595000
 20
9.032000
 21
9.171000
  0
LINE
 10
25.595000
 11
25.639000
 20
9.171000
 21
9.306000
  0
LINE
 10
25.639000
 11
25.700000
 20
9.306000
 21
9.435000
  0
LINE
 10
25.700000
 11
25.776000
 20
9.435000
 21
9.554000
  0
LINE
 10
25.776000
 11
25.866000
 20
9.554000
 21
9.664000
  0
LINE
 10
25.866000
 11
25.970000
 20
9.664000
 21
9.761000
  0
LINE
 10
25.970000
 11
26.084000
 20
9.761000
 21
9.844000
  0
LINE
 10
26.084000
 11
26.209000
 20
9.844000
 21
9.913000
  0
LINE
 10
26.209000
 11
26.341000
 20
9.913000
 21
9.965000
  0
LINE
 10
26.341000
 11
26.478000
 20
9.965000
 21
10.000000
  0
LINE
 10
26.478000
 11
26.619000
 20
10.000000
 21
10.018000
  0
LINE
 10
26.619000
 11
26.761000
 20
10.018000
 21
10.018000
  0
LINE
 10
26.761000
 11
26.902000
 20
10.018000
 21
10.000000
  0
LINE
 10
26.902000
 11
27.039000
 20
10.000000
 21
9.965000
  0
LINE
 10
27.039000
 11
27.171000
 20
9.965000
 21
9.913000
  0
LINE
 10
27.171000
 11
27.296000
 20
9.913000
 21
9.844000
  0
LINE
 10
27.296000
 11
27.410000
 20
9.844000
 21
9.761000
  0
LINE
 10
27.410000
 11
27.514000
 20
9.761000
 21
9.664000
  0
LINE
 10
27.514000
 11
27.604000
 20
9.664000
 21
9.554000
  0
LINE
 10
27.604000
 11
27.680000
 20
9.554000
 21
9.435000
  0
LINE
 10
27.680000
 11
27.741000
 20
9.435000
 21
9.306000
  0
LINE
 10
27.741000
 11
27.785000
 20
9.306000
 21
9.171000
  0
LINE
 10
27.785000
 11
27.811000
 20
9.171000
 21
9.032000
  0
LINE
 10
27.811000
 11
27.820000
 20
9.032000
 21
8.890000
  0
LINE
 10
27.820000
 11
27.811000
 20
8.890000
 21
8.748000
  0
LINE
 10
27.811000
 11
27.785000
 20
8.748000
 21
8.609000
  0
LINE
 10
27.785000
 11
27.741000
 20
8.609000
 21
8.474000
  0
LINE
 10
27.741000
 11
27.680000
 20
8.474000
 21
8.345000
  0
LINE
 10
27.680000
 11
27.604000
 20
8.345000
 21
8.226000
  0
LINE
 10
27.604000
 11
27.514000
 20
8.226000
 21
8.116000
  0
LINE
 10
27.514000
 11
27.410000
 20
8.116000
 21
8.019000
  0
LINE
 10
27.410000
 11
27.296000
 20
8.019000
 21
7.936000
  0
LINE
 10
27.296000
 11
27.171000
 20
7.936000
 21
7.867000
  0
LINE
 10
27.171000
 11
27.039000
 20
7.867000
 21
7.815000
  0
LINE
 10
27.039000
 11
26.902000
 20
7.815000
 21
7.780000
  0
LINE
 10
26.902000
 11
26.761000
 20
7.780000
 21
7.762000
  0
LINE
 10
26.761000
 11
26.619000
 20
7.762000
 21
7.762000
  0
LINE
 10
26.619000
 11
26.478000
 20
7.762000
 21
7.780000
  0
LINE
 10
26.478000
 11
26.341000
 20
7.780000
 21
7.815000
  0
LINE
 10
26.341000
 11
26.209000
 20
7.815000
 21
7.867000
  0
LINE
 10
26.209000
 11
26.084000
 20
7.867000
 21
7.936000
  0
LINE
 10
26.084000
 11
25.970000
 20
7.936000
 21
8.019000
  0
LINE
 10
25.970000
 11
25.866000
 20
8.019000
 21
8.116000
  0
LINE
 10
25.866000
 11
25.776000
 20
8.116000
 21
8.226000
  0
LINE
 10
25.776000
 11
25.700000
 20
8.226000
 21
8.345000
  0
LINE
 10
25.700000
 11
25.639000
 20
8.345000
 21
8.474000
  0
LINE
 10
25.639000
 11
25.595000
 20
8.474000
 21
8.609000
  0
LINE
 10
25.595000
 11
25.569000
 20
8.609000
 21
8.748000
  0
LINE
 10
25.569000
 11
25.560000
 20
8.748000
 21
8.890000
  0
LINE
 10
36.500000
 11
36.500000
 20
-12.700000
 21
12.700000
  0
LINE
 10
36.500000
 11
61.900000
 20
12.700000
 21
12.700000
  0
LINE
 10
61.900000
 11
61.900000
 20
12.700000
 21
-12.700000
  0
LINE
 10
61.900000
 11
36.500000
 20
-12.700000
 21
-12.700000
  0
ENDSEC
  0
EOF
