  0
SECTION
  2
ENTITIES
  0
LINE
 10
-30.600000
 11
-30.600000
 20
-15.700000
 21
-3.000000
  0
LINE
 10
-30.600000
 11
30.600000
 20
-3.000000
 21
-3.000000
  0
LINE
 10
30.600000
 11
30.600000
 20
-3.000000
 21
-15.700000
  0
LINE
 10
30.600000
 11
-30.600000
 20
-15.700000
 21
-15.700000
  0
LINE
 10
-30.600000
 11
-30.600000
 20
3.000000
 21
15.700000
  0
LINE
 10
-30.600000
 11
30.600000
 20
15.700000
 21
15.700000
  0
LINE
 10
30.600000
 11
30.600000
 20
15.700000
 21
3.000000
  0
LINE
 10
30.600000
 11
-30.600000
 20
3.000000
 21
3.000000
  0
LINE
 10
-28.936000
 11
-28.927000
 20
-12.906000
 21
-12.764000
  0
LINE
 10
-28.927000
 11
-28.901000
 20
-12.764000
 21
-12.625000
  0
LINE
 10
-28.901000
 11
-28.857000
 20
-12.625000
 21
-12.490000
  0
LINE
 10
-28.857000
 11
-28.796000
 20
-12.490000
 21
-12.361000
  0
LINE
 10
-28.796000
 11
-28.720000
 20
-12.361000
 21
-12.242000
  0
LINE
 10
-28.720000
 11
-28.630000
 20
-12.242000
 21
-12.132000
  0
LINE
 10
-28.630000
 11
-28.526000
 20
-12.132000
 21
-12.035000
  0
LINE
 10
-28.526000
 11
-28.412000
 20
-12.035000
 21
-11.952000
  0
LINE
 10
-28.412000
 11
-28.287000
 20
-11.952000
 21
-11.883000
  0
LINE
 10
-28.287000
 11
-28.155000
 20
-11.883000
 21
-11.831000
  0
LINE
 10
-28.155000
 11
-28.018000
 20
-11.831000
 21
-11.796000
  0
LINE
 10
-28.018000
 11
-27.877000
 20
-11.796000
 21
-11.778000
  0
LINE
 10
-27.877000
 11
-27.735000
 20
-11.778000
 21
-11.778000
  0
LINE
 10
-27.735000
 11
-27.594000
 20
-11.778000
 21
-11.796000
  0
LINE
 10
-27.594000
 11
-27.457000
 20
-11.796000
 21
-11.831000
  0
LINE
 10
-27.457000
 11
-27.325000
 20
-11.831000
 21
-11.883000
  0
LINE
 10
-27.325000
 11
-27.200000
 20
-11.883000
 21
-11.952000
  0
LINE
 10
-27.200000
 11
-27.086000
 20
-11.952000
 21
-12.035000
  0
LINE
 10
-27.086000
 11
-26.982000
 20
-12.035000
 21
-12.132000
  0
LINE
 10
-26.982000
 11
-26.892000
 20
-12.132000
 21
-12.242000
  0
LINE
 10
-26.892000
 11
-26.816000
 20
-12.242000
 21
-12.361000
  0
LINE
 10
-26.816000
 11
-26.755000
 20
-12.361000
 21
-12.490000
  0
LINE
 10
-26.755000
 11
-26.711000
 20
-12.490000
 21
-12.625000
  0
LINE
 10
-26.711000
 11
-26.685000
 20
-12.625000
 21
-12.764000
  0
LINE
 10
-26.685000
 11
-26.676000
 20
-12.764000
 21
-12.906000
  0
LINE
 10
-26.676000
 11
-26.685000
 20
-12.906000
 21
-13.048000
  0
LINE
 10
-26.685000
 11
-26.711000
 20
-13.048000
 21
-13.187000
  0
LINE
 10
-26.711000
 11
-26.755000
 20
-13.187000
 21
-13.322000
  0
LINE
 10
-26.755000
 11
-26.816000
 20
-13.322000
 21
-13.451000
  0
LINE
 10
-26.816000
 11
-26.892000
 20
-13.451000
 21
-13.570000
  0
LINE
 10
-26.892000
 11
-26.982000
 20
-13.570000
 21
-13.680000
  0
LINE
 10
-26.982000
 11
-27.086000
 20
-13.680000
 21
-13.777000
  0
LINE
 10
-27.086000
 11
-27.200000
 20
-13.777000
 21
-13.860000
  0
LINE
 10
-27.200000
 11
-27.325000
 20
-13.860000
 21
-13.929000
  0
LINE
 10
-27.325000
 11
-27.457000
 20
-13.929000
 21
-13.981000
  0
LINE
 10
-27.457000
 11
-27.594000
 20
-13.981000
 21
-14.016000
  0
LINE
 10
-27.594000
 11
-27.735000
 20
-14.016000
 21
-14.034000
  0
LINE
 10
-27.735000
 11
-27.877000
 20
-14.034000
 21
-14.034000
  0
LINE
 10
-27.877000
 11
-28.018000
 20
-14.034000
 21
-14.016000
  0
LINE
 10
-28.018000
 11
-28.155000
 20
-14.016000
 21
-13.981000
  0
LINE
 10
-28.155000
 11
-28.287000
 20
-13.981000
 21
-13.929000
  0
LINE
 10
-28.287000
 11
-28.412000
 20
-13.929000
 21
-13.860000
  0
LINE
 10
-28.412000
 11
-28.526000
 20
-13.860000
 21
-13.777000
  0
LINE
 10
-28.526000
 11
-28.630000
 20
-13.777000
 21
-13.680000
  0
LINE
 10
-28.630000
 11
-28.720000
 20
-13.680000
 21
-13.570000
  0
LINE
 10
-28.720000
 11
-28.796000
 20
-13.570000
 21
-13.451000
  0
LINE
 10
-28.796000
 11
-28.857000
 20
-13.451000
 21
-13.322000
  0
LINE
 10
-28.857000
 11
-28.901000
 20
-13.322000
 21
-13.187000
  0
LINE
 10
-28.901000
 11
-28.927000
 20
-13.187000
 21
-13.048000
  0
LINE
 10
-28.927000
 11
-28.936000
 20
-13.048000
 21
-12.906000
  0
LINE
 10
-28.936000
 11
-28.927000
 20
12.906000
 21
13.048000
  0
LINE
 10
-28.927000
 11
-28.901000
 20
13.048000
 21
13.187000
  0
LINE
 10
-28.901000
 11
-28.857000
 20
13.187000
 21
13.322000
  0
LINE
 10
-28.857000
 11
-28.796000
 20
13.322000
 21
13.451000
  0
LINE
 10
-28.796000
 11
-28.720000
 20
13.451000
 21
13.570000
  0
LINE
 10
-28.720000
 11
-28.630000
 20
13.570000
 21
13.680000
  0
LINE
 10
-28.630000
 11
-28.526000
 20
13.680000
 21
13.777000
  0
LINE
 10
-28.526000
 11
-28.412000
 20
13.777000
 21
13.860000
  0
LINE
 10
-28.412000
 11
-28.287000
 20
13.860000
 21
13.929000
  0
LINE
 10
-28.287000
 11
-28.155000
 20
13.929000
 21
13.981000
  0
LINE
 10
-28.155000
 11
-28.018000
 20
13.981000
 21
14.016000
  0
LINE
 10
-28.018000
 11
-27.877000
 20
14.016000
 21
14.034000
  0
LINE
 10
-27.877000
 11
-27.735000
 20
14.034000
 21
14.034000
  0
LINE
 10
-27.735000
 11
-27.594000
 20
14.034000
 21
14.016000
  0
LINE
 10
-27.594000
 11
-27.457000
 20
14.016000
 21
13.981000
  0
LINE
 10
-27.457000
 11
-27.325000
 20
13.981000
 21
13.929000
  0
LINE
 10
-27.325000
 11
-27.200000
 20
13.929000
 21
13.860000
  0
LINE
 10
-27.200000
 11
-27.086000
 20
13.860000
 21
13.777000
  0
LINE
 10
-27.086000
 11
-26.982000
 20
13.777000
 21
13.680000
  0
LINE
 10
-26.982000
 11
-26.892000
 20
13.680000
 21
13.570000
  0
LINE
 10
-26.892000
 11
-26.816000
 20
13.570000
 21
13.451000
  0
LINE
 10
-26.816000
 11
-26.755000
 20
13.451000
 21
13.322000
  0
LINE
 10
-26.755000
 11
-26.711000
 20
13.322000
 21
13.187000
  0
LINE
 10
-26.711000
 11
-26.685000
 20
13.187000
 21
13.048000
  0
LINE
 10
-26.685000
 11
-26.676000
 20
13.048000
 21
12.906000
  0
LINE
 10
-26.676000
 11
-26.685000
 20
12.906000
 21
12.764000
  0
LINE
 10
-26.685000
 11
-26.711000
 20
12.764000
 21
12.625000
  0
LINE
 10
-26.711000
 11
-26.755000
 20
12.625000
 21
12.490000
  0
LINE
 10
-26.755000
 11
-26.816000
 20
12.490000
 21
12.361000
  0
LINE
 10
-26.816000
 11
-26.892000
 20
12.361000
 21
12.242000
  0
LINE
 10
-26.892000
 11
-26.982000
 20
12.242000
 21
12.132000
  0
LINE
 10
-26.982000
 11
-27.086000
 20
12.132000
 21
12.035000
  0
LINE
 10
-27.086000
 11
-27.200000
 20
12.035000
 21
11.952000
  0
LINE
 10
-27.200000
 11
-27.325000
 20
11.952000
 21
11.883000
  0
LINE
 10
-27.325000
 11
-27.457000
 20
11.883000
 21
11.831000
  0
LINE
 10
-27.457000
 11
-27.594000
 20
11.831000
 21
11.796000
  0
LINE
 10
-27.594000
 11
-27.735000
 20
11.796000
 21
11.778000
  0
LINE
 10
-27.735000
 11
-27.877000
 20
11.778000
 21
11.778000
  0
LINE
 10
-27.877000
 11
-28.018000
 20
11.778000
 21
11.796000
  0
LINE
 10
-28.018000
 11
-28.155000
 20
11.796000
 21
11.831000
  0
LINE
 10
-28.155000
 11
-28.287000
 20
11.831000
 21
11.883000
  0
LINE
 10
-28.287000
 11
-28.412000
 20
11.883000
 21
11.952000
  0
LINE
 10
-28.412000
 11
-28.526000
 20
11.952000
 21
12.035000
  0
LINE
 10
-28.526000
 11
-28.630000
 20
12.035000
 21
12.132000
  0
LINE
 10
-28.630000
 11
-28.720000
 20
12.132000
 21
12.242000
  0
LINE
 10
-28.720000
 11
-28.796000
 20
12.242000
 21
12.361000
  0
LINE
 10
-28.796000
 11
-28.857000
 20
12.361000
 21
12.490000
  0
LINE
 10
-28.857000
 11
-28.901000
 20
12.490000
 21
12.625000
  0
LINE
 10
-28.901000
 11
-28.927000
 20
12.625000
 21
12.764000
  0
LINE
 10
-28.927000
 11
-28.936000
 20
12.764000
 21
12.906000
  0
LINE
 10
26.676000
 11
26.685000
 20
-12.906000
 21
-12.764000
  0
LINE
 10
26.685000
 11
26.711000
 20
-12.764000
 21
-12.625000
  0
LINE
 10
26.711000
 11
26.755000
 20
-12.625000
 21
-12.490000
  0
LINE
 10
26.755000
 11
26.816000
 20
-12.490000
 21
-12.361000
  0
LINE
 10
26.816000
 11
26.892000
 20
-12.361000
 21
-12.242000
  0
LINE
 10
26.892000
 11
26.982000
 20
-12.242000
 21
-12.132000
  0
LINE
 10
26.982000
 11
27.086000
 20
-12.132000
 21
-12.035000
  0
LINE
 10
27.086000
 11
27.200000
 20
-12.035000
 21
-11.952000
  0
LINE
 10
27.200000
 11
27.325000
 20
-11.952000
 21
-11.883000
  0
LINE
 10
27.325000
 11
27.457000
 20
-11.883000
 21
-11.831000
  0
LINE
 10
27.457000
 11
27.594000
 20
-11.831000
 21
-11.796000
  0
LINE
 10
27.594000
 11
27.735000
 20
-11.796000
 21
-11.778000
  0
LINE
 10
27.735000
 11
27.877000
 20
-11.778000
 21
-11.778000
  0
LINE
 10
27.877000
 11
28.018000
 20
-11.778000
 21
-11.796000
  0
LINE
 10
28.018000
 11
28.155000
 20
-11.796000
 21
-11.831000
  0
LINE
 10
28.155000
 11
28.287000
 20
-11.831000
 21
-11.883000
  0
LINE
 10
28.287000
 11
28.412000
 20
-11.883000
 21
-11.952000
  0
LINE
 10
28.412000
 11
28.526000
 20
-11.952000
 21
-12.035000
  0
LINE
 10
28.526000
 11
28.630000
 20
-12.035000
 21
-12.132000
  0
LINE
 10
28.630000
 11
28.720000
 20
-12.132000
 21
-12.242000
  0
LINE
 10
28.720000
 11
28.796000
 20
-12.242000
 21
-12.361000
  0
LINE
 10
28.796000
 11
28.857000
 20
-12.361000
 21
-12.490000
  0
LINE
 10
28.857000
 11
28.901000
 20
-12.490000
 21
-12.625000
  0
LINE
 10
28.901000
 11
28.927000
 20
-12.625000
 21
-12.764000
  0
LINE
 10
28.927000
 11
28.936000
 20
-12.764000
 21
-12.906000
  0
LINE
 10
28.936000
 11
28.927000
 20
-12.906000
 21
-13.048000
  0
LINE
 10
28.927000
 11
28.901000
 20
-13.048000
 21
-13.187000
  0
LINE
 10
28.901000
 11
28.857000
 20
-13.187000
 21
-13.322000
  0
LINE
 10
28.857000
 11
28.796000
 20
-13.322000
 21
-13.451000
  0
LINE
 10
28.796000
 11
28.720000
 20
-13.451000
 21
-13.570000
  0
LINE
 10
28.720000
 11
28.630000
 20
-13.570000
 21
-13.680000
  0
LINE
 10
28.630000
 11
28.526000
 20
-13.680000
 21
-13.777000
  0
LINE
 10
28.526000
 11
28.412000
 20
-13.777000
 21
-13.860000
  0
LINE
 10
28.412000
 11
28.287000
 20
-13.860000
 21
-13.929000
  0
LINE
 10
28.287000
 11
28.155000
 20
-13.929000
 21
-13.981000
  0
LINE
 10
28.155000
 11
28.018000
 20
-13.981000
 21
-14.016000
  0
LINE
 10
28.018000
 11
27.877000
 20
-14.016000
 21
-14.034000
  0
LINE
 10
27.877000
 11
27.735000
 20
-14.034000
 21
-14.034000
  0
LINE
 10
27.735000
 11
27.594000
 20
-14.034000
 21
-14.016000
  0
LINE
 10
27.594000
 11
27.457000
 20
-14.016000
 21
-13.981000
  0
LINE
 10
27.457000
 11
27.325000
 20
-13.981000
 21
-13.929000
  0
LINE
 10
27.325000
 11
27.200000
 20
-13.929000
 21
-13.860000
  0
LINE
 10
27.200000
 11
27.086000
 20
-13.860000
 21
-13.777000
  0
LINE
 10
27.086000
 11
26.982000
 20
-13.777000
 21
-13.680000
  0
LINE
 10
26.982000
 11
26.892000
 20
-13.680000
 21
-13.570000
  0
LINE
 10
26.892000
 11
26.816000
 20
-13.570000
 21
-13.451000
  0
LINE
 10
26.816000
 11
26.755000
 20
-13.451000
 21
-13.322000
  0
LINE
 10
26.755000
 11
26.711000
 20
-13.322000
 21
-13.187000
  0
LINE
 10
26.711000
 11
26.685000
 20
-13.187000
 21
-13.048000
  0
LINE
 10
26.685000
 11
26.676000
 20
-13.048000
 21
-12.906000
  0
LINE
 10
26.676000
 11
26.685000
 20
12.906000
 21
13.048000
  0
LINE
 10
26.685000
 11
26.711000
 20
13.048000
 21
13.187000
  0
LINE
 10
26.711000
 11
26.755000
 20
13.187000
 21
13.322000
  0
LINE
 10
26.755000
 11
26.816000
 20
13.322000
 21
13.451000
  0
LINE
 10
26.816000
 11
26.892000
 20
13.451000
 21
13.570000
  0
LINE
 10
26.892000
 11
26.982000
 20
13.570000
 21
13.680000
  0
LINE
 10
26.982000
 11
27.086000
 20
13.680000
 21
13.777000
  0
LINE
 10
27.086000
 11
27.200000
 20
13.777000
 21
13.860000
  0
LINE
 10
27.200000
 11
27.325000
 20
13.860000
 21
13.929000
  0
LINE
 10
27.325000
 11
27.457000
 20
13.929000
 21
13.981000
  0
LINE
 10
27.457000
 11
27.594000
 20
13.981000
 21
14.016000
  0
LINE
 10
27.594000
 11
27.735000
 20
14.016000
 21
14.034000
  0
LINE
 10
27.735000
 11
27.877000
 20
14.034000
 21
14.034000
  0
LINE
 10
27.877000
 11
28.018000
 20
14.034000
 21
14.016000
  0
LINE
 10
28.018000
 11
28.155000
 20
14.016000
 21
13.981000
  0
LINE
 10
28.155000
 11
28.287000
 20
13.981000
 21
13.929000
  0
LINE
 10
28.287000
 11
28.412000
 20
13.929000
 21
13.860000
  0
LINE
 10
28.412000
 11
28.526000
 20
13.860000
 21
13.777000
  0
LINE
 10
28.526000
 11
28.630000
 20
13.777000
 21
13.680000
  0
LINE
 10
28.630000
 11
28.720000
 20
13.680000
 21
13.570000
  0
LINE
 10
28.720000
 11
28.796000
 20
13.570000
 21
13.451000
  0
LINE
 10
28.796000
 11
28.857000
 20
13.451000
 21
13.322000
  0
LINE
 10
28.857000
 11
28.901000
 20
13.322000
 21
13.187000
  0
LINE
 10
28.901000
 11
28.927000
 20
13.187000
 21
13.048000
  0
LINE
 10
28.927000
 11
28.936000
 20
13.048000
 21
12.906000
  0
LINE
 10
28.936000
 11
28.927000
 20
12.906000
 21
12.764000
  0
LINE
 10
28.927000
 11
28.901000
 20
12.764000
 21
12.625000
  0
LINE
 10
28.901000
 11
28.857000
 20
12.625000
 21
12.490000
  0
LINE
 10
28.857000
 11
28.796000
 20
12.490000
 21
12.361000
  0
LINE
 10
28.796000
 11
28.720000
 20
12.361000
 21
12.242000
  0
LINE
 10
28.720000
 11
28.630000
 20
12.242000
 21
12.132000
  0
LINE
 10
28.630000
 11
28.526000
 20
12.132000
 21
12.035000
  0
LINE
 10
28.526000
 11
28.412000
 20
12.035000
 21
11.952000
  0
LINE
 10
28.412000
 11
28.287000
 20
11.952000
 21
11.883000
  0
LINE
 10
28.287000
 11
28.155000
 20
11.883000
 21
11.831000
  0
LINE
 10
28.155000
 11
28.018000
 20
11.831000
 21
11.796000
  0
LINE
 10
28.018000
 11
27.877000
 20
11.796000
 21
11.778000
  0
LINE
 10
27.877000
 11
27.735000
 20
11.778000
 21
11.778000
  0
LINE
 10
27.735000
 11
27.594000
 20
11.778000
 21
11.796000
  0
LINE
 10
27.594000
 11
27.457000
 20
11.796000
 21
11.831000
  0
LINE
 10
27.457000
 11
27.325000
 20
11.831000
 21
11.883000
  0
LINE
 10
27.325000
 11
27.200000
 20
11.883000
 21
11.952000
  0
LINE
 10
27.200000
 11
27.086000
 20
11.952000
 21
12.035000
  0
LINE
 10
27.086000
 11
26.982000
 20
12.035000
 21
12.132000
  0
LINE
 10
26.982000
 11
26.892000
 20
12.132000
 21
12.242000
  0
LINE
 10
26.892000
 11
26.816000
 20
12.242000
 21
12.361000
  0
LINE
 10
26.816000
 11
26.755000
 20
12.361000
 21
12.490000
  0
LINE
 10
26.755000
 11
26.711000
 20
12.490000
 21
12.625000
  0
LINE
 10
26.711000
 11
26.685000
 20
12.625000
 21
12.764000
  0
LINE
 10
26.685000
 11
26.676000
 20
12.764000
 21
12.906000
  0
LINE
 10
36.600000
 11
36.600000
 20
-12.700000
 21
12.700000
  0
LINE
 10
36.600000
 11
62.000000
 20
12.700000
 21
12.700000
  0
LINE
 10
62.000000
 11
62.000000
 20
12.700000
 21
-12.700000
  0
LINE
 10
62.000000
 11
36.600000
 20
-12.700000
 21
-12.700000
  0
ENDSEC
  0
EOF
