  0
SECTION
  2
ENTITIES
  0
LINE
 10
-30.600000
 11
-30.600000
 20
-15.700000
 21
-3.000000
  0
LINE
 10
-30.600000
 11
30.600000
 20
-3.000000
 21
-3.000000
  0
LINE
 10
30.600000
 11
30.600000
 20
-3.000000
 21
-15.700000
  0
LINE
 10
30.600000
 11
-30.600000
 20
-15.700000
 21
-15.700000
  0
LINE
 10
-30.600000
 11
-30.600000
 20
3.000000
 21
15.700000
  0
LINE
 10
-30.600000
 11
30.600000
 20
15.700000
 21
15.700000
  0
LINE
 10
30.600000
 11
30.600000
 20
15.700000
 21
3.000000
  0
LINE
 10
30.600000
 11
-30.600000
 20
3.000000
 21
3.000000
  0
LINE
 10
-27.920000
 11
-27.911000
 20
-11.890000
 21
-11.748000
  0
LINE
 10
-27.911000
 11
-27.885000
 20
-11.748000
 21
-11.609000
  0
LINE
 10
-27.885000
 11
-27.841000
 20
-11.609000
 21
-11.474000
  0
LINE
 10
-27.841000
 11
-27.780000
 20
-11.474000
 21
-11.345000
  0
LINE
 10
-27.780000
 11
-27.704000
 20
-11.345000
 21
-11.226000
  0
LINE
 10
-27.704000
 11
-27.614000
 20
-11.226000
 21
-11.116000
  0
LINE
 10
-27.614000
 11
-27.510000
 20
-11.116000
 21
-11.019000
  0
LINE
 10
-27.510000
 11
-27.396000
 20
-11.019000
 21
-10.936000
  0
LINE
 10
-27.396000
 11
-27.271000
 20
-10.936000
 21
-10.867000
  0
LINE
 10
-27.271000
 11
-27.139000
 20
-10.867000
 21
-10.815000
  0
LINE
 10
-27.139000
 11
-27.002000
 20
-10.815000
 21
-10.780000
  0
LINE
 10
-27.002000
 11
-26.861000
 20
-10.780000
 21
-10.762000
  0
LINE
 10
-26.861000
 11
-26.719000
 20
-10.762000
 21
-10.762000
  0
LINE
 10
-26.719000
 11
-26.578000
 20
-10.762000
 21
-10.780000
  0
LINE
 10
-26.578000
 11
-26.441000
 20
-10.780000
 21
-10.815000
  0
LINE
 10
-26.441000
 11
-26.309000
 20
-10.815000
 21
-10.867000
  0
LINE
 10
-26.309000
 11
-26.184000
 20
-10.867000
 21
-10.936000
  0
LINE
 10
-26.184000
 11
-26.070000
 20
-10.936000
 21
-11.019000
  0
LINE
 10
-26.070000
 11
-25.966000
 20
-11.019000
 21
-11.116000
  0
LINE
 10
-25.966000
 11
-25.876000
 20
-11.116000
 21
-11.226000
  0
LINE
 10
-25.876000
 11
-25.800000
 20
-11.226000
 21
-11.345000
  0
LINE
 10
-25.800000
 11
-25.739000
 20
-11.345000
 21
-11.474000
  0
LINE
 10
-25.739000
 11
-25.695000
 20
-11.474000
 21
-11.609000
  0
LINE
 10
-25.695000
 11
-25.669000
 20
-11.609000
 21
-11.748000
  0
LINE
 10
-25.669000
 11
-25.660000
 20
-11.748000
 21
-11.890000
  0
LINE
 10
-25.660000
 11
-25.669000
 20
-11.890000
 21
-12.032000
  0
LINE
 10
-25.669000
 11
-25.695000
 20
-12.032000
 21
-12.171000
  0
LINE
 10
-25.695000
 11
-25.739000
 20
-12.171000
 21
-12.306000
  0
LINE
 10
-25.739000
 11
-25.800000
 20
-12.306000
 21
-12.435000
  0
LINE
 10
-25.800000
 11
-25.876000
 20
-12.435000
 21
-12.554000
  0
LINE
 10
-25.876000
 11
-25.966000
 20
-12.554000
 21
-12.664000
  0
LINE
 10
-25.966000
 11
-26.070000
 20
-12.664000
 21
-12.761000
  0
LINE
 10
-26.070000
 11
-26.184000
 20
-12.761000
 21
-12.844000
  0
LINE
 10
-26.184000
 11
-26.309000
 20
-12.844000
 21
-12.913000
  0
LINE
 10
-26.309000
 11
-26.441000
 20
-12.913000
 21
-12.965000
  0
LINE
 10
-26.441000
 11
-26.578000
 20
-12.965000
 21
-13.000000
  0
LINE
 10
-26.578000
 11
-26.719000
 20
-13.000000
 21
-13.018000
  0
LINE
 10
-26.719000
 11
-26.861000
 20
-13.018000
 21
-13.018000
  0
LINE
 10
-26.861000
 11
-27.002000
 20
-13.018000
 21
-13.000000
  0
LINE
 10
-27.002000
 11
-27.139000
 20
-13.000000
 21
-12.965000
  0
LINE
 10
-27.139000
 11
-27.271000
 20
-12.965000
 21
-12.913000
  0
LINE
 10
-27.271000
 11
-27.396000
 20
-12.913000
 21
-12.844000
  0
LINE
 10
-27.396000
 11
-27.510000
 20
-12.844000
 21
-12.761000
  0
LINE
 10
-27.510000
 11
-27.614000
 20
-12.761000
 21
-12.664000
  0
LINE
 10
-27.614000
 11
-27.704000
 20
-12.664000
 21
-12.554000
  0
LINE
 10
-27.704000
 11
-27.780000
 20
-12.554000
 21
-12.435000
  0
LINE
 10
-27.780000
 11
-27.841000
 20
-12.435000
 21
-12.306000
  0
LINE
 10
-27.841000
 11
-27.885000
 20
-12.306000
 21
-12.171000
  0
LINE
 10
-27.885000
 11
-27.911000
 20
-12.171000
 21
-12.032000
  0
LINE
 10
-27.911000
 11
-27.920000
 20
-12.032000
 21
-11.890000
  0
LINE
 10
-27.920000
 11
-27.911000
 20
11.890000
 21
12.032000
  0
LINE
 10
-27.911000
 11
-27.885000
 20
12.032000
 21
12.171000
  0
LINE
 10
-27.885000
 11
-27.841000
 20
12.171000
 21
12.306000
  0
LINE
 10
-27.841000
 11
-27.780000
 20
12.306000
 21
12.435000
  0
LINE
 10
-27.780000
 11
-27.704000
 20
12.435000
 21
12.554000
  0
LINE
 10
-27.704000
 11
-27.614000
 20
12.554000
 21
12.664000
  0
LINE
 10
-27.614000
 11
-27.510000
 20
12.664000
 21
12.761000
  0
LINE
 10
-27.510000
 11
-27.396000
 20
12.761000
 21
12.844000
  0
LINE
 10
-27.396000
 11
-27.271000
 20
12.844000
 21
12.913000
  0
LINE
 10
-27.271000
 11
-27.139000
 20
12.913000
 21
12.965000
  0
LINE
 10
-27.139000
 11
-27.002000
 20
12.965000
 21
13.000000
  0
LINE
 10
-27.002000
 11
-26.861000
 20
13.000000
 21
13.018000
  0
LINE
 10
-26.861000
 11
-26.719000
 20
13.018000
 21
13.018000
  0
LINE
 10
-26.719000
 11
-26.578000
 20
13.018000
 21
13.000000
  0
LINE
 10
-26.578000
 11
-26.441000
 20
13.000000
 21
12.965000
  0
LINE
 10
-26.441000
 11
-26.309000
 20
12.965000
 21
12.913000
  0
LINE
 10
-26.309000
 11
-26.184000
 20
12.913000
 21
12.844000
  0
LINE
 10
-26.184000
 11
-26.070000
 20
12.844000
 21
12.761000
  0
LINE
 10
-26.070000
 11
-25.966000
 20
12.761000
 21
12.664000
  0
LINE
 10
-25.966000
 11
-25.876000
 20
12.664000
 21
12.554000
  0
LINE
 10
-25.876000
 11
-25.800000
 20
12.554000
 21
12.435000
  0
LINE
 10
-25.800000
 11
-25.739000
 20
12.435000
 21
12.306000
  0
LINE
 10
-25.739000
 11
-25.695000
 20
12.306000
 21
12.171000
  0
LINE
 10
-25.695000
 11
-25.669000
 20
12.171000
 21
12.032000
  0
LINE
 10
-25.669000
 11
-25.660000
 20
12.032000
 21
11.890000
  0
LINE
 10
-25.660000
 11
-25.669000
 20
11.890000
 21
11.748000
  0
LINE
 10
-25.669000
 11
-25.695000
 20
11.748000
 21
11.609000
  0
LINE
 10
-25.695000
 11
-25.739000
 20
11.609000
 21
11.474000
  0
LINE
 10
-25.739000
 11
-25.800000
 20
11.474000
 21
11.345000
  0
LINE
 10
-25.800000
 11
-25.876000
 20
11.345000
 21
11.226000
  0
LINE
 10
-25.876000
 11
-25.966000
 20
11.226000
 21
11.116000
  0
LINE
 10
-25.966000
 11
-26.070000
 20
11.116000
 21
11.019000
  0
LINE
 10
-26.070000
 11
-26.184000
 20
11.019000
 21
10.936000
  0
LINE
 10
-26.184000
 11
-26.309000
 20
10.936000
 21
10.867000
  0
LINE
 10
-26.309000
 11
-26.441000
 20
10.867000
 21
10.815000
  0
LINE
 10
-26.441000
 11
-26.578000
 20
10.815000
 21
10.780000
  0
LINE
 10
-26.578000
 11
-26.719000
 20
10.780000
 21
10.762000
  0
LINE
 10
-26.719000
 11
-26.861000
 20
10.762000
 21
10.762000
  0
LINE
 10
-26.861000
 11
-27.002000
 20
10.762000
 21
10.780000
  0
LINE
 10
-27.002000
 11
-27.139000
 20
10.780000
 21
10.815000
  0
LINE
 10
-27.139000
 11
-27.271000
 20
10.815000
 21
10.867000
  0
LINE
 10
-27.271000
 11
-27.396000
 20
10.867000
 21
10.936000
  0
LINE
 10
-27.396000
 11
-27.510000
 20
10.936000
 21
11.019000
  0
LINE
 10
-27.510000
 11
-27.614000
 20
11.019000
 21
11.116000
  0
LINE
 10
-27.614000
 11
-27.704000
 20
11.116000
 21
11.226000
  0
LINE
 10
-27.704000
 11
-27.780000
 20
11.226000
 21
11.345000
  0
LINE
 10
-27.780000
 11
-27.841000
 20
11.345000
 21
11.474000
  0
LINE
 10
-27.841000
 11
-27.885000
 20
11.474000
 21
11.609000
  0
LINE
 10
-27.885000
 11
-27.911000
 20
11.609000
 21
11.748000
  0
LINE
 10
-27.911000
 11
-27.920000
 20
11.748000
 21
11.890000
  0
LINE
 10
25.660000
 11
25.669000
 20
-11.890000
 21
-11.748000
  0
LINE
 10
25.669000
 11
25.695000
 20
-11.748000
 21
-11.609000
  0
LINE
 10
25.695000
 11
25.739000
 20
-11.609000
 21
-11.474000
  0
LINE
 10
25.739000
 11
25.800000
 20
-11.474000
 21
-11.345000
  0
LINE
 10
25.800000
 11
25.876000
 20
-11.345000
 21
-11.226000
  0
LINE
 10
25.876000
 11
25.966000
 20
-11.226000
 21
-11.116000
  0
LINE
 10
25.966000
 11
26.070000
 20
-11.116000
 21
-11.019000
  0
LINE
 10
26.070000
 11
26.184000
 20
-11.019000
 21
-10.936000
  0
LINE
 10
26.184000
 11
26.309000
 20
-10.936000
 21
-10.867000
  0
LINE
 10
26.309000
 11
26.441000
 20
-10.867000
 21
-10.815000
  0
LINE
 10
26.441000
 11
26.578000
 20
-10.815000
 21
-10.780000
  0
LINE
 10
26.578000
 11
26.719000
 20
-10.780000
 21
-10.762000
  0
LINE
 10
26.719000
 11
26.861000
 20
-10.762000
 21
-10.762000
  0
LINE
 10
26.861000
 11
27.002000
 20
-10.762000
 21
-10.780000
  0
LINE
 10
27.002000
 11
27.139000
 20
-10.780000
 21
-10.815000
  0
LINE
 10
27.139000
 11
27.271000
 20
-10.815000
 21
-10.867000
  0
LINE
 10
27.271000
 11
27.396000
 20
-10.867000
 21
-10.936000
  0
LINE
 10
27.396000
 11
27.510000
 20
-10.936000
 21
-11.019000
  0
LINE
 10
27.510000
 11
27.614000
 20
-11.019000
 21
-11.116000
  0
LINE
 10
27.614000
 11
27.704000
 20
-11.116000
 21
-11.226000
  0
LINE
 10
27.704000
 11
27.780000
 20
-11.226000
 21
-11.345000
  0
LINE
 10
27.780000
 11
27.841000
 20
-11.345000
 21
-11.474000
  0
LINE
 10
27.841000
 11
27.885000
 20
-11.474000
 21
-11.609000
  0
LINE
 10
27.885000
 11
27.911000
 20
-11.609000
 21
-11.748000
  0
LINE
 10
27.911000
 11
27.920000
 20
-11.748000
 21
-11.890000
  0
LINE
 10
27.920000
 11
27.911000
 20
-11.890000
 21
-12.032000
  0
LINE
 10
27.911000
 11
27.885000
 20
-12.032000
 21
-12.171000
  0
LINE
 10
27.885000
 11
27.841000
 20
-12.171000
 21
-12.306000
  0
LINE
 10
27.841000
 11
27.780000
 20
-12.306000
 21
-12.435000
  0
LINE
 10
27.780000
 11
27.704000
 20
-12.435000
 21
-12.554000
  0
LINE
 10
27.704000
 11
27.614000
 20
-12.554000
 21
-12.664000
  0
LINE
 10
27.614000
 11
27.510000
 20
-12.664000
 21
-12.761000
  0
LINE
 10
27.510000
 11
27.396000
 20
-12.761000
 21
-12.844000
  0
LINE
 10
27.396000
 11
27.271000
 20
-12.844000
 21
-12.913000
  0
LINE
 10
27.271000
 11
27.139000
 20
-12.913000
 21
-12.965000
  0
LINE
 10
27.139000
 11
27.002000
 20
-12.965000
 21
-13.000000
  0
LINE
 10
27.002000
 11
26.861000
 20
-13.000000
 21
-13.018000
  0
LINE
 10
26.861000
 11
26.719000
 20
-13.018000
 21
-13.018000
  0
LINE
 10
26.719000
 11
26.578000
 20
-13.018000
 21
-13.000000
  0
LINE
 10
26.578000
 11
26.441000
 20
-13.000000
 21
-12.965000
  0
LINE
 10
26.441000
 11
26.309000
 20
-12.965000
 21
-12.913000
  0
LINE
 10
26.309000
 11
26.184000
 20
-12.913000
 21
-12.844000
  0
LINE
 10
26.184000
 11
26.070000
 20
-12.844000
 21
-12.761000
  0
LINE
 10
26.070000
 11
25.966000
 20
-12.761000
 21
-12.664000
  0
LINE
 10
25.966000
 11
25.876000
 20
-12.664000
 21
-12.554000
  0
LINE
 10
25.876000
 11
25.800000
 20
-12.554000
 21
-12.435000
  0
LINE
 10
25.800000
 11
25.739000
 20
-12.435000
 21
-12.306000
  0
LINE
 10
25.739000
 11
25.695000
 20
-12.306000
 21
-12.171000
  0
LINE
 10
25.695000
 11
25.669000
 20
-12.171000
 21
-12.032000
  0
LINE
 10
25.669000
 11
25.660000
 20
-12.032000
 21
-11.890000
  0
LINE
 10
25.660000
 11
25.669000
 20
11.890000
 21
12.032000
  0
LINE
 10
25.669000
 11
25.695000
 20
12.032000
 21
12.171000
  0
LINE
 10
25.695000
 11
25.739000
 20
12.171000
 21
12.306000
  0
LINE
 10
25.739000
 11
25.800000
 20
12.306000
 21
12.435000
  0
LINE
 10
25.800000
 11
25.876000
 20
12.435000
 21
12.554000
  0
LINE
 10
25.876000
 11
25.966000
 20
12.554000
 21
12.664000
  0
LINE
 10
25.966000
 11
26.070000
 20
12.664000
 21
12.761000
  0
LINE
 10
26.070000
 11
26.184000
 20
12.761000
 21
12.844000
  0
LINE
 10
26.184000
 11
26.309000
 20
12.844000
 21
12.913000
  0
LINE
 10
26.309000
 11
26.441000
 20
12.913000
 21
12.965000
  0
LINE
 10
26.441000
 11
26.578000
 20
12.965000
 21
13.000000
  0
LINE
 10
26.578000
 11
26.719000
 20
13.000000
 21
13.018000
  0
LINE
 10
26.719000
 11
26.861000
 20
13.018000
 21
13.018000
  0
LINE
 10
26.861000
 11
27.002000
 20
13.018000
 21
13.000000
  0
LINE
 10
27.002000
 11
27.139000
 20
13.000000
 21
12.965000
  0
LINE
 10
27.139000
 11
27.271000
 20
12.965000
 21
12.913000
  0
LINE
 10
27.271000
 11
27.396000
 20
12.913000
 21
12.844000
  0
LINE
 10
27.396000
 11
27.510000
 20
12.844000
 21
12.761000
  0
LINE
 10
27.510000
 11
27.614000
 20
12.761000
 21
12.664000
  0
LINE
 10
27.614000
 11
27.704000
 20
12.664000
 21
12.554000
  0
LINE
 10
27.704000
 11
27.780000
 20
12.554000
 21
12.435000
  0
LINE
 10
27.780000
 11
27.841000
 20
12.435000
 21
12.306000
  0
LINE
 10
27.841000
 11
27.885000
 20
12.306000
 21
12.171000
  0
LINE
 10
27.885000
 11
27.911000
 20
12.171000
 21
12.032000
  0
LINE
 10
27.911000
 11
27.920000
 20
12.032000
 21
11.890000
  0
LINE
 10
27.920000
 11
27.911000
 20
11.890000
 21
11.748000
  0
LINE
 10
27.911000
 11
27.885000
 20
11.748000
 21
11.609000
  0
LINE
 10
27.885000
 11
27.841000
 20
11.609000
 21
11.474000
  0
LINE
 10
27.841000
 11
27.780000
 20
11.474000
 21
11.345000
  0
LINE
 10
27.780000
 11
27.704000
 20
11.345000
 21
11.226000
  0
LINE
 10
27.704000
 11
27.614000
 20
11.226000
 21
11.116000
  0
LINE
 10
27.614000
 11
27.510000
 20
11.116000
 21
11.019000
  0
LINE
 10
27.510000
 11
27.396000
 20
11.019000
 21
10.936000
  0
LINE
 10
27.396000
 11
27.271000
 20
10.936000
 21
10.867000
  0
LINE
 10
27.271000
 11
27.139000
 20
10.867000
 21
10.815000
  0
LINE
 10
27.139000
 11
27.002000
 20
10.815000
 21
10.780000
  0
LINE
 10
27.002000
 11
26.861000
 20
10.780000
 21
10.762000
  0
LINE
 10
26.861000
 11
26.719000
 20
10.762000
 21
10.762000
  0
LINE
 10
26.719000
 11
26.578000
 20
10.762000
 21
10.780000
  0
LINE
 10
26.578000
 11
26.441000
 20
10.780000
 21
10.815000
  0
LINE
 10
26.441000
 11
26.309000
 20
10.815000
 21
10.867000
  0
LINE
 10
26.309000
 11
26.184000
 20
10.867000
 21
10.936000
  0
LINE
 10
26.184000
 11
26.070000
 20
10.936000
 21
11.019000
  0
LINE
 10
26.070000
 11
25.966000
 20
11.019000
 21
11.116000
  0
LINE
 10
25.966000
 11
25.876000
 20
11.116000
 21
11.226000
  0
LINE
 10
25.876000
 11
25.800000
 20
11.226000
 21
11.345000
  0
LINE
 10
25.800000
 11
25.739000
 20
11.345000
 21
11.474000
  0
LINE
 10
25.739000
 11
25.695000
 20
11.474000
 21
11.609000
  0
LINE
 10
25.695000
 11
25.669000
 20
11.609000
 21
11.748000
  0
LINE
 10
25.669000
 11
25.660000
 20
11.748000
 21
11.890000
  0
LINE
 10
36.600000
 11
36.600000
 20
-12.700000
 21
12.700000
  0
LINE
 10
36.600000
 11
62.000000
 20
12.700000
 21
12.700000
  0
LINE
 10
62.000000
 11
62.000000
 20
12.700000
 21
-12.700000
  0
LINE
 10
62.000000
 11
36.600000
 20
-12.700000
 21
-12.700000
  0
ENDSEC
  0
EOF
