  0
SECTION
  2
ENTITIES
  0
LINE
 10
-30.600000
 11
-30.600000
 20
-13.200000
 21
13.200000
  0
LINE
 10
-30.600000
 11
30.600000
 20
13.200000
 21
13.200000
  0
LINE
 10
30.600000
 11
30.600000
 20
13.200000
 21
-13.200000
  0
LINE
 10
30.600000
 11
-30.600000
 20
-13.200000
 21
-13.200000
  0
LINE
 10
-27.920000
 11
-27.911000
 20
-9.390000
 21
-9.248000
  0
LINE
 10
-27.911000
 11
-27.885000
 20
-9.248000
 21
-9.109000
  0
LINE
 10
-27.885000
 11
-27.841000
 20
-9.109000
 21
-8.974000
  0
LINE
 10
-27.841000
 11
-27.780000
 20
-8.974000
 21
-8.845000
  0
LINE
 10
-27.780000
 11
-27.704000
 20
-8.845000
 21
-8.726000
  0
LINE
 10
-27.704000
 11
-27.614000
 20
-8.726000
 21
-8.616000
  0
LINE
 10
-27.614000
 11
-27.510000
 20
-8.616000
 21
-8.519000
  0
LINE
 10
-27.510000
 11
-27.396000
 20
-8.519000
 21
-8.436000
  0
LINE
 10
-27.396000
 11
-27.271000
 20
-8.436000
 21
-8.367000
  0
LINE
 10
-27.271000
 11
-27.139000
 20
-8.367000
 21
-8.315000
  0
LINE
 10
-27.139000
 11
-27.002000
 20
-8.315000
 21
-8.280000
  0
LINE
 10
-27.002000
 11
-26.861000
 20
-8.280000
 21
-8.262000
  0
LINE
 10
-26.861000
 11
-26.719000
 20
-8.262000
 21
-8.262000
  0
LINE
 10
-26.719000
 11
-26.578000
 20
-8.262000
 21
-8.280000
  0
LINE
 10
-26.578000
 11
-26.441000
 20
-8.280000
 21
-8.315000
  0
LINE
 10
-26.441000
 11
-26.309000
 20
-8.315000
 21
-8.367000
  0
LINE
 10
-26.309000
 11
-26.184000
 20
-8.367000
 21
-8.436000
  0
LINE
 10
-26.184000
 11
-26.070000
 20
-8.436000
 21
-8.519000
  0
LINE
 10
-26.070000
 11
-25.966000
 20
-8.519000
 21
-8.616000
  0
LINE
 10
-25.966000
 11
-25.876000
 20
-8.616000
 21
-8.726000
  0
LINE
 10
-25.876000
 11
-25.800000
 20
-8.726000
 21
-8.845000
  0
LINE
 10
-25.800000
 11
-25.739000
 20
-8.845000
 21
-8.974000
  0
LINE
 10
-25.739000
 11
-25.695000
 20
-8.974000
 21
-9.109000
  0
LINE
 10
-25.695000
 11
-25.669000
 20
-9.109000
 21
-9.248000
  0
LINE
 10
-25.669000
 11
-25.660000
 20
-9.248000
 21
-9.390000
  0
LINE
 10
-25.660000
 11
-25.669000
 20
-9.390000
 21
-9.532000
  0
LINE
 10
-25.669000
 11
-25.695000
 20
-9.532000
 21
-9.671000
  0
LINE
 10
-25.695000
 11
-25.739000
 20
-9.671000
 21
-9.806000
  0
LINE
 10
-25.739000
 11
-25.800000
 20
-9.806000
 21
-9.935000
  0
LINE
 10
-25.800000
 11
-25.876000
 20
-9.935000
 21
-10.054000
  0
LINE
 10
-25.876000
 11
-25.966000
 20
-10.054000
 21
-10.164000
  0
LINE
 10
-25.966000
 11
-26.070000
 20
-10.164000
 21
-10.261000
  0
LINE
 10
-26.070000
 11
-26.184000
 20
-10.261000
 21
-10.344000
  0
LINE
 10
-26.184000
 11
-26.309000
 20
-10.344000
 21
-10.413000
  0
LINE
 10
-26.309000
 11
-26.441000
 20
-10.413000
 21
-10.465000
  0
LINE
 10
-26.441000
 11
-26.578000
 20
-10.465000
 21
-10.500000
  0
LINE
 10
-26.578000
 11
-26.719000
 20
-10.500000
 21
-10.518000
  0
LINE
 10
-26.719000
 11
-26.861000
 20
-10.518000
 21
-10.518000
  0
LINE
 10
-26.861000
 11
-27.002000
 20
-10.518000
 21
-10.500000
  0
LINE
 10
-27.002000
 11
-27.139000
 20
-10.500000
 21
-10.465000
  0
LINE
 10
-27.139000
 11
-27.271000
 20
-10.465000
 21
-10.413000
  0
LINE
 10
-27.271000
 11
-27.396000
 20
-10.413000
 21
-10.344000
  0
LINE
 10
-27.396000
 11
-27.510000
 20
-10.344000
 21
-10.261000
  0
LINE
 10
-27.510000
 11
-27.614000
 20
-10.261000
 21
-10.164000
  0
LINE
 10
-27.614000
 11
-27.704000
 20
-10.164000
 21
-10.054000
  0
LINE
 10
-27.704000
 11
-27.780000
 20
-10.054000
 21
-9.935000
  0
LINE
 10
-27.780000
 11
-27.841000
 20
-9.935000
 21
-9.806000
  0
LINE
 10
-27.841000
 11
-27.885000
 20
-9.806000
 21
-9.671000
  0
LINE
 10
-27.885000
 11
-27.911000
 20
-9.671000
 21
-9.532000
  0
LINE
 10
-27.911000
 11
-27.920000
 20
-9.532000
 21
-9.390000
  0
LINE
 10
-27.920000
 11
-27.911000
 20
9.390000
 21
9.532000
  0
LINE
 10
-27.911000
 11
-27.885000
 20
9.532000
 21
9.671000
  0
LINE
 10
-27.885000
 11
-27.841000
 20
9.671000
 21
9.806000
  0
LINE
 10
-27.841000
 11
-27.780000
 20
9.806000
 21
9.935000
  0
LINE
 10
-27.780000
 11
-27.704000
 20
9.935000
 21
10.054000
  0
LINE
 10
-27.704000
 11
-27.614000
 20
10.054000
 21
10.164000
  0
LINE
 10
-27.614000
 11
-27.510000
 20
10.164000
 21
10.261000
  0
LINE
 10
-27.510000
 11
-27.396000
 20
10.261000
 21
10.344000
  0
LINE
 10
-27.396000
 11
-27.271000
 20
10.344000
 21
10.413000
  0
LINE
 10
-27.271000
 11
-27.139000
 20
10.413000
 21
10.465000
  0
LINE
 10
-27.139000
 11
-27.002000
 20
10.465000
 21
10.500000
  0
LINE
 10
-27.002000
 11
-26.861000
 20
10.500000
 21
10.518000
  0
LINE
 10
-26.861000
 11
-26.719000
 20
10.518000
 21
10.518000
  0
LINE
 10
-26.719000
 11
-26.578000
 20
10.518000
 21
10.500000
  0
LINE
 10
-26.578000
 11
-26.441000
 20
10.500000
 21
10.465000
  0
LINE
 10
-26.441000
 11
-26.309000
 20
10.465000
 21
10.413000
  0
LINE
 10
-26.309000
 11
-26.184000
 20
10.413000
 21
10.344000
  0
LINE
 10
-26.184000
 11
-26.070000
 20
10.344000
 21
10.261000
  0
LINE
 10
-26.070000
 11
-25.966000
 20
10.261000
 21
10.164000
  0
LINE
 10
-25.966000
 11
-25.876000
 20
10.164000
 21
10.054000
  0
LINE
 10
-25.876000
 11
-25.800000
 20
10.054000
 21
9.935000
  0
LINE
 10
-25.800000
 11
-25.739000
 20
9.935000
 21
9.806000
  0
LINE
 10
-25.739000
 11
-25.695000
 20
9.806000
 21
9.671000
  0
LINE
 10
-25.695000
 11
-25.669000
 20
9.671000
 21
9.532000
  0
LINE
 10
-25.669000
 11
-25.660000
 20
9.532000
 21
9.390000
  0
LINE
 10
-25.660000
 11
-25.669000
 20
9.390000
 21
9.248000
  0
LINE
 10
-25.669000
 11
-25.695000
 20
9.248000
 21
9.109000
  0
LINE
 10
-25.695000
 11
-25.739000
 20
9.109000
 21
8.974000
  0
LINE
 10
-25.739000
 11
-25.800000
 20
8.974000
 21
8.845000
  0
LINE
 10
-25.800000
 11
-25.876000
 20
8.845000
 21
8.726000
  0
LINE
 10
-25.876000
 11
-25.966000
 20
8.726000
 21
8.616000
  0
LINE
 10
-25.966000
 11
-26.070000
 20
8.616000
 21
8.519000
  0
LINE
 10
-26.070000
 11
-26.184000
 20
8.519000
 21
8.436000
  0
LINE
 10
-26.184000
 11
-26.309000
 20
8.436000
 21
8.367000
  0
LINE
 10
-26.309000
 11
-26.441000
 20
8.367000
 21
8.315000
  0
LINE
 10
-26.441000
 11
-26.578000
 20
8.315000
 21
8.280000
  0
LINE
 10
-26.578000
 11
-26.719000
 20
8.280000
 21
8.262000
  0
LINE
 10
-26.719000
 11
-26.861000
 20
8.262000
 21
8.262000
  0
LINE
 10
-26.861000
 11
-27.002000
 20
8.262000
 21
8.280000
  0
LINE
 10
-27.002000
 11
-27.139000
 20
8.280000
 21
8.315000
  0
LINE
 10
-27.139000
 11
-27.271000
 20
8.315000
 21
8.367000
  0
LINE
 10
-27.271000
 11
-27.396000
 20
8.367000
 21
8.436000
  0
LINE
 10
-27.396000
 11
-27.510000
 20
8.436000
 21
8.519000
  0
LINE
 10
-27.510000
 11
-27.614000
 20
8.519000
 21
8.616000
  0
LINE
 10
-27.614000
 11
-27.704000
 20
8.616000
 21
8.726000
  0
LINE
 10
-27.704000
 11
-27.780000
 20
8.726000
 21
8.845000
  0
LINE
 10
-27.780000
 11
-27.841000
 20
8.845000
 21
8.974000
  0
LINE
 10
-27.841000
 11
-27.885000
 20
8.974000
 21
9.109000
  0
LINE
 10
-27.885000
 11
-27.911000
 20
9.109000
 21
9.248000
  0
LINE
 10
-27.911000
 11
-27.920000
 20
9.248000
 21
9.390000
  0
LINE
 10
25.660000
 11
25.669000
 20
-9.390000
 21
-9.248000
  0
LINE
 10
25.669000
 11
25.695000
 20
-9.248000
 21
-9.109000
  0
LINE
 10
25.695000
 11
25.739000
 20
-9.109000
 21
-8.974000
  0
LINE
 10
25.739000
 11
25.800000
 20
-8.974000
 21
-8.845000
  0
LINE
 10
25.800000
 11
25.876000
 20
-8.845000
 21
-8.726000
  0
LINE
 10
25.876000
 11
25.966000
 20
-8.726000
 21
-8.616000
  0
LINE
 10
25.966000
 11
26.070000
 20
-8.616000
 21
-8.519000
  0
LINE
 10
26.070000
 11
26.184000
 20
-8.519000
 21
-8.436000
  0
LINE
 10
26.184000
 11
26.309000
 20
-8.436000
 21
-8.367000
  0
LINE
 10
26.309000
 11
26.441000
 20
-8.367000
 21
-8.315000
  0
LINE
 10
26.441000
 11
26.578000
 20
-8.315000
 21
-8.280000
  0
LINE
 10
26.578000
 11
26.719000
 20
-8.280000
 21
-8.262000
  0
LINE
 10
26.719000
 11
26.861000
 20
-8.262000
 21
-8.262000
  0
LINE
 10
26.861000
 11
27.002000
 20
-8.262000
 21
-8.280000
  0
LINE
 10
27.002000
 11
27.139000
 20
-8.280000
 21
-8.315000
  0
LINE
 10
27.139000
 11
27.271000
 20
-8.315000
 21
-8.367000
  0
LINE
 10
27.271000
 11
27.396000
 20
-8.367000
 21
-8.436000
  0
LINE
 10
27.396000
 11
27.510000
 20
-8.436000
 21
-8.519000
  0
LINE
 10
27.510000
 11
27.614000
 20
-8.519000
 21
-8.616000
  0
LINE
 10
27.614000
 11
27.704000
 20
-8.616000
 21
-8.726000
  0
LINE
 10
27.704000
 11
27.780000
 20
-8.726000
 21
-8.845000
  0
LINE
 10
27.780000
 11
27.841000
 20
-8.845000
 21
-8.974000
  0
LINE
 10
27.841000
 11
27.885000
 20
-8.974000
 21
-9.109000
  0
LINE
 10
27.885000
 11
27.911000
 20
-9.109000
 21
-9.248000
  0
LINE
 10
27.911000
 11
27.920000
 20
-9.248000
 21
-9.390000
  0
LINE
 10
27.920000
 11
27.911000
 20
-9.390000
 21
-9.532000
  0
LINE
 10
27.911000
 11
27.885000
 20
-9.532000
 21
-9.671000
  0
LINE
 10
27.885000
 11
27.841000
 20
-9.671000
 21
-9.806000
  0
LINE
 10
27.841000
 11
27.780000
 20
-9.806000
 21
-9.935000
  0
LINE
 10
27.780000
 11
27.704000
 20
-9.935000
 21
-10.054000
  0
LINE
 10
27.704000
 11
27.614000
 20
-10.054000
 21
-10.164000
  0
LINE
 10
27.614000
 11
27.510000
 20
-10.164000
 21
-10.261000
  0
LINE
 10
27.510000
 11
27.396000
 20
-10.261000
 21
-10.344000
  0
LINE
 10
27.396000
 11
27.271000
 20
-10.344000
 21
-10.413000
  0
LINE
 10
27.271000
 11
27.139000
 20
-10.413000
 21
-10.465000
  0
LINE
 10
27.139000
 11
27.002000
 20
-10.465000
 21
-10.500000
  0
LINE
 10
27.002000
 11
26.861000
 20
-10.500000
 21
-10.518000
  0
LINE
 10
26.861000
 11
26.719000
 20
-10.518000
 21
-10.518000
  0
LINE
 10
26.719000
 11
26.578000
 20
-10.518000
 21
-10.500000
  0
LINE
 10
26.578000
 11
26.441000
 20
-10.500000
 21
-10.465000
  0
LINE
 10
26.441000
 11
26.309000
 20
-10.465000
 21
-10.413000
  0
LINE
 10
26.309000
 11
26.184000
 20
-10.413000
 21
-10.344000
  0
LINE
 10
26.184000
 11
26.070000
 20
-10.344000
 21
-10.261000
  0
LINE
 10
26.070000
 11
25.966000
 20
-10.261000
 21
-10.164000
  0
LINE
 10
25.966000
 11
25.876000
 20
-10.164000
 21
-10.054000
  0
LINE
 10
25.876000
 11
25.800000
 20
-10.054000
 21
-9.935000
  0
LINE
 10
25.800000
 11
25.739000
 20
-9.935000
 21
-9.806000
  0
LINE
 10
25.739000
 11
25.695000
 20
-9.806000
 21
-9.671000
  0
LINE
 10
25.695000
 11
25.669000
 20
-9.671000
 21
-9.532000
  0
LINE
 10
25.669000
 11
25.660000
 20
-9.532000
 21
-9.390000
  0
LINE
 10
25.660000
 11
25.669000
 20
9.390000
 21
9.532000
  0
LINE
 10
25.669000
 11
25.695000
 20
9.532000
 21
9.671000
  0
LINE
 10
25.695000
 11
25.739000
 20
9.671000
 21
9.806000
  0
LINE
 10
25.739000
 11
25.800000
 20
9.806000
 21
9.935000
  0
LINE
 10
25.800000
 11
25.876000
 20
9.935000
 21
10.054000
  0
LINE
 10
25.876000
 11
25.966000
 20
10.054000
 21
10.164000
  0
LINE
 10
25.966000
 11
26.070000
 20
10.164000
 21
10.261000
  0
LINE
 10
26.070000
 11
26.184000
 20
10.261000
 21
10.344000
  0
LINE
 10
26.184000
 11
26.309000
 20
10.344000
 21
10.413000
  0
LINE
 10
26.309000
 11
26.441000
 20
10.413000
 21
10.465000
  0
LINE
 10
26.441000
 11
26.578000
 20
10.465000
 21
10.500000
  0
LINE
 10
26.578000
 11
26.719000
 20
10.500000
 21
10.518000
  0
LINE
 10
26.719000
 11
26.861000
 20
10.518000
 21
10.518000
  0
LINE
 10
26.861000
 11
27.002000
 20
10.518000
 21
10.500000
  0
LINE
 10
27.002000
 11
27.139000
 20
10.500000
 21
10.465000
  0
LINE
 10
27.139000
 11
27.271000
 20
10.465000
 21
10.413000
  0
LINE
 10
27.271000
 11
27.396000
 20
10.413000
 21
10.344000
  0
LINE
 10
27.396000
 11
27.510000
 20
10.344000
 21
10.261000
  0
LINE
 10
27.510000
 11
27.614000
 20
10.261000
 21
10.164000
  0
LINE
 10
27.614000
 11
27.704000
 20
10.164000
 21
10.054000
  0
LINE
 10
27.704000
 11
27.780000
 20
10.054000
 21
9.935000
  0
LINE
 10
27.780000
 11
27.841000
 20
9.935000
 21
9.806000
  0
LINE
 10
27.841000
 11
27.885000
 20
9.806000
 21
9.671000
  0
LINE
 10
27.885000
 11
27.911000
 20
9.671000
 21
9.532000
  0
LINE
 10
27.911000
 11
27.920000
 20
9.532000
 21
9.390000
  0
LINE
 10
27.920000
 11
27.911000
 20
9.390000
 21
9.248000
  0
LINE
 10
27.911000
 11
27.885000
 20
9.248000
 21
9.109000
  0
LINE
 10
27.885000
 11
27.841000
 20
9.109000
 21
8.974000
  0
LINE
 10
27.841000
 11
27.780000
 20
8.974000
 21
8.845000
  0
LINE
 10
27.780000
 11
27.704000
 20
8.845000
 21
8.726000
  0
LINE
 10
27.704000
 11
27.614000
 20
8.726000
 21
8.616000
  0
LINE
 10
27.614000
 11
27.510000
 20
8.616000
 21
8.519000
  0
LINE
 10
27.510000
 11
27.396000
 20
8.519000
 21
8.436000
  0
LINE
 10
27.396000
 11
27.271000
 20
8.436000
 21
8.367000
  0
LINE
 10
27.271000
 11
27.139000
 20
8.367000
 21
8.315000
  0
LINE
 10
27.139000
 11
27.002000
 20
8.315000
 21
8.280000
  0
LINE
 10
27.002000
 11
26.861000
 20
8.280000
 21
8.262000
  0
LINE
 10
26.861000
 11
26.719000
 20
8.262000
 21
8.262000
  0
LINE
 10
26.719000
 11
26.578000
 20
8.262000
 21
8.280000
  0
LINE
 10
26.578000
 11
26.441000
 20
8.280000
 21
8.315000
  0
LINE
 10
26.441000
 11
26.309000
 20
8.315000
 21
8.367000
  0
LINE
 10
26.309000
 11
26.184000
 20
8.367000
 21
8.436000
  0
LINE
 10
26.184000
 11
26.070000
 20
8.436000
 21
8.519000
  0
LINE
 10
26.070000
 11
25.966000
 20
8.519000
 21
8.616000
  0
LINE
 10
25.966000
 11
25.876000
 20
8.616000
 21
8.726000
  0
LINE
 10
25.876000
 11
25.800000
 20
8.726000
 21
8.845000
  0
LINE
 10
25.800000
 11
25.739000
 20
8.845000
 21
8.974000
  0
LINE
 10
25.739000
 11
25.695000
 20
8.974000
 21
9.109000
  0
LINE
 10
25.695000
 11
25.669000
 20
9.109000
 21
9.248000
  0
LINE
 10
25.669000
 11
25.660000
 20
9.248000
 21
9.390000
  0
LINE
 10
36.600000
 11
36.600000
 20
-12.700000
 21
12.700000
  0
LINE
 10
36.600000
 11
62.000000
 20
12.700000
 21
12.700000
  0
LINE
 10
62.000000
 11
62.000000
 20
12.700000
 21
-12.700000
  0
LINE
 10
62.000000
 11
36.600000
 20
-12.700000
 21
-12.700000
  0
ENDSEC
  0
EOF
