  0
SECTION
  2
ENTITIES
  0
LINE
 10
-30.600000
 11
-30.600000
 20
-13.200000
 21
13.200000
  0
LINE
 10
-30.600000
 11
30.600000
 20
13.200000
 21
13.200000
  0
LINE
 10
30.600000
 11
30.600000
 20
13.200000
 21
-13.200000
  0
LINE
 10
30.600000
 11
-30.600000
 20
-13.200000
 21
-13.200000
  0
LINE
 10
-28.936000
 11
-28.927000
 20
-10.406000
 21
-10.264000
  0
LINE
 10
-28.927000
 11
-28.901000
 20
-10.264000
 21
-10.125000
  0
LINE
 10
-28.901000
 11
-28.857000
 20
-10.125000
 21
-9.990000
  0
LINE
 10
-28.857000
 11
-28.796000
 20
-9.990000
 21
-9.861000
  0
LINE
 10
-28.796000
 11
-28.720000
 20
-9.861000
 21
-9.742000
  0
LINE
 10
-28.720000
 11
-28.630000
 20
-9.742000
 21
-9.632000
  0
LINE
 10
-28.630000
 11
-28.526000
 20
-9.632000
 21
-9.535000
  0
LINE
 10
-28.526000
 11
-28.412000
 20
-9.535000
 21
-9.452000
  0
LINE
 10
-28.412000
 11
-28.287000
 20
-9.452000
 21
-9.383000
  0
LINE
 10
-28.287000
 11
-28.155000
 20
-9.383000
 21
-9.331000
  0
LINE
 10
-28.155000
 11
-28.018000
 20
-9.331000
 21
-9.296000
  0
LINE
 10
-28.018000
 11
-27.877000
 20
-9.296000
 21
-9.278000
  0
LINE
 10
-27.877000
 11
-27.735000
 20
-9.278000
 21
-9.278000
  0
LINE
 10
-27.735000
 11
-27.594000
 20
-9.278000
 21
-9.296000
  0
LINE
 10
-27.594000
 11
-27.457000
 20
-9.296000
 21
-9.331000
  0
LINE
 10
-27.457000
 11
-27.325000
 20
-9.331000
 21
-9.383000
  0
LINE
 10
-27.325000
 11
-27.200000
 20
-9.383000
 21
-9.452000
  0
LINE
 10
-27.200000
 11
-27.086000
 20
-9.452000
 21
-9.535000
  0
LINE
 10
-27.086000
 11
-26.982000
 20
-9.535000
 21
-9.632000
  0
LINE
 10
-26.982000
 11
-26.892000
 20
-9.632000
 21
-9.742000
  0
LINE
 10
-26.892000
 11
-26.816000
 20
-9.742000
 21
-9.861000
  0
LINE
 10
-26.816000
 11
-26.755000
 20
-9.861000
 21
-9.990000
  0
LINE
 10
-26.755000
 11
-26.711000
 20
-9.990000
 21
-10.125000
  0
LINE
 10
-26.711000
 11
-26.685000
 20
-10.125000
 21
-10.264000
  0
LINE
 10
-26.685000
 11
-26.676000
 20
-10.264000
 21
-10.406000
  0
LINE
 10
-26.676000
 11
-26.685000
 20
-10.406000
 21
-10.548000
  0
LINE
 10
-26.685000
 11
-26.711000
 20
-10.548000
 21
-10.687000
  0
LINE
 10
-26.711000
 11
-26.755000
 20
-10.687000
 21
-10.822000
  0
LINE
 10
-26.755000
 11
-26.816000
 20
-10.822000
 21
-10.951000
  0
LINE
 10
-26.816000
 11
-26.892000
 20
-10.951000
 21
-11.070000
  0
LINE
 10
-26.892000
 11
-26.982000
 20
-11.070000
 21
-11.180000
  0
LINE
 10
-26.982000
 11
-27.086000
 20
-11.180000
 21
-11.277000
  0
LINE
 10
-27.086000
 11
-27.200000
 20
-11.277000
 21
-11.360000
  0
LINE
 10
-27.200000
 11
-27.325000
 20
-11.360000
 21
-11.429000
  0
LINE
 10
-27.325000
 11
-27.457000
 20
-11.429000
 21
-11.481000
  0
LINE
 10
-27.457000
 11
-27.594000
 20
-11.481000
 21
-11.516000
  0
LINE
 10
-27.594000
 11
-27.735000
 20
-11.516000
 21
-11.534000
  0
LINE
 10
-27.735000
 11
-27.877000
 20
-11.534000
 21
-11.534000
  0
LINE
 10
-27.877000
 11
-28.018000
 20
-11.534000
 21
-11.516000
  0
LINE
 10
-28.018000
 11
-28.155000
 20
-11.516000
 21
-11.481000
  0
LINE
 10
-28.155000
 11
-28.287000
 20
-11.481000
 21
-11.429000
  0
LINE
 10
-28.287000
 11
-28.412000
 20
-11.429000
 21
-11.360000
  0
LINE
 10
-28.412000
 11
-28.526000
 20
-11.360000
 21
-11.277000
  0
LINE
 10
-28.526000
 11
-28.630000
 20
-11.277000
 21
-11.180000
  0
LINE
 10
-28.630000
 11
-28.720000
 20
-11.180000
 21
-11.070000
  0
LINE
 10
-28.720000
 11
-28.796000
 20
-11.070000
 21
-10.951000
  0
LINE
 10
-28.796000
 11
-28.857000
 20
-10.951000
 21
-10.822000
  0
LINE
 10
-28.857000
 11
-28.901000
 20
-10.822000
 21
-10.687000
  0
LINE
 10
-28.901000
 11
-28.927000
 20
-10.687000
 21
-10.548000
  0
LINE
 10
-28.927000
 11
-28.936000
 20
-10.548000
 21
-10.406000
  0
LINE
 10
-28.936000
 11
-28.927000
 20
10.406000
 21
10.548000
  0
LINE
 10
-28.927000
 11
-28.901000
 20
10.548000
 21
10.687000
  0
LINE
 10
-28.901000
 11
-28.857000
 20
10.687000
 21
10.822000
  0
LINE
 10
-28.857000
 11
-28.796000
 20
10.822000
 21
10.951000
  0
LINE
 10
-28.796000
 11
-28.720000
 20
10.951000
 21
11.070000
  0
LINE
 10
-28.720000
 11
-28.630000
 20
11.070000
 21
11.180000
  0
LINE
 10
-28.630000
 11
-28.526000
 20
11.180000
 21
11.277000
  0
LINE
 10
-28.526000
 11
-28.412000
 20
11.277000
 21
11.360000
  0
LINE
 10
-28.412000
 11
-28.287000
 20
11.360000
 21
11.429000
  0
LINE
 10
-28.287000
 11
-28.155000
 20
11.429000
 21
11.481000
  0
LINE
 10
-28.155000
 11
-28.018000
 20
11.481000
 21
11.516000
  0
LINE
 10
-28.018000
 11
-27.877000
 20
11.516000
 21
11.534000
  0
LINE
 10
-27.877000
 11
-27.735000
 20
11.534000
 21
11.534000
  0
LINE
 10
-27.735000
 11
-27.594000
 20
11.534000
 21
11.516000
  0
LINE
 10
-27.594000
 11
-27.457000
 20
11.516000
 21
11.481000
  0
LINE
 10
-27.457000
 11
-27.325000
 20
11.481000
 21
11.429000
  0
LINE
 10
-27.325000
 11
-27.200000
 20
11.429000
 21
11.360000
  0
LINE
 10
-27.200000
 11
-27.086000
 20
11.360000
 21
11.277000
  0
LINE
 10
-27.086000
 11
-26.982000
 20
11.277000
 21
11.180000
  0
LINE
 10
-26.982000
 11
-26.892000
 20
11.180000
 21
11.070000
  0
LINE
 10
-26.892000
 11
-26.816000
 20
11.070000
 21
10.951000
  0
LINE
 10
-26.816000
 11
-26.755000
 20
10.951000
 21
10.822000
  0
LINE
 10
-26.755000
 11
-26.711000
 20
10.822000
 21
10.687000
  0
LINE
 10
-26.711000
 11
-26.685000
 20
10.687000
 21
10.548000
  0
LINE
 10
-26.685000
 11
-26.676000
 20
10.548000
 21
10.406000
  0
LINE
 10
-26.676000
 11
-26.685000
 20
10.406000
 21
10.264000
  0
LINE
 10
-26.685000
 11
-26.711000
 20
10.264000
 21
10.125000
  0
LINE
 10
-26.711000
 11
-26.755000
 20
10.125000
 21
9.990000
  0
LINE
 10
-26.755000
 11
-26.816000
 20
9.990000
 21
9.861000
  0
LINE
 10
-26.816000
 11
-26.892000
 20
9.861000
 21
9.742000
  0
LINE
 10
-26.892000
 11
-26.982000
 20
9.742000
 21
9.632000
  0
LINE
 10
-26.982000
 11
-27.086000
 20
9.632000
 21
9.535000
  0
LINE
 10
-27.086000
 11
-27.200000
 20
9.535000
 21
9.452000
  0
LINE
 10
-27.200000
 11
-27.325000
 20
9.452000
 21
9.383000
  0
LINE
 10
-27.325000
 11
-27.457000
 20
9.383000
 21
9.331000
  0
LINE
 10
-27.457000
 11
-27.594000
 20
9.331000
 21
9.296000
  0
LINE
 10
-27.594000
 11
-27.735000
 20
9.296000
 21
9.278000
  0
LINE
 10
-27.735000
 11
-27.877000
 20
9.278000
 21
9.278000
  0
LINE
 10
-27.877000
 11
-28.018000
 20
9.278000
 21
9.296000
  0
LINE
 10
-28.018000
 11
-28.155000
 20
9.296000
 21
9.331000
  0
LINE
 10
-28.155000
 11
-28.287000
 20
9.331000
 21
9.383000
  0
LINE
 10
-28.287000
 11
-28.412000
 20
9.383000
 21
9.452000
  0
LINE
 10
-28.412000
 11
-28.526000
 20
9.452000
 21
9.535000
  0
LINE
 10
-28.526000
 11
-28.630000
 20
9.535000
 21
9.632000
  0
LINE
 10
-28.630000
 11
-28.720000
 20
9.632000
 21
9.742000
  0
LINE
 10
-28.720000
 11
-28.796000
 20
9.742000
 21
9.861000
  0
LINE
 10
-28.796000
 11
-28.857000
 20
9.861000
 21
9.990000
  0
LINE
 10
-28.857000
 11
-28.901000
 20
9.990000
 21
10.125000
  0
LINE
 10
-28.901000
 11
-28.927000
 20
10.125000
 21
10.264000
  0
LINE
 10
-28.927000
 11
-28.936000
 20
10.264000
 21
10.406000
  0
LINE
 10
26.676000
 11
26.685000
 20
-10.406000
 21
-10.264000
  0
LINE
 10
26.685000
 11
26.711000
 20
-10.264000
 21
-10.125000
  0
LINE
 10
26.711000
 11
26.755000
 20
-10.125000
 21
-9.990000
  0
LINE
 10
26.755000
 11
26.816000
 20
-9.990000
 21
-9.861000
  0
LINE
 10
26.816000
 11
26.892000
 20
-9.861000
 21
-9.742000
  0
LINE
 10
26.892000
 11
26.982000
 20
-9.742000
 21
-9.632000
  0
LINE
 10
26.982000
 11
27.086000
 20
-9.632000
 21
-9.535000
  0
LINE
 10
27.086000
 11
27.200000
 20
-9.535000
 21
-9.452000
  0
LINE
 10
27.200000
 11
27.325000
 20
-9.452000
 21
-9.383000
  0
LINE
 10
27.325000
 11
27.457000
 20
-9.383000
 21
-9.331000
  0
LINE
 10
27.457000
 11
27.594000
 20
-9.331000
 21
-9.296000
  0
LINE
 10
27.594000
 11
27.735000
 20
-9.296000
 21
-9.278000
  0
LINE
 10
27.735000
 11
27.877000
 20
-9.278000
 21
-9.278000
  0
LINE
 10
27.877000
 11
28.018000
 20
-9.278000
 21
-9.296000
  0
LINE
 10
28.018000
 11
28.155000
 20
-9.296000
 21
-9.331000
  0
LINE
 10
28.155000
 11
28.287000
 20
-9.331000
 21
-9.383000
  0
LINE
 10
28.287000
 11
28.412000
 20
-9.383000
 21
-9.452000
  0
LINE
 10
28.412000
 11
28.526000
 20
-9.452000
 21
-9.535000
  0
LINE
 10
28.526000
 11
28.630000
 20
-9.535000
 21
-9.632000
  0
LINE
 10
28.630000
 11
28.720000
 20
-9.632000
 21
-9.742000
  0
LINE
 10
28.720000
 11
28.796000
 20
-9.742000
 21
-9.861000
  0
LINE
 10
28.796000
 11
28.857000
 20
-9.861000
 21
-9.990000
  0
LINE
 10
28.857000
 11
28.901000
 20
-9.990000
 21
-10.125000
  0
LINE
 10
28.901000
 11
28.927000
 20
-10.125000
 21
-10.264000
  0
LINE
 10
28.927000
 11
28.936000
 20
-10.264000
 21
-10.406000
  0
LINE
 10
28.936000
 11
28.927000
 20
-10.406000
 21
-10.548000
  0
LINE
 10
28.927000
 11
28.901000
 20
-10.548000
 21
-10.687000
  0
LINE
 10
28.901000
 11
28.857000
 20
-10.687000
 21
-10.822000
  0
LINE
 10
28.857000
 11
28.796000
 20
-10.822000
 21
-10.951000
  0
LINE
 10
28.796000
 11
28.720000
 20
-10.951000
 21
-11.070000
  0
LINE
 10
28.720000
 11
28.630000
 20
-11.070000
 21
-11.180000
  0
LINE
 10
28.630000
 11
28.526000
 20
-11.180000
 21
-11.277000
  0
LINE
 10
28.526000
 11
28.412000
 20
-11.277000
 21
-11.360000
  0
LINE
 10
28.412000
 11
28.287000
 20
-11.360000
 21
-11.429000
  0
LINE
 10
28.287000
 11
28.155000
 20
-11.429000
 21
-11.481000
  0
LINE
 10
28.155000
 11
28.018000
 20
-11.481000
 21
-11.516000
  0
LINE
 10
28.018000
 11
27.877000
 20
-11.516000
 21
-11.534000
  0
LINE
 10
27.877000
 11
27.735000
 20
-11.534000
 21
-11.534000
  0
LINE
 10
27.735000
 11
27.594000
 20
-11.534000
 21
-11.516000
  0
LINE
 10
27.594000
 11
27.457000
 20
-11.516000
 21
-11.481000
  0
LINE
 10
27.457000
 11
27.325000
 20
-11.481000
 21
-11.429000
  0
LINE
 10
27.325000
 11
27.200000
 20
-11.429000
 21
-11.360000
  0
LINE
 10
27.200000
 11
27.086000
 20
-11.360000
 21
-11.277000
  0
LINE
 10
27.086000
 11
26.982000
 20
-11.277000
 21
-11.180000
  0
LINE
 10
26.982000
 11
26.892000
 20
-11.180000
 21
-11.070000
  0
LINE
 10
26.892000
 11
26.816000
 20
-11.070000
 21
-10.951000
  0
LINE
 10
26.816000
 11
26.755000
 20
-10.951000
 21
-10.822000
  0
LINE
 10
26.755000
 11
26.711000
 20
-10.822000
 21
-10.687000
  0
LINE
 10
26.711000
 11
26.685000
 20
-10.687000
 21
-10.548000
  0
LINE
 10
26.685000
 11
26.676000
 20
-10.548000
 21
-10.406000
  0
LINE
 10
26.676000
 11
26.685000
 20
10.406000
 21
10.548000
  0
LINE
 10
26.685000
 11
26.711000
 20
10.548000
 21
10.687000
  0
LINE
 10
26.711000
 11
26.755000
 20
10.687000
 21
10.822000
  0
LINE
 10
26.755000
 11
26.816000
 20
10.822000
 21
10.951000
  0
LINE
 10
26.816000
 11
26.892000
 20
10.951000
 21
11.070000
  0
LINE
 10
26.892000
 11
26.982000
 20
11.070000
 21
11.180000
  0
LINE
 10
26.982000
 11
27.086000
 20
11.180000
 21
11.277000
  0
LINE
 10
27.086000
 11
27.200000
 20
11.277000
 21
11.360000
  0
LINE
 10
27.200000
 11
27.325000
 20
11.360000
 21
11.429000
  0
LINE
 10
27.325000
 11
27.457000
 20
11.429000
 21
11.481000
  0
LINE
 10
27.457000
 11
27.594000
 20
11.481000
 21
11.516000
  0
LINE
 10
27.594000
 11
27.735000
 20
11.516000
 21
11.534000
  0
LINE
 10
27.735000
 11
27.877000
 20
11.534000
 21
11.534000
  0
LINE
 10
27.877000
 11
28.018000
 20
11.534000
 21
11.516000
  0
LINE
 10
28.018000
 11
28.155000
 20
11.516000
 21
11.481000
  0
LINE
 10
28.155000
 11
28.287000
 20
11.481000
 21
11.429000
  0
LINE
 10
28.287000
 11
28.412000
 20
11.429000
 21
11.360000
  0
LINE
 10
28.412000
 11
28.526000
 20
11.360000
 21
11.277000
  0
LINE
 10
28.526000
 11
28.630000
 20
11.277000
 21
11.180000
  0
LINE
 10
28.630000
 11
28.720000
 20
11.180000
 21
11.070000
  0
LINE
 10
28.720000
 11
28.796000
 20
11.070000
 21
10.951000
  0
LINE
 10
28.796000
 11
28.857000
 20
10.951000
 21
10.822000
  0
LINE
 10
28.857000
 11
28.901000
 20
10.822000
 21
10.687000
  0
LINE
 10
28.901000
 11
28.927000
 20
10.687000
 21
10.548000
  0
LINE
 10
28.927000
 11
28.936000
 20
10.548000
 21
10.406000
  0
LINE
 10
28.936000
 11
28.927000
 20
10.406000
 21
10.264000
  0
LINE
 10
28.927000
 11
28.901000
 20
10.264000
 21
10.125000
  0
LINE
 10
28.901000
 11
28.857000
 20
10.125000
 21
9.990000
  0
LINE
 10
28.857000
 11
28.796000
 20
9.990000
 21
9.861000
  0
LINE
 10
28.796000
 11
28.720000
 20
9.861000
 21
9.742000
  0
LINE
 10
28.720000
 11
28.630000
 20
9.742000
 21
9.632000
  0
LINE
 10
28.630000
 11
28.526000
 20
9.632000
 21
9.535000
  0
LINE
 10
28.526000
 11
28.412000
 20
9.535000
 21
9.452000
  0
LINE
 10
28.412000
 11
28.287000
 20
9.452000
 21
9.383000
  0
LINE
 10
28.287000
 11
28.155000
 20
9.383000
 21
9.331000
  0
LINE
 10
28.155000
 11
28.018000
 20
9.331000
 21
9.296000
  0
LINE
 10
28.018000
 11
27.877000
 20
9.296000
 21
9.278000
  0
LINE
 10
27.877000
 11
27.735000
 20
9.278000
 21
9.278000
  0
LINE
 10
27.735000
 11
27.594000
 20
9.278000
 21
9.296000
  0
LINE
 10
27.594000
 11
27.457000
 20
9.296000
 21
9.331000
  0
LINE
 10
27.457000
 11
27.325000
 20
9.331000
 21
9.383000
  0
LINE
 10
27.325000
 11
27.200000
 20
9.383000
 21
9.452000
  0
LINE
 10
27.200000
 11
27.086000
 20
9.452000
 21
9.535000
  0
LINE
 10
27.086000
 11
26.982000
 20
9.535000
 21
9.632000
  0
LINE
 10
26.982000
 11
26.892000
 20
9.632000
 21
9.742000
  0
LINE
 10
26.892000
 11
26.816000
 20
9.742000
 21
9.861000
  0
LINE
 10
26.816000
 11
26.755000
 20
9.861000
 21
9.990000
  0
LINE
 10
26.755000
 11
26.711000
 20
9.990000
 21
10.125000
  0
LINE
 10
26.711000
 11
26.685000
 20
10.125000
 21
10.264000
  0
LINE
 10
26.685000
 11
26.676000
 20
10.264000
 21
10.406000
  0
LINE
 10
36.600000
 11
36.600000
 20
-12.700000
 21
12.700000
  0
LINE
 10
36.600000
 11
62.000000
 20
12.700000
 21
12.700000
  0
LINE
 10
62.000000
 11
62.000000
 20
12.700000
 21
-12.700000
  0
LINE
 10
62.000000
 11
36.600000
 20
-12.700000
 21
-12.700000
  0
ENDSEC
  0
EOF
